<svg xmlns="http://www.w3.org/2000/svg" xmlns:xlink="http://www.w3.org/1999/xlink" width="500" zoomAndPan="magnify" viewBox="0 0 375 374.999991" height="500" preserveAspectRatio="xMidYMid meet" version="1.0"><defs><g/><clipPath id="98c1578285"><path d="M 112.5 98.140625 L 262.5 98.140625 L 262.5 222 L 112.5 222 Z M 112.5 98.140625 " clip-rule="nonzero"/></clipPath></defs><g clip-path="url(#98c1578285)"><path fill="#004aad" d="M 178.785156 113.636719 C 178.785156 112.707031 179.542969 111.949219 180.472656 111.949219 C 181.402344 111.949219 182.160156 112.707031 182.160156 113.636719 C 182.160156 114.566406 181.402344 115.320312 180.472656 115.320312 C 179.542969 115.320312 178.785156 114.566406 178.785156 113.636719 M 179.15625 126.476562 C 179.15625 125.546875 179.914062 124.789062 180.84375 124.789062 C 181.773438 124.789062 182.53125 125.546875 182.53125 126.476562 C 182.53125 127.40625 181.773438 128.164062 180.84375 128.164062 C 179.914062 128.164062 179.15625 127.40625 179.15625 126.476562 Z M 179.554688 139.316406 C 179.554688 138.394531 180.3125 137.636719 181.238281 137.636719 C 182.167969 137.636719 182.925781 138.394531 182.925781 139.316406 C 182.925781 140.246094 182.167969 141.003906 181.238281 141.003906 C 180.3125 141.003906 179.554688 140.246094 179.554688 139.316406 Z M 196.207031 113.636719 C 196.207031 112.707031 195.457031 111.949219 194.527344 111.949219 C 193.59375 111.949219 192.832031 112.707031 192.832031 113.636719 C 192.832031 114.566406 193.59375 115.320312 194.527344 115.320312 C 195.457031 115.320312 196.207031 114.566406 196.207031 113.636719 Z M 195.839844 126.476562 C 195.839844 125.546875 195.082031 124.789062 194.152344 124.789062 C 193.222656 124.789062 192.464844 125.546875 192.464844 126.476562 C 192.464844 127.40625 193.222656 128.164062 194.152344 128.164062 C 195.082031 128.164062 195.839844 127.40625 195.839844 126.476562 Z M 195.445312 139.316406 C 195.445312 138.394531 194.683594 137.636719 193.753906 137.636719 C 192.828125 137.636719 192.070312 138.394531 192.070312 139.316406 C 192.070312 140.246094 192.828125 141.003906 193.753906 141.003906 C 194.683594 141.003906 195.445312 140.246094 195.445312 139.316406 Z M 194.042969 167.6875 L 193.824219 155.847656 L 181.171875 155.847656 L 180.957031 167.6875 Z M 164.871094 206.996094 C 155.472656 203.617188 124.105469 219.125 112.550781 207.582031 C 120.945312 222.285156 154.570312 204.953125 164.871094 206.996094 Z M 210.132812 206.996094 C 219.527344 203.617188 250.890625 219.125 262.449219 207.585938 C 254.054688 222.285156 220.429688 204.953125 210.132812 206.996094 Z M 194.273438 180.613281 L 194.175781 175.179688 C 196.421875 169.617188 200.894531 167.3125 206.011719 167.199219 C 219.839844 166.886719 227.921875 177.660156 241.757812 174.8125 C 243.953125 188.246094 253.402344 200.511719 260.089844 205.527344 C 251.523438 195.140625 240.515625 178.527344 244.515625 171.515625 C 228.800781 177.988281 221.90625 163.796875 206.214844 163.910156 C 201.550781 163.949219 196.414062 165.53125 194.023438 168.976562 L 180.988281 168.976562 C 178.59375 165.523438 173.453125 163.945312 168.789062 163.910156 C 153.09375 163.796875 146.207031 177.988281 130.484375 171.515625 C 134.484375 178.535156 123.476562 195.140625 114.902344 205.527344 C 121.597656 200.503906 131.046875 188.246094 133.246094 174.8125 C 147.078125 177.660156 155.152344 166.886719 168.988281 167.199219 C 174.101562 167.316406 178.570312 169.613281 180.820312 175.148438 L 180.722656 180.613281 Z M 194.507812 193.535156 L 194.296875 181.898438 L 180.699219 181.898438 L 180.484375 193.535156 Z M 194.746094 206.460938 L 194.535156 194.824219 L 180.464844 194.824219 L 180.253906 206.460938 Z M 194.285156 218.101562 C 206.941406 201.179688 250.507812 234.605469 262.339844 214.988281 C 247.722656 230.570312 212.917969 200.613281 194.886719 212.613281 L 194.769531 207.75 L 180.230469 207.75 L 180.105469 212.59375 C 162.410156 200.660156 127.21875 230.644531 112.660156 214.988281 C 124.507812 234.640625 168.59375 201.078125 181.1875 218.179688 C 183.089844 220.765625 192.378906 220.660156 194.285156 218.101562 Z M 203.210938 135.664062 C 202.140625 135.285156 201.472656 135.328125 201.054688 135.640625 C 200.5625 136.027344 200.28125 137.113281 200.199219 138.339844 L 198.066406 138.339844 L 198.523438 127.453125 L 200.644531 127.453125 C 200.746094 128.628906 201.015625 129.667969 201.445312 130.0625 C 201.863281 130.457031 202.585938 130.574219 203.785156 130.074219 C 206.824219 128.808594 206.816406 123.941406 203.636719 122.816406 C 202.570312 122.441406 201.898438 122.484375 201.480469 122.804688 C 200.988281 123.179688 200.707031 124.269531 200.625 125.5 L 198.609375 125.5 L 199.0625 114.613281 L 201.070312 114.613281 C 201.175781 115.789062 201.445312 116.824219 201.867188 117.214844 C 202.289062 117.617188 203.015625 117.726562 204.214844 117.230469 C 207.25 115.96875 207.246094 111.097656 204.066406 109.976562 C 202.996094 109.601562 202.328125 109.640625 201.914062 109.957031 C 201.421875 110.339844 201.136719 111.425781 201.054688 112.660156 L 199.140625 112.660156 L 199.597656 101.816406 C 197.960938 101.730469 196.832031 101.222656 195.640625 100.664062 C 191.035156 98.507812 184.714844 98.152344 180.035156 100.324219 C 178.570312 101.003906 177.363281 101.710938 175.402344 101.816406 L 175.855469 112.660156 L 173.945312 112.660156 C 173.859375 111.425781 173.578125 110.339844 173.085938 109.957031 C 172.671875 109.640625 171.996094 109.601562 170.929688 109.976562 C 167.75 111.097656 167.746094 115.96875 170.78125 117.230469 C 171.980469 117.726562 172.703125 117.617188 173.128906 117.214844 C 173.550781 116.824219 173.824219 115.789062 173.925781 114.613281 L 175.933594 114.613281 L 176.390625 125.5 L 174.375 125.5 C 174.289062 124.269531 174.007812 123.179688 173.511719 122.804688 C 173.097656 122.484375 172.425781 122.441406 171.355469 122.816406 C 168.179688 123.941406 168.171875 128.808594 171.210938 130.074219 C 172.40625 130.574219 173.132812 130.457031 173.558594 130.0625 C 173.976562 129.667969 174.25 128.628906 174.355469 127.453125 L 176.46875 127.453125 L 176.929688 138.339844 L 174.800781 138.339844 C 174.714844 137.113281 174.433594 136.027344 173.9375 135.640625 C 173.527344 135.328125 172.855469 135.285156 171.785156 135.664062 C 168.605469 136.785156 168.601562 141.65625 171.640625 142.914062 C 172.835938 143.414062 173.558594 143.296875 173.984375 142.902344 C 174.40625 142.507812 174.679688 141.472656 174.78125 140.300781 L 177.007812 140.300781 L 177.199219 144.863281 C 180.261719 148.351562 180.308594 150.714844 180.304688 154.140625 L 194.691406 154.140625 C 194.683594 150.714844 194.734375 148.351562 197.792969 144.863281 L 197.984375 140.300781 L 200.214844 140.300781 C 200.316406 141.472656 200.585938 142.507812 201.011719 142.902344 C 201.433594 143.296875 202.160156 143.414062 203.359375 142.914062 C 206.390625 141.65625 206.390625 136.785156 203.210938 135.664062 Z M 203.210938 135.664062 " fill-opacity="1" fill-rule="evenodd"/></g><path fill="#004aad" d="M 162.960938 146.390625 L 165.203125 150.578125 L 169.875 149.742188 C 170.21875 149.679688 170.460938 150.136719 170.21875 150.386719 L 166.929688 153.808594 L 169.167969 157.996094 C 169.332031 158.300781 168.976562 158.671875 168.664062 158.523438 L 164.390625 156.449219 L 161.101562 159.875 C 160.863281 160.121094 160.398438 159.898438 160.445312 159.554688 L 161.09375 154.855469 L 156.820312 152.78125 C 156.507812 152.628906 156.578125 152.121094 156.921875 152.0625 L 161.597656 151.222656 L 162.242188 146.519531 C 162.289062 146.175781 162.800781 146.085938 162.960938 146.390625 " fill-opacity="1" fill-rule="evenodd"/><path fill="#004aad" d="M 212.035156 146.390625 L 209.796875 150.578125 L 205.125 149.742188 C 204.78125 149.679688 204.539062 150.136719 204.78125 150.386719 L 208.074219 153.808594 L 205.832031 157.996094 C 205.664062 158.300781 206.027344 158.671875 206.335938 158.523438 L 210.613281 156.449219 L 213.902344 159.875 C 214.136719 160.121094 214.601562 159.898438 214.554688 159.554688 L 213.902344 154.855469 L 218.183594 152.78125 C 218.492188 152.628906 218.421875 152.121094 218.078125 152.0625 L 213.40625 151.222656 L 212.753906 146.519531 C 212.710938 146.175781 212.203125 146.085938 212.035156 146.390625 " fill-opacity="1" fill-rule="evenodd"/><g fill="#38405f" fill-opacity="1"><g transform="translate(88.39453, 264.29405)"><g><path d="M 18.328125 -3.09375 C 18.347656 -2.945312 18.359375 -2.722656 18.359375 -2.421875 C 18.359375 -1.859375 18.253906 -1.332031 18.046875 -0.84375 C 16.128906 -0.769531 14.382812 -0.382812 12.8125 0.3125 C 12.414062 0.144531 12.128906 -0.09375 11.953125 -0.40625 C 11.773438 -0.71875 11.6875 -1.15625 11.6875 -1.71875 C 11.6875 -1.957031 11.734375 -2.398438 11.828125 -3.046875 C 11.453125 -2.179688 10.960938 -1.503906 10.359375 -1.015625 C 9.367188 -0.171875 8 0.25 6.25 0.25 C 4.65625 0.25 3.425781 -0.0859375 2.5625 -0.765625 C 1.695312 -1.453125 1.265625 -2.425781 1.265625 -3.6875 C 1.265625 -5.675781 2.195312 -7.097656 4.0625 -7.953125 C 5.9375 -8.804688 8.304688 -9.429688 11.171875 -9.828125 C 11.171875 -10.859375 11.113281 -11.632812 11 -12.15625 C 10.894531 -12.6875 10.691406 -13.128906 10.390625 -13.484375 C 9.878906 -14.066406 9.222656 -14.359375 8.421875 -14.359375 C 7.535156 -14.359375 6.875 -13.984375 6.4375 -13.234375 C 6.007812 -12.484375 5.75 -11.546875 5.65625 -10.421875 C 4.976562 -10.421875 4.410156 -10.441406 3.953125 -10.484375 C 3.492188 -10.535156 3.078125 -10.632812 2.703125 -10.78125 C 2.753906 -11.382812 2.78125 -11.875 2.78125 -12.25 C 2.78125 -13.238281 2.6875 -14.148438 2.5 -14.984375 C 3.5 -15.429688 4.632812 -15.785156 5.90625 -16.046875 C 7.1875 -16.304688 8.398438 -16.4375 9.546875 -16.4375 C 11.929688 -16.4375 13.664062 -15.894531 14.75 -14.8125 C 15.257812 -14.300781 15.644531 -13.59375 15.90625 -12.6875 C 16.164062 -11.789062 16.296875 -10.554688 16.296875 -8.984375 L 16.296875 -5.96875 C 16.296875 -5.175781 16.34375 -4.582031 16.4375 -4.1875 C 16.53125 -3.800781 16.71875 -3.523438 17 -3.359375 C 17.28125 -3.203125 17.722656 -3.113281 18.328125 -3.09375 Z M 11.171875 -7.9375 C 9.578125 -7.65625 8.378906 -7.28125 7.578125 -6.8125 C 6.785156 -6.34375 6.390625 -5.617188 6.390625 -4.640625 C 6.390625 -4.003906 6.546875 -3.523438 6.859375 -3.203125 C 7.179688 -2.890625 7.578125 -2.734375 8.046875 -2.734375 C 8.554688 -2.734375 9.050781 -2.894531 9.53125 -3.21875 C 10.007812 -3.550781 10.398438 -4.039062 10.703125 -4.6875 C 11.015625 -5.332031 11.171875 -6.109375 11.171875 -7.015625 Z M 11.171875 -7.9375 "/></g></g></g><g fill="#38405f" fill-opacity="1"><g transform="translate(107.663106, 264.29405)"><g><path d="M 17.875 -4 C 18.40625 -3.300781 18.863281 -2.828125 19.25 -2.578125 C 19.644531 -2.335938 20.164062 -2.191406 20.8125 -2.140625 C 20.8125 -1.273438 20.695312 -0.5625 20.46875 0 C 18.007812 0 16.113281 0.101562 14.78125 0.3125 C 14.125 -0.664062 13.226562 -1.882812 12.09375 -3.34375 C 10.957031 -4.8125 9.816406 -6.191406 8.671875 -7.484375 L 8.671875 -5.125 C 8.671875 -4 8.796875 -3.21875 9.046875 -2.78125 C 9.304688 -2.351562 9.78125 -2.117188 10.46875 -2.078125 C 10.625 -1.628906 10.703125 -0.898438 10.703125 0.109375 C 9.648438 0.0351562 8.0625 0 5.9375 0 C 3.59375 0 1.929688 0.0351562 0.953125 0.109375 C 0.953125 -0.828125 1.03125 -1.554688 1.1875 -2.078125 C 2.125 -2.117188 2.75 -2.34375 3.0625 -2.75 C 3.382812 -3.164062 3.546875 -3.957031 3.546875 -5.125 L 3.546875 -19.484375 C 3.546875 -20.347656 3.375 -20.960938 3.03125 -21.328125 C 2.695312 -21.691406 2.003906 -21.894531 0.953125 -21.9375 C 0.953125 -22.832031 1.078125 -23.523438 1.328125 -24.015625 C 2.472656 -24.015625 3.675781 -24.132812 4.9375 -24.375 C 6.207031 -24.625 7.101562 -24.890625 7.625 -25.171875 C 8.320312 -24.890625 8.671875 -24.269531 8.671875 -23.3125 L 8.671875 -9.15625 L 11.09375 -11.3125 C 12.238281 -12.332031 12.8125 -13.03125 12.8125 -13.40625 C 12.8125 -13.59375 12.734375 -13.734375 12.578125 -13.828125 C 12.429688 -13.921875 12.179688 -13.984375 11.828125 -14.015625 C 11.597656 -14.710938 11.484375 -15.425781 11.484375 -16.15625 C 13.023438 -16.101562 14.675781 -16.078125 16.4375 -16.078125 C 17.226562 -16.078125 18.328125 -16.101562 19.734375 -16.15625 C 19.734375 -15.28125 19.613281 -14.566406 19.375 -14.015625 C 18.488281 -13.941406 17.734375 -13.757812 17.109375 -13.46875 C 16.492188 -13.175781 15.765625 -12.640625 14.921875 -11.859375 L 12.75 -9.859375 C 14.289062 -8.390625 16 -6.4375 17.875 -4 Z M 17.875 -4 "/></g></g></g><g fill="#38405f" fill-opacity="1"><g transform="translate(129.072643, 264.29405)"><g><path d="M 9.96875 0.3125 C 7.1875 0.3125 5.023438 -0.414062 3.484375 -1.875 C 1.953125 -3.34375 1.1875 -5.335938 1.1875 -7.859375 C 1.1875 -9.617188 1.570312 -11.140625 2.34375 -12.421875 C 3.125 -13.710938 4.191406 -14.695312 5.546875 -15.375 C 6.898438 -16.050781 8.429688 -16.390625 10.140625 -16.390625 C 12.972656 -16.390625 15.148438 -15.640625 16.671875 -14.140625 C 18.191406 -12.648438 18.953125 -10.664062 18.953125 -8.1875 C 18.953125 -6.476562 18.582031 -4.976562 17.84375 -3.6875 C 17.113281 -2.394531 16.066406 -1.40625 14.703125 -0.71875 C 13.347656 -0.03125 11.769531 0.3125 9.96875 0.3125 Z M 10.46875 -1.9375 C 11.488281 -1.9375 12.28125 -2.4375 12.84375 -3.4375 C 13.40625 -4.445312 13.6875 -5.757812 13.6875 -7.375 C 13.6875 -8.800781 13.503906 -10.035156 13.140625 -11.078125 C 12.785156 -12.117188 12.300781 -12.90625 11.6875 -13.4375 C 11.082031 -13.976562 10.414062 -14.25 9.6875 -14.25 C 8.65625 -14.25 7.863281 -13.757812 7.3125 -12.78125 C 6.769531 -11.800781 6.5 -10.515625 6.5 -8.921875 C 6.5 -6.816406 6.847656 -5.125 7.546875 -3.84375 C 8.253906 -2.570312 9.226562 -1.9375 10.46875 -1.9375 Z M 10.46875 -1.9375 "/></g></g></g><g fill="#38405f" fill-opacity="1"><g transform="translate(149.218661, 264.29405)"><g><path d="M 16.1875 -15.3125 C 15.976562 -13.945312 15.875 -12.566406 15.875 -11.171875 C 15.875 -10.703125 15.882812 -10.359375 15.90625 -10.140625 C 15.226562 -9.890625 14.234375 -9.765625 12.921875 -9.765625 C 12.898438 -10.648438 12.757812 -11.28125 12.5 -11.65625 C 12.238281 -12.03125 11.875 -12.21875 11.40625 -12.21875 C 11.0625 -12.21875 10.6875 -12.007812 10.28125 -11.59375 C 9.882812 -11.1875 9.554688 -10.644531 9.296875 -9.96875 C 9.046875 -9.289062 8.921875 -8.585938 8.921875 -7.859375 L 8.921875 -6.140625 C 8.921875 -5.109375 9.03125 -4.3125 9.25 -3.75 C 9.46875 -3.195312 9.820312 -2.796875 10.3125 -2.546875 C 10.8125 -2.296875 11.515625 -2.140625 12.421875 -2.078125 C 12.585938 -1.609375 12.671875 -0.878906 12.671875 0.109375 C 11.429688 0.0351562 9.609375 0 7.203125 0 C 4.484375 0 2.476562 0.0351562 1.1875 0.109375 C 1.1875 -0.828125 1.257812 -1.554688 1.40625 -2.078125 C 2.0625 -2.117188 2.550781 -2.238281 2.875 -2.4375 C 3.207031 -2.632812 3.441406 -2.972656 3.578125 -3.453125 C 3.722656 -3.929688 3.796875 -4.65625 3.796875 -5.625 L 3.796875 -10.328125 C 3.796875 -11.046875 3.734375 -11.59375 3.609375 -11.96875 C 3.492188 -12.34375 3.257812 -12.625 2.90625 -12.8125 C 2.5625 -13 2.003906 -13.117188 1.234375 -13.171875 C 1.234375 -14.078125 1.375 -14.765625 1.65625 -15.234375 C 2.894531 -15.253906 4.097656 -15.375 5.265625 -15.59375 C 6.429688 -15.820312 7.3125 -16.085938 7.90625 -16.390625 C 8.582031 -16.140625 8.921875 -15.5 8.921875 -14.46875 C 8.921875 -14 8.867188 -13.476562 8.765625 -12.90625 C 8.660156 -12.332031 8.523438 -11.726562 8.359375 -11.09375 C 8.734375 -12.238281 9.023438 -12.976562 9.234375 -13.3125 C 9.773438 -14.175781 10.425781 -14.863281 11.1875 -15.375 C 11.945312 -15.894531 12.769531 -16.15625 13.65625 -16.15625 C 14.613281 -16.15625 15.457031 -15.875 16.1875 -15.3125 Z M 16.1875 -15.3125 "/></g></g></g><g fill="#38405f" fill-opacity="1"><g transform="translate(165.99531, 264.29405)"><g><path d="M 20.609375 -2.5625 C 20.609375 -1.90625 20.492188 -1.332031 20.265625 -0.84375 C 19.367188 -0.789062 18.453125 -0.664062 17.515625 -0.46875 C 16.578125 -0.269531 15.722656 -0.0078125 14.953125 0.3125 C 14.554688 0.144531 14.269531 -0.0820312 14.09375 -0.375 C 13.914062 -0.664062 13.828125 -1.101562 13.828125 -1.6875 C 13.828125 -2.195312 13.898438 -2.742188 14.046875 -3.328125 C 13.671875 -2.628906 13.238281 -2.054688 12.75 -1.609375 C 12.320312 -1.117188 11.6875 -0.675781 10.84375 -0.28125 C 10 0.113281 9.085938 0.3125 8.109375 0.3125 C 5.984375 0.3125 4.296875 -0.300781 3.046875 -1.53125 C 1.804688 -2.757812 1.1875 -4.613281 1.1875 -7.09375 C 1.1875 -8.875 1.585938 -10.472656 2.390625 -11.890625 C 3.203125 -13.304688 4.335938 -14.410156 5.796875 -15.203125 C 7.265625 -15.992188 8.945312 -16.390625 10.84375 -16.390625 C 11.738281 -16.390625 12.582031 -16.273438 13.375 -16.046875 L 13.375 -19.484375 C 13.375 -20.347656 13.207031 -20.960938 12.875 -21.328125 C 12.550781 -21.691406 11.851562 -21.894531 10.78125 -21.9375 C 10.78125 -22.832031 10.910156 -23.523438 11.171875 -24.015625 C 12.335938 -24.015625 13.546875 -24.128906 14.796875 -24.359375 C 16.046875 -24.597656 16.941406 -24.867188 17.484375 -25.171875 C 18.160156 -24.890625 18.5 -24.269531 18.5 -23.3125 L 18.5 -5.9375 C 18.5 -5.132812 18.546875 -4.539062 18.640625 -4.15625 C 18.734375 -3.769531 18.925781 -3.5 19.21875 -3.34375 C 19.507812 -3.195312 19.960938 -3.113281 20.578125 -3.09375 Z M 9.765625 -2.5625 C 10.765625 -2.5625 11.613281 -3.046875 12.3125 -4.015625 C 13.019531 -4.992188 13.375 -6.488281 13.375 -8.5 L 13.375 -13.09375 C 13 -13.488281 12.609375 -13.785156 12.203125 -13.984375 C 11.796875 -14.191406 11.320312 -14.296875 10.78125 -14.296875 C 9.65625 -14.296875 8.660156 -13.820312 7.796875 -12.875 C 6.929688 -11.925781 6.5 -10.253906 6.5 -7.859375 C 6.5 -6.242188 6.796875 -4.957031 7.390625 -4 C 7.984375 -3.039062 8.773438 -2.5625 9.765625 -2.5625 Z M 9.765625 -2.5625 "/></g></g></g><g fill="#38405f" fill-opacity="1"><g transform="translate(187.475044, 264.29405)"><g><path d="M 15.734375 -4 C 15.960938 -3.863281 16.164062 -3.617188 16.34375 -3.265625 C 16.519531 -2.910156 16.617188 -2.546875 16.640625 -2.171875 C 15.753906 -1.328125 14.75 -0.703125 13.625 -0.296875 C 12.5 0.109375 11.195312 0.3125 9.71875 0.3125 C 6.863281 0.3125 4.726562 -0.445312 3.3125 -1.96875 C 1.894531 -3.488281 1.1875 -5.476562 1.1875 -7.9375 C 1.1875 -9.59375 1.523438 -11.054688 2.203125 -12.328125 C 2.890625 -13.609375 3.851562 -14.601562 5.09375 -15.3125 C 6.332031 -16.03125 7.769531 -16.390625 9.40625 -16.390625 C 11.820312 -16.390625 13.628906 -15.71875 14.828125 -14.375 C 16.035156 -13.03125 16.6875 -11.195312 16.78125 -8.875 C 16.644531 -8.195312 16.351562 -7.640625 15.90625 -7.203125 C 11.875 -7.203125 8.75 -7.140625 6.53125 -7.015625 C 6.738281 -5.566406 7.226562 -4.425781 8 -3.59375 C 8.769531 -2.769531 9.875 -2.359375 11.3125 -2.359375 C 12.125 -2.359375 12.925781 -2.503906 13.71875 -2.796875 C 14.519531 -3.085938 15.191406 -3.488281 15.734375 -4 Z M 9.296875 -14.21875 C 8.460938 -14.21875 7.78125 -13.800781 7.25 -12.96875 C 6.71875 -12.132812 6.429688 -10.898438 6.390625 -9.265625 L 11.96875 -9.265625 C 11.96875 -10.835938 11.738281 -12.054688 11.28125 -12.921875 C 10.832031 -13.785156 10.171875 -14.21875 9.296875 -14.21875 Z M 9.296875 -14.21875 "/></g></g></g><g fill="#38405f" fill-opacity="1"><g transform="translate(205.480113, 264.29405)"><g><path d="M 13.0625 -16.390625 C 15.1875 -16.390625 16.867188 -15.773438 18.109375 -14.546875 C 19.359375 -13.316406 19.984375 -11.460938 19.984375 -8.984375 C 19.984375 -7.179688 19.582031 -5.578125 18.78125 -4.171875 C 17.988281 -2.773438 16.859375 -1.675781 15.390625 -0.875 C 13.929688 -0.0820312 12.253906 0.3125 10.359375 0.3125 C 8.554688 0.3125 6.875 0.0859375 5.3125 -0.359375 C 3.757812 -0.816406 2.609375 -1.421875 1.859375 -2.171875 C 2.140625 -2.503906 2.34375 -2.96875 2.46875 -3.5625 C 2.601562 -4.15625 2.671875 -4.976562 2.671875 -6.03125 L 2.671875 -19.484375 C 2.671875 -20.347656 2.5 -20.960938 2.15625 -21.328125 C 1.820312 -21.691406 1.125 -21.894531 0.0625 -21.9375 C 0.0625 -22.832031 0.191406 -23.523438 0.453125 -24.015625 C 1.597656 -24.015625 2.800781 -24.132812 4.0625 -24.375 C 5.332031 -24.625 6.222656 -24.890625 6.734375 -25.171875 C 7.441406 -24.890625 7.796875 -24.269531 7.796875 -23.3125 L 7.796875 -15.875 C 7.796875 -14.976562 7.722656 -14.179688 7.578125 -13.484375 C 7.835938 -13.878906 8.117188 -14.207031 8.421875 -14.46875 C 8.890625 -14.957031 9.535156 -15.398438 10.359375 -15.796875 C 11.179688 -16.191406 12.082031 -16.390625 13.0625 -16.390625 Z M 10.390625 -1.796875 C 11.535156 -1.796875 12.539062 -2.269531 13.40625 -3.21875 C 14.269531 -4.164062 14.703125 -5.832031 14.703125 -8.21875 C 14.703125 -9.8125 14.398438 -11.09375 13.796875 -12.0625 C 13.191406 -13.03125 12.394531 -13.515625 11.40625 -13.515625 C 10.40625 -13.515625 9.550781 -13.03125 8.84375 -12.0625 C 8.144531 -11.09375 7.796875 -9.585938 7.796875 -7.546875 L 7.796875 -2.984375 C 8.171875 -2.585938 8.5625 -2.289062 8.96875 -2.09375 C 9.375 -1.894531 9.847656 -1.796875 10.390625 -1.796875 Z M 10.390625 -1.796875 "/></g></g></g><g fill="#38405f" fill-opacity="1"><g transform="translate(226.643968, 264.29405)"><g><path d="M 5.9375 -19.09375 C 5.070312 -19.09375 4.367188 -19.320312 3.828125 -19.78125 C 3.285156 -20.238281 3.015625 -20.84375 3.015625 -21.59375 C 3.015625 -22.414062 3.300781 -23.066406 3.875 -23.546875 C 4.445312 -24.023438 5.179688 -24.265625 6.078125 -24.265625 C 7.035156 -24.265625 7.773438 -24.03125 8.296875 -23.5625 C 8.828125 -23.09375 9.09375 -22.445312 9.09375 -21.625 C 9.09375 -20.894531 8.804688 -20.289062 8.234375 -19.8125 C 7.660156 -19.332031 6.894531 -19.09375 5.9375 -19.09375 Z M 1.1875 0.109375 C 1.1875 -0.828125 1.269531 -1.554688 1.4375 -2.078125 C 2.375 -2.117188 3 -2.34375 3.3125 -2.75 C 3.632812 -3.164062 3.796875 -3.957031 3.796875 -5.125 L 3.796875 -10.703125 C 3.796875 -11.566406 3.625 -12.179688 3.28125 -12.546875 C 2.945312 -12.910156 2.25 -13.117188 1.1875 -13.171875 C 1.1875 -14.054688 1.316406 -14.742188 1.578125 -15.234375 C 2.722656 -15.234375 3.925781 -15.351562 5.1875 -15.59375 C 6.457031 -15.84375 7.363281 -16.109375 7.90625 -16.390625 C 8.582031 -16.109375 8.921875 -15.488281 8.921875 -14.53125 L 8.921875 -5.125 C 8.921875 -3.957031 9.070312 -3.164062 9.375 -2.75 C 9.675781 -2.34375 10.257812 -2.117188 11.125 -2.078125 C 11.269531 -1.628906 11.34375 -0.898438 11.34375 0.109375 C 10.332031 0.0351562 8.644531 0 6.28125 0 C 3.875 0 2.175781 0.0351562 1.1875 0.109375 Z M 1.1875 0.109375 "/></g></g></g><g fill="#38405f" fill-opacity="1"><g transform="translate(239.138718, 264.29405)"><g><path d="M 5.09375 0.3125 C 4.101562 0.3125 3.320312 0.0390625 2.75 -0.5 C 2.175781 -1.050781 1.890625 -1.796875 1.890625 -2.734375 C 1.890625 -3.648438 2.207031 -4.394531 2.84375 -4.96875 C 3.476562 -5.539062 4.285156 -5.828125 5.265625 -5.828125 C 6.128906 -5.828125 6.847656 -5.535156 7.421875 -4.953125 C 7.992188 -4.367188 8.28125 -3.703125 8.28125 -2.953125 C 8.28125 -1.992188 7.988281 -1.207031 7.40625 -0.59375 C 6.820312 0.0078125 6.050781 0.3125 5.09375 0.3125 Z M 5.09375 0.3125 "/></g></g></g><g fill="#38405f" fill-opacity="1"><g transform="translate(249.211727, 264.29405)"><g><path d="M 11.453125 -2.8125 C 13.671875 -2.789062 15.328125 -2.476562 16.421875 -1.875 C 17.523438 -1.28125 18.078125 -0.175781 18.078125 1.4375 C 18.078125 2.75 17.648438 3.96875 16.796875 5.09375 C 15.941406 6.21875 14.726562 7.109375 13.15625 7.765625 C 11.59375 8.421875 9.804688 8.75 7.796875 8.75 C 5.359375 8.75 3.617188 8.363281 2.578125 7.59375 C 1.535156 6.832031 1.015625 5.773438 1.015625 4.421875 C 1.015625 3.628906 1.226562 2.921875 1.65625 2.296875 C 2.09375 1.679688 2.734375 1.195312 3.578125 0.84375 C 2.578125 0.257812 2.078125 -0.6875 2.078125 -2 C 2.078125 -3.476562 2.765625 -4.800781 4.140625 -5.96875 C 2.410156 -6.976562 1.546875 -8.523438 1.546875 -10.609375 C 1.546875 -12.410156 2.171875 -13.820312 3.421875 -14.84375 C 4.671875 -15.875 6.429688 -16.390625 8.703125 -16.390625 C 9.710938 -16.390625 10.640625 -16.285156 11.484375 -16.078125 L 18.078125 -16.078125 C 18.316406 -15.492188 18.4375 -14.582031 18.4375 -13.34375 C 17.425781 -13.695312 16.320312 -13.929688 15.125 -14.046875 C 15.625 -13.503906 16 -12.914062 16.25 -12.28125 C 16.507812 -11.65625 16.640625 -11.050781 16.640625 -10.46875 C 16.640625 -8.820312 15.984375 -7.484375 14.671875 -6.453125 C 13.359375 -5.429688 11.460938 -4.921875 8.984375 -4.921875 C 8.117188 -4.921875 7.300781 -4.988281 6.53125 -5.125 C 6.101562 -4.75 5.890625 -4.398438 5.890625 -4.078125 C 5.890625 -3.671875 6.082031 -3.378906 6.46875 -3.203125 C 6.863281 -3.035156 7.394531 -2.929688 8.0625 -2.890625 C 8.726562 -2.859375 9.859375 -2.832031 11.453125 -2.8125 Z M 8.875 -14.5 C 8.132812 -14.5 7.566406 -14.1875 7.171875 -13.5625 C 6.785156 -12.945312 6.59375 -12.125 6.59375 -11.09375 C 6.59375 -9.757812 6.835938 -8.738281 7.328125 -8.03125 C 7.828125 -7.332031 8.53125 -6.984375 9.4375 -6.984375 C 10.144531 -6.984375 10.691406 -7.273438 11.078125 -7.859375 C 11.460938 -8.453125 11.65625 -9.296875 11.65625 -10.390625 C 11.65625 -11.648438 11.410156 -12.648438 10.921875 -13.390625 C 10.429688 -14.128906 9.75 -14.5 8.875 -14.5 Z M 8.875 6.390625 C 10.332031 6.390625 11.488281 6.113281 12.34375 5.5625 C 13.195312 5.007812 13.625 4.3125 13.625 3.46875 C 13.625 3.050781 13.503906 2.722656 13.265625 2.484375 C 13.035156 2.253906 12.617188 2.09375 12.015625 2 C 11.421875 1.90625 10.539062 1.859375 9.375 1.859375 C 7.738281 1.816406 6.578125 1.734375 5.890625 1.609375 C 5.640625 1.921875 5.460938 2.21875 5.359375 2.5 C 5.253906 2.78125 5.203125 3.101562 5.203125 3.46875 C 5.203125 4.476562 5.476562 5.21875 6.03125 5.6875 C 6.59375 6.15625 7.539062 6.390625 8.875 6.390625 Z M 8.875 6.390625 "/></g></g></g><g fill="#38405f" fill-opacity="1"><g transform="translate(268.5856, 264.29405)"><g><path d="M 15.734375 -4 C 15.960938 -3.863281 16.164062 -3.617188 16.34375 -3.265625 C 16.519531 -2.910156 16.617188 -2.546875 16.640625 -2.171875 C 15.753906 -1.328125 14.75 -0.703125 13.625 -0.296875 C 12.5 0.109375 11.195312 0.3125 9.71875 0.3125 C 6.863281 0.3125 4.726562 -0.445312 3.3125 -1.96875 C 1.894531 -3.488281 1.1875 -5.476562 1.1875 -7.9375 C 1.1875 -9.59375 1.523438 -11.054688 2.203125 -12.328125 C 2.890625 -13.609375 3.851562 -14.601562 5.09375 -15.3125 C 6.332031 -16.03125 7.769531 -16.390625 9.40625 -16.390625 C 11.820312 -16.390625 13.628906 -15.71875 14.828125 -14.375 C 16.035156 -13.03125 16.6875 -11.195312 16.78125 -8.875 C 16.644531 -8.195312 16.351562 -7.640625 15.90625 -7.203125 C 11.875 -7.203125 8.75 -7.140625 6.53125 -7.015625 C 6.738281 -5.566406 7.226562 -4.425781 8 -3.59375 C 8.769531 -2.769531 9.875 -2.359375 11.3125 -2.359375 C 12.125 -2.359375 12.925781 -2.503906 13.71875 -2.796875 C 14.519531 -3.085938 15.191406 -3.488281 15.734375 -4 Z M 9.296875 -14.21875 C 8.460938 -14.21875 7.78125 -13.800781 7.25 -12.96875 C 6.71875 -12.132812 6.429688 -10.898438 6.390625 -9.265625 L 11.96875 -9.265625 C 11.96875 -10.835938 11.738281 -12.054688 11.28125 -12.921875 C 10.832031 -13.785156 10.171875 -14.21875 9.296875 -14.21875 Z M 9.296875 -14.21875 "/></g></g></g></svg>