<svg xmlns="http://www.w3.org/2000/svg" xmlns:xlink="http://www.w3.org/1999/xlink" width="500" zoomAndPan="magnify" viewBox="0 0 375 374.999991" height="500" preserveAspectRatio="xMidYMid meet" version="1.0"><defs><g/><clipPath id="c25444c27d"><path d="M 63.507812 41 L 311.757812 41 L 311.757812 244 L 63.507812 244 Z M 63.507812 41 " clip-rule="nonzero"/></clipPath></defs><rect x="-37.5" width="450" fill="#ffffff" y="-37.499999" height="449.999989" fill-opacity="1"/><rect x="-37.5" width="450" fill="#ffffff" y="-37.499999" height="449.999989" fill-opacity="1"/><g clip-path="url(#c25444c27d)"><path fill="#004aad" d="M 173.210938 65.664062 C 173.210938 64.125 174.464844 62.871094 176.003906 62.871094 C 177.539062 62.871094 178.792969 64.125 178.792969 65.664062 C 178.792969 67.203125 177.539062 68.445312 176.003906 68.445312 C 174.464844 68.445312 173.210938 67.203125 173.210938 65.664062 M 173.824219 86.902344 C 173.824219 85.363281 175.082031 84.109375 176.613281 84.109375 C 178.152344 84.109375 179.410156 85.363281 179.410156 86.902344 C 179.410156 88.4375 178.152344 89.691406 176.613281 89.691406 C 175.082031 89.691406 173.824219 88.4375 173.824219 86.902344 Z M 174.480469 108.136719 C 174.480469 106.609375 175.734375 105.355469 177.269531 105.355469 C 178.808594 105.355469 180.0625 106.609375 180.0625 108.136719 C 180.0625 109.675781 178.808594 110.929688 177.269531 110.929688 C 175.734375 110.929688 174.480469 109.675781 174.480469 108.136719 Z M 202.046875 65.664062 C 202.046875 64.125 200.796875 62.871094 199.261719 62.871094 C 197.71875 62.871094 196.457031 64.125 196.457031 65.664062 C 196.457031 67.203125 197.71875 68.445312 199.261719 68.445312 C 200.796875 68.445312 202.046875 67.203125 202.046875 65.664062 Z M 201.4375 86.902344 C 201.4375 85.363281 200.183594 84.109375 198.644531 84.109375 C 197.105469 84.109375 195.851562 85.363281 195.851562 86.902344 C 195.851562 88.4375 197.105469 89.691406 198.644531 89.691406 C 200.183594 89.691406 201.4375 88.4375 201.4375 86.902344 Z M 200.785156 108.136719 C 200.785156 106.609375 199.519531 105.355469 197.980469 105.355469 C 196.453125 105.355469 195.195312 106.609375 195.195312 108.136719 C 195.195312 109.675781 196.453125 110.929688 197.980469 110.929688 C 199.519531 110.929688 200.785156 109.675781 200.785156 108.136719 Z M 198.460938 155.054688 L 198.097656 135.472656 L 177.160156 135.472656 L 176.804688 155.054688 Z M 150.183594 220.066406 C 134.628906 214.476562 82.71875 240.125 63.59375 221.035156 C 77.488281 245.355469 133.132812 216.691406 150.183594 220.066406 Z M 225.089844 220.066406 C 240.640625 214.476562 292.542969 240.125 311.671875 221.042969 C 297.777344 245.355469 242.132812 216.691406 225.089844 220.066406 Z M 198.84375 176.429688 L 198.683594 167.449219 C 202.398438 158.246094 209.800781 154.433594 218.265625 154.25 C 241.15625 153.734375 254.527344 171.550781 277.425781 166.84375 C 281.058594 189.058594 296.699219 209.339844 307.761719 217.636719 C 293.589844 200.457031 275.371094 172.984375 281.988281 161.390625 C 255.980469 172.09375 244.570312 148.621094 218.605469 148.8125 C 210.886719 148.875 202.382812 151.488281 198.429688 157.1875 L 176.855469 157.1875 C 172.894531 151.480469 164.382812 148.867188 156.667969 148.8125 C 130.695312 148.621094 119.292969 172.09375 93.277344 161.390625 C 99.898438 172.996094 81.679688 200.460938 67.488281 217.636719 C 78.570312 209.332031 94.207031 189.054688 97.84375 166.84375 C 120.738281 171.546875 134.101562 153.734375 157 154.25 C 165.457031 154.441406 172.855469 158.238281 176.578125 167.398438 L 176.414062 176.433594 L 198.84375 176.433594 Z M 199.230469 197.804688 L 198.882812 178.5625 L 176.378906 178.5625 L 176.023438 197.804688 Z M 199.621094 219.183594 L 199.277344 199.9375 L 175.988281 199.9375 L 175.640625 219.183594 Z M 198.859375 238.433594 C 219.804688 210.445312 291.90625 265.730469 311.488281 233.28125 C 287.296875 259.054688 229.699219 209.507812 199.859375 229.355469 L 199.660156 221.3125 L 175.601562 221.3125 L 175.398438 229.324219 C 146.109375 209.585938 87.871094 259.179688 63.777344 233.285156 C 83.386719 265.785156 156.34375 210.277344 177.1875 238.566406 C 180.335938 242.839844 195.707031 242.664062 198.859375 238.433594 Z M 213.632812 102.09375 C 211.863281 101.472656 210.753906 101.539062 210.0625 102.054688 C 209.246094 102.695312 208.785156 104.492188 208.648438 106.523438 L 205.121094 106.523438 L 205.875 88.515625 L 209.386719 88.515625 C 209.554688 90.460938 210 92.175781 210.707031 92.828125 C 211.402344 93.480469 212.601562 93.675781 214.585938 92.851562 C 219.609375 90.761719 219.601562 82.710938 214.339844 80.847656 C 212.570312 80.226562 211.460938 80.296875 210.769531 80.824219 C 209.953125 81.449219 209.492188 83.246094 209.355469 85.285156 L 206.015625 85.285156 L 206.769531 67.277344 L 210.09375 67.277344 C 210.261719 69.222656 210.707031 70.9375 211.410156 71.585938 C 212.109375 72.246094 213.308594 72.429688 215.292969 71.605469 C 220.320312 69.523438 220.308594 61.464844 215.050781 59.613281 C 213.277344 58.988281 212.171875 59.058594 211.484375 59.582031 C 210.667969 60.210938 210.199219 62.011719 210.0625 64.046875 L 206.898438 64.046875 L 207.652344 46.117188 C 204.945312 45.972656 203.074219 45.132812 201.105469 44.210938 C 193.484375 40.644531 183.019531 40.058594 175.277344 43.648438 C 172.855469 44.773438 170.855469 45.941406 167.609375 46.117188 L 168.359375 64.046875 L 165.203125 64.046875 C 165.058594 62.011719 164.59375 60.210938 163.773438 59.582031 C 163.09375 59.058594 161.976562 58.988281 160.207031 59.613281 C 154.945312 61.464844 154.941406 69.523438 159.964844 71.605469 C 161.945312 72.429688 163.148438 72.246094 163.851562 71.585938 C 164.546875 70.9375 164.996094 69.222656 165.171875 67.277344 L 168.492188 67.277344 L 169.25 85.285156 L 165.910156 85.285156 C 165.765625 83.246094 165.300781 81.449219 164.480469 80.824219 C 163.800781 80.296875 162.683594 80.226562 160.914062 80.847656 C 155.65625 82.710938 155.644531 90.757812 160.671875 92.851562 C 162.65625 93.675781 163.855469 93.480469 164.558594 92.828125 C 165.253906 92.175781 165.707031 90.460938 165.878906 88.515625 L 169.378906 88.515625 L 170.136719 106.523438 L 166.617188 106.523438 C 166.476562 104.492188 166.007812 102.695312 165.191406 102.054688 C 164.507812 101.539062 163.398438 101.472656 161.625 102.09375 C 156.359375 103.945312 156.355469 112.003906 161.386719 114.089844 C 163.367188 114.910156 164.5625 114.71875 165.265625 114.066406 C 165.960938 113.414062 166.414062 111.699219 166.585938 109.761719 L 170.273438 109.761719 L 170.585938 117.3125 C 175.652344 123.078125 175.730469 126.984375 175.726562 132.652344 L 199.535156 132.652344 C 199.519531 126.984375 199.605469 123.078125 204.667969 117.3125 L 204.984375 109.761719 L 208.675781 109.761719 C 208.847656 111.699219 209.292969 113.414062 209.992188 114.066406 C 210.691406 114.71875 211.890625 114.914062 213.878906 114.089844 C 218.894531 112.003906 218.894531 103.945312 213.632812 102.09375 Z M 213.632812 102.09375 " fill-opacity="1" fill-rule="evenodd"/></g><path fill="#004aad" d="M 147.023438 119.832031 L 150.730469 126.761719 L 158.464844 125.375 C 159.03125 125.277344 159.429688 126.027344 159.035156 126.445312 L 153.59375 132.105469 L 157.296875 139.03125 C 157.566406 139.53125 156.976562 140.148438 156.460938 139.902344 L 149.390625 136.472656 L 143.941406 142.136719 C 143.546875 142.546875 142.78125 142.175781 142.859375 141.609375 L 143.933594 133.835938 L 136.859375 130.40625 C 136.34375 130.152344 136.460938 129.3125 137.027344 129.214844 L 144.761719 127.828125 L 145.835938 120.046875 C 145.914062 119.476562 146.753906 119.332031 147.023438 119.832031 " fill-opacity="1" fill-rule="evenodd"/><path fill="#004aad" d="M 228.238281 119.832031 L 224.535156 126.761719 L 216.804688 125.375 C 216.234375 125.277344 215.832031 126.027344 216.234375 126.445312 L 221.679688 132.105469 L 217.972656 139.03125 C 217.695312 139.53125 218.296875 140.148438 218.804688 139.902344 L 225.882812 136.472656 L 231.332031 142.136719 C 231.714844 142.546875 232.484375 142.175781 232.40625 141.609375 L 231.332031 133.835938 L 238.410156 130.40625 C 238.925781 130.152344 238.808594 129.3125 238.238281 129.214844 L 230.507812 127.828125 L 229.429688 120.046875 C 229.351562 119.476562 228.511719 119.332031 228.238281 119.832031 " fill-opacity="1" fill-rule="evenodd"/><g fill="#38405f" fill-opacity="1"><g transform="translate(23.655784, 314.726851)"><g><path d="M 30.296875 -5.109375 C 30.335938 -4.878906 30.359375 -4.507812 30.359375 -4 C 30.359375 -3.070312 30.1875 -2.203125 29.84375 -1.390625 C 26.664062 -1.273438 23.78125 -0.640625 21.1875 0.515625 C 20.53125 0.242188 20.054688 -0.148438 19.765625 -0.671875 C 19.472656 -1.191406 19.328125 -1.914062 19.328125 -2.84375 C 19.328125 -3.226562 19.40625 -3.960938 19.5625 -5.046875 C 18.945312 -3.617188 18.132812 -2.5 17.125 -1.6875 C 15.5 -0.289062 13.234375 0.40625 10.328125 0.40625 C 7.703125 0.40625 5.671875 -0.148438 4.234375 -1.265625 C 2.804688 -2.390625 2.09375 -4 2.09375 -6.09375 C 2.09375 -9.382812 3.640625 -11.734375 6.734375 -13.140625 C 9.828125 -14.554688 13.734375 -15.59375 18.453125 -16.25 C 18.453125 -17.957031 18.363281 -19.242188 18.1875 -20.109375 C 18.019531 -20.984375 17.6875 -21.710938 17.1875 -22.296875 C 16.332031 -23.253906 15.25 -23.734375 13.9375 -23.734375 C 12.457031 -23.734375 11.359375 -23.113281 10.640625 -21.875 C 9.929688 -20.644531 9.5 -19.097656 9.34375 -17.234375 C 8.21875 -17.234375 7.273438 -17.269531 6.515625 -17.34375 C 5.765625 -17.425781 5.082031 -17.585938 4.46875 -17.828125 C 4.539062 -18.828125 4.578125 -19.640625 4.578125 -20.265625 C 4.578125 -21.890625 4.425781 -23.394531 4.125 -24.78125 C 5.789062 -25.519531 7.675781 -26.101562 9.78125 -26.53125 C 11.882812 -26.957031 13.882812 -27.171875 15.78125 -27.171875 C 19.726562 -27.171875 22.59375 -26.28125 24.375 -24.5 C 25.226562 -23.644531 25.867188 -22.472656 26.296875 -20.984375 C 26.722656 -19.492188 26.9375 -17.453125 26.9375 -14.859375 L 26.9375 -9.875 C 26.9375 -8.550781 27.007812 -7.570312 27.15625 -6.9375 C 27.3125 -6.300781 27.625 -5.847656 28.09375 -5.578125 C 28.5625 -5.304688 29.296875 -5.148438 30.296875 -5.109375 Z M 18.453125 -13.125 C 15.828125 -12.65625 13.851562 -12.03125 12.53125 -11.25 C 11.21875 -10.476562 10.5625 -9.28125 10.5625 -7.65625 C 10.5625 -6.613281 10.820312 -5.832031 11.34375 -5.3125 C 11.863281 -4.789062 12.515625 -4.53125 13.296875 -4.53125 C 14.140625 -4.53125 14.957031 -4.800781 15.75 -5.34375 C 16.550781 -5.882812 17.203125 -6.6875 17.703125 -7.75 C 18.203125 -8.8125 18.453125 -10.097656 18.453125 -11.609375 Z M 18.453125 -13.125 "/></g></g></g><g fill="#38405f" fill-opacity="1"><g transform="translate(55.51119, 314.726851)"><g><path d="M 29.546875 -6.625 C 30.429688 -5.457031 31.191406 -4.671875 31.828125 -4.265625 C 32.472656 -3.859375 33.335938 -3.617188 34.421875 -3.546875 C 34.421875 -2.109375 34.226562 -0.925781 33.84375 0 C 29.78125 0 26.644531 0.171875 24.4375 0.515625 C 23.351562 -1.109375 21.875 -3.128906 20 -5.546875 C 18.125 -7.960938 16.238281 -10.234375 14.34375 -12.359375 L 14.34375 -8.46875 C 14.34375 -6.613281 14.550781 -5.328125 14.96875 -4.609375 C 15.394531 -3.898438 16.171875 -3.503906 17.296875 -3.421875 C 17.566406 -2.691406 17.703125 -1.492188 17.703125 0.171875 C 15.960938 0.0546875 13.332031 0 9.8125 0 C 5.9375 0 3.1875 0.0546875 1.5625 0.171875 C 1.5625 -1.367188 1.695312 -2.566406 1.96875 -3.421875 C 3.519531 -3.503906 4.554688 -3.882812 5.078125 -4.5625 C 5.597656 -5.238281 5.859375 -6.539062 5.859375 -8.46875 L 5.859375 -32.21875 C 5.859375 -33.644531 5.578125 -34.65625 5.015625 -35.25 C 4.453125 -35.851562 3.300781 -36.195312 1.5625 -36.28125 C 1.5625 -37.75 1.773438 -38.890625 2.203125 -39.703125 C 4.097656 -39.703125 6.085938 -39.90625 8.171875 -40.3125 C 10.265625 -40.71875 11.738281 -41.15625 12.59375 -41.625 C 13.757812 -41.15625 14.34375 -40.128906 14.34375 -38.546875 L 14.34375 -15.15625 L 18.34375 -18.6875 C 20.238281 -20.394531 21.1875 -21.554688 21.1875 -22.171875 C 21.1875 -22.484375 21.0625 -22.71875 20.8125 -22.875 C 20.5625 -23.03125 20.144531 -23.125 19.5625 -23.15625 C 19.175781 -24.320312 18.984375 -25.503906 18.984375 -26.703125 C 21.535156 -26.617188 24.265625 -26.578125 27.171875 -26.578125 C 28.484375 -26.578125 30.300781 -26.617188 32.625 -26.703125 C 32.625 -25.265625 32.429688 -24.082031 32.046875 -23.15625 C 30.578125 -23.039062 29.328125 -22.738281 28.296875 -22.25 C 27.273438 -21.769531 26.066406 -20.894531 24.671875 -19.625 L 21.078125 -16.3125 C 23.628906 -13.875 26.453125 -10.644531 29.546875 -6.625 Z M 29.546875 -6.625 "/></g></g></g><g fill="#38405f" fill-opacity="1"><g transform="translate(90.906097, 314.726851)"><g><path d="M 16.484375 0.515625 C 11.878906 0.515625 8.304688 -0.691406 5.765625 -3.109375 C 3.234375 -5.523438 1.96875 -8.820312 1.96875 -13 C 1.96875 -15.90625 2.601562 -18.421875 3.875 -20.546875 C 5.15625 -22.671875 6.914062 -24.296875 9.15625 -25.421875 C 11.40625 -26.546875 13.945312 -27.109375 16.78125 -27.109375 C 21.457031 -27.109375 25.050781 -25.867188 27.5625 -23.390625 C 30.082031 -20.910156 31.34375 -17.625 31.34375 -13.53125 C 31.34375 -10.695312 30.734375 -8.21875 29.515625 -6.09375 C 28.296875 -3.96875 26.5625 -2.332031 24.3125 -1.1875 C 22.070312 -0.0507812 19.460938 0.515625 16.484375 0.515625 Z M 17.296875 -3.1875 C 19.003906 -3.1875 20.320312 -4.019531 21.25 -5.6875 C 22.175781 -7.351562 22.640625 -9.519531 22.640625 -12.1875 C 22.640625 -14.550781 22.335938 -16.59375 21.734375 -18.3125 C 21.140625 -20.03125 20.335938 -21.332031 19.328125 -22.21875 C 18.328125 -23.113281 17.222656 -23.5625 16.015625 -23.5625 C 14.316406 -23.5625 13.007812 -22.75 12.09375 -21.125 C 11.1875 -19.5 10.734375 -17.375 10.734375 -14.75 C 10.734375 -11.257812 11.3125 -8.457031 12.46875 -6.34375 C 13.632812 -4.238281 15.242188 -3.1875 17.296875 -3.1875 Z M 17.296875 -3.1875 "/></g></g></g><g fill="#38405f" fill-opacity="1"><g transform="translate(124.212116, 314.726851)"><g><path d="M 26.765625 -25.3125 C 26.410156 -23.0625 26.234375 -20.773438 26.234375 -18.453125 C 26.234375 -17.679688 26.253906 -17.125 26.296875 -16.78125 C 25.171875 -16.351562 23.523438 -16.140625 21.359375 -16.140625 C 21.316406 -17.609375 21.082031 -18.648438 20.65625 -19.265625 C 20.238281 -19.890625 19.640625 -20.203125 18.859375 -20.203125 C 18.285156 -20.203125 17.664062 -19.863281 17 -19.1875 C 16.34375 -18.507812 15.800781 -17.609375 15.375 -16.484375 C 14.957031 -15.359375 14.75 -14.195312 14.75 -13 L 14.75 -10.15625 C 14.75 -8.457031 14.929688 -7.140625 15.296875 -6.203125 C 15.660156 -5.273438 16.25 -4.609375 17.0625 -4.203125 C 17.875 -3.796875 19.035156 -3.535156 20.546875 -3.421875 C 20.816406 -2.648438 20.953125 -1.453125 20.953125 0.171875 C 18.898438 0.0546875 15.882812 0 11.90625 0 C 7.414062 0 4.101562 0.0546875 1.96875 0.171875 C 1.96875 -1.367188 2.085938 -2.566406 2.328125 -3.421875 C 3.410156 -3.503906 4.222656 -3.707031 4.765625 -4.03125 C 5.304688 -4.363281 5.691406 -4.925781 5.921875 -5.71875 C 6.148438 -6.507812 6.265625 -7.695312 6.265625 -9.28125 L 6.265625 -17.0625 C 6.265625 -18.257812 6.164062 -19.164062 5.96875 -19.78125 C 5.78125 -20.40625 5.394531 -20.875 4.8125 -21.1875 C 4.238281 -21.5 3.3125 -21.691406 2.03125 -21.765625 C 2.03125 -23.273438 2.265625 -24.414062 2.734375 -25.1875 C 4.773438 -25.226562 6.765625 -25.429688 8.703125 -25.796875 C 10.640625 -26.171875 12.09375 -26.609375 13.0625 -27.109375 C 14.1875 -26.679688 14.75 -25.617188 14.75 -23.921875 C 14.75 -23.140625 14.660156 -22.273438 14.484375 -21.328125 C 14.304688 -20.378906 14.082031 -19.382812 13.8125 -18.34375 C 14.4375 -20.238281 14.921875 -21.457031 15.265625 -22 C 16.148438 -23.425781 17.222656 -24.566406 18.484375 -25.421875 C 19.742188 -26.273438 21.109375 -26.703125 22.578125 -26.703125 C 24.160156 -26.703125 25.554688 -26.238281 26.765625 -25.3125 Z M 26.765625 -25.3125 "/></g></g></g><g fill="#38405f" fill-opacity="1"><g transform="translate(151.947789, 314.726851)"><g><path d="M 34.078125 -4.234375 C 34.078125 -3.148438 33.882812 -2.203125 33.5 -1.390625 C 32.019531 -1.316406 30.503906 -1.113281 28.953125 -0.78125 C 27.410156 -0.457031 26.003906 -0.0234375 24.734375 0.515625 C 24.066406 0.242188 23.585938 -0.128906 23.296875 -0.609375 C 23.015625 -1.085938 22.875 -1.8125 22.875 -2.78125 C 22.875 -3.632812 22.988281 -4.546875 23.21875 -5.515625 C 22.601562 -4.347656 21.890625 -3.398438 21.078125 -2.671875 C 20.378906 -1.859375 19.332031 -1.125 17.9375 -0.46875 C 16.539062 0.1875 15.03125 0.515625 13.40625 0.515625 C 9.882812 0.515625 7.097656 -0.5 5.046875 -2.53125 C 2.992188 -4.5625 1.96875 -7.625 1.96875 -11.71875 C 1.96875 -14.664062 2.632812 -17.304688 3.96875 -19.640625 C 5.3125 -21.984375 7.191406 -23.8125 9.609375 -25.125 C 12.023438 -26.445312 14.800781 -27.109375 17.9375 -27.109375 C 19.40625 -27.109375 20.796875 -26.914062 22.109375 -26.53125 L 22.109375 -32.21875 C 22.109375 -33.644531 21.835938 -34.65625 21.296875 -35.25 C 20.753906 -35.851562 19.597656 -36.195312 17.828125 -36.28125 C 17.828125 -37.75 18.035156 -38.890625 18.453125 -39.703125 C 20.390625 -39.703125 22.394531 -39.894531 24.46875 -40.28125 C 26.539062 -40.664062 28.019531 -41.113281 28.90625 -41.625 C 30.03125 -41.15625 30.59375 -40.128906 30.59375 -38.546875 L 30.59375 -9.8125 C 30.59375 -8.5 30.671875 -7.519531 30.828125 -6.875 C 30.984375 -6.238281 31.300781 -5.796875 31.78125 -5.546875 C 32.257812 -5.296875 33.003906 -5.148438 34.015625 -5.109375 Z M 16.140625 -4.234375 C 17.804688 -4.234375 19.21875 -5.035156 20.375 -6.640625 C 21.53125 -8.253906 22.109375 -10.722656 22.109375 -14.046875 L 22.109375 -21.65625 C 21.492188 -22.3125 20.847656 -22.800781 20.171875 -23.125 C 19.492188 -23.457031 18.710938 -23.625 17.828125 -23.625 C 15.960938 -23.625 14.3125 -22.835938 12.875 -21.265625 C 11.445312 -19.703125 10.734375 -16.945312 10.734375 -13 C 10.734375 -10.332031 11.226562 -8.203125 12.21875 -6.609375 C 13.207031 -5.023438 14.515625 -4.234375 16.140625 -4.234375 Z M 16.140625 -4.234375 "/></g></g></g><g fill="#38405f" fill-opacity="1"><g transform="translate(187.45875, 314.726851)"><g><path d="M 26 -6.625 C 26.382812 -6.382812 26.722656 -5.972656 27.015625 -5.390625 C 27.304688 -4.816406 27.472656 -4.21875 27.515625 -3.59375 C 26.046875 -2.207031 24.378906 -1.175781 22.515625 -0.5 C 20.660156 0.175781 18.515625 0.515625 16.078125 0.515625 C 11.359375 0.515625 7.828125 -0.738281 5.484375 -3.25 C 3.140625 -5.769531 1.96875 -9.0625 1.96875 -13.125 C 1.96875 -15.863281 2.53125 -18.285156 3.65625 -20.390625 C 4.78125 -22.503906 6.367188 -24.148438 8.421875 -25.328125 C 10.472656 -26.515625 12.851562 -27.109375 15.5625 -27.109375 C 19.539062 -27.109375 22.523438 -25.992188 24.515625 -23.765625 C 26.515625 -21.546875 27.59375 -18.519531 27.75 -14.6875 C 27.507812 -13.5625 27.023438 -12.632812 26.296875 -11.90625 C 19.640625 -11.90625 14.472656 -11.804688 10.796875 -11.609375 C 11.140625 -9.210938 11.953125 -7.328125 13.234375 -5.953125 C 14.515625 -4.578125 16.332031 -3.890625 18.6875 -3.890625 C 20.039062 -3.890625 21.375 -4.128906 22.6875 -4.609375 C 24.007812 -5.097656 25.113281 -5.769531 26 -6.625 Z M 15.375 -23.515625 C 13.988281 -23.515625 12.859375 -22.828125 11.984375 -21.453125 C 11.117188 -20.078125 10.644531 -18.035156 10.5625 -15.328125 L 19.796875 -15.328125 C 19.796875 -17.921875 19.414062 -19.929688 18.65625 -21.359375 C 17.90625 -22.796875 16.8125 -23.515625 15.375 -23.515625 Z M 15.375 -23.515625 "/></g></g></g><g fill="#38405f" fill-opacity="1"><g transform="translate(217.225286, 314.726851)"><g><path d="M 21.59375 -27.109375 C 25.113281 -27.109375 27.898438 -26.09375 29.953125 -24.0625 C 32.003906 -22.03125 33.03125 -18.960938 33.03125 -14.859375 C 33.03125 -11.878906 32.367188 -9.226562 31.046875 -6.90625 C 29.734375 -4.582031 27.867188 -2.765625 25.453125 -1.453125 C 23.035156 -0.140625 20.257812 0.515625 17.125 0.515625 C 14.144531 0.515625 11.367188 0.140625 8.796875 -0.609375 C 6.222656 -1.359375 4.316406 -2.351562 3.078125 -3.59375 C 3.535156 -4.132812 3.867188 -4.898438 4.078125 -5.890625 C 4.296875 -6.878906 4.40625 -8.242188 4.40625 -9.984375 L 4.40625 -32.21875 C 4.40625 -33.644531 4.125 -34.65625 3.5625 -35.25 C 3.007812 -35.851562 1.859375 -36.195312 0.109375 -36.28125 C 0.109375 -37.75 0.320312 -38.890625 0.75 -39.703125 C 2.644531 -39.703125 4.640625 -39.90625 6.734375 -40.3125 C 8.828125 -40.71875 10.296875 -41.15625 11.140625 -41.625 C 12.304688 -41.15625 12.890625 -40.128906 12.890625 -38.546875 L 12.890625 -26.234375 C 12.890625 -24.765625 12.769531 -23.453125 12.53125 -22.296875 C 12.957031 -22.953125 13.425781 -23.492188 13.9375 -23.921875 C 14.707031 -24.734375 15.769531 -25.46875 17.125 -26.125 C 18.476562 -26.78125 19.96875 -27.109375 21.59375 -27.109375 Z M 17.1875 -2.953125 C 19.082031 -2.953125 20.742188 -3.734375 22.171875 -5.296875 C 23.609375 -6.867188 24.328125 -9.628906 24.328125 -13.578125 C 24.328125 -16.210938 23.820312 -18.332031 22.8125 -19.9375 C 21.800781 -21.539062 20.484375 -22.34375 18.859375 -22.34375 C 17.203125 -22.34375 15.789062 -21.539062 14.625 -19.9375 C 13.46875 -18.332031 12.890625 -15.847656 12.890625 -12.484375 L 12.890625 -4.9375 C 13.503906 -4.28125 14.148438 -3.785156 14.828125 -3.453125 C 15.503906 -3.117188 16.289062 -2.953125 17.1875 -2.953125 Z M 17.1875 -2.953125 "/></g></g></g><g fill="#38405f" fill-opacity="1"><g transform="translate(252.214024, 314.726851)"><g><path d="M 9.8125 -31.578125 C 8.375 -31.578125 7.207031 -31.953125 6.3125 -32.703125 C 5.425781 -33.460938 4.984375 -34.460938 4.984375 -35.703125 C 4.984375 -37.054688 5.457031 -38.128906 6.40625 -38.921875 C 7.363281 -39.710938 8.578125 -40.109375 10.046875 -40.109375 C 11.628906 -40.109375 12.851562 -39.71875 13.71875 -38.9375 C 14.59375 -38.164062 15.03125 -37.101562 15.03125 -35.75 C 15.03125 -34.550781 14.554688 -33.554688 13.609375 -32.765625 C 12.660156 -31.972656 11.394531 -31.578125 9.8125 -31.578125 Z M 1.96875 0.171875 C 1.96875 -1.367188 2.101562 -2.566406 2.375 -3.421875 C 3.925781 -3.503906 4.960938 -3.882812 5.484375 -4.5625 C 6.003906 -5.238281 6.265625 -6.539062 6.265625 -8.46875 L 6.265625 -17.703125 C 6.265625 -19.140625 5.984375 -20.15625 5.421875 -20.75 C 4.859375 -21.351562 3.707031 -21.691406 1.96875 -21.765625 C 1.96875 -23.234375 2.179688 -24.375 2.609375 -25.1875 C 4.503906 -25.1875 6.492188 -25.390625 8.578125 -25.796875 C 10.671875 -26.203125 12.164062 -26.640625 13.0625 -27.109375 C 14.1875 -26.640625 14.75 -25.613281 14.75 -24.03125 L 14.75 -8.46875 C 14.75 -6.539062 15 -5.238281 15.5 -4.5625 C 16 -3.882812 16.96875 -3.503906 18.40625 -3.421875 C 18.632812 -2.691406 18.75 -1.492188 18.75 0.171875 C 17.082031 0.0546875 14.296875 0 10.390625 0 C 6.398438 0 3.59375 0.0546875 1.96875 0.171875 Z M 1.96875 0.171875 "/></g></g></g><g fill="#38405f" fill-opacity="1"><g transform="translate(272.870731, 314.726851)"><g><path d="M 8.421875 0.515625 C 6.796875 0.515625 5.507812 0.0625 4.5625 -0.84375 C 3.613281 -1.75 3.140625 -2.976562 3.140625 -4.53125 C 3.140625 -6.039062 3.660156 -7.269531 4.703125 -8.21875 C 5.742188 -9.164062 7.078125 -9.640625 8.703125 -9.640625 C 10.140625 -9.640625 11.332031 -9.15625 12.28125 -8.1875 C 13.226562 -7.21875 13.703125 -6.113281 13.703125 -4.875 C 13.703125 -3.289062 13.21875 -1.992188 12.25 -0.984375 C 11.28125 0.015625 10.003906 0.515625 8.421875 0.515625 Z M 8.421875 0.515625 "/></g></g></g><g fill="#38405f" fill-opacity="1"><g transform="translate(289.52374, 314.726851)"><g><path d="M 18.921875 -4.640625 C 22.597656 -4.597656 25.34375 -4.082031 27.15625 -3.09375 C 28.976562 -2.113281 29.890625 -0.289062 29.890625 2.375 C 29.890625 4.539062 29.179688 6.550781 27.765625 8.40625 C 26.359375 10.269531 24.359375 11.742188 21.765625 12.828125 C 19.171875 13.910156 16.210938 14.453125 12.890625 14.453125 C 8.859375 14.453125 5.984375 13.820312 4.265625 12.5625 C 2.546875 11.3125 1.6875 9.5625 1.6875 7.3125 C 1.6875 6 2.039062 4.828125 2.75 3.796875 C 3.46875 2.773438 4.523438 1.972656 5.921875 1.390625 C 4.253906 0.421875 3.421875 -1.144531 3.421875 -3.3125 C 3.421875 -5.75 4.5625 -7.9375 6.84375 -9.875 C 3.976562 -11.53125 2.546875 -14.082031 2.546875 -17.53125 C 2.546875 -20.507812 3.582031 -22.847656 5.65625 -24.546875 C 7.726562 -26.253906 10.640625 -27.109375 14.390625 -27.109375 C 16.054688 -27.109375 17.585938 -26.929688 18.984375 -26.578125 L 29.890625 -26.578125 C 30.273438 -25.617188 30.46875 -24.113281 30.46875 -22.0625 C 28.8125 -22.632812 26.992188 -23.019531 25.015625 -23.21875 C 25.828125 -22.332031 26.445312 -21.363281 26.875 -20.3125 C 27.300781 -19.269531 27.515625 -18.265625 27.515625 -17.296875 C 27.515625 -14.585938 26.429688 -12.378906 24.265625 -10.671875 C 22.097656 -8.972656 18.960938 -8.125 14.859375 -8.125 C 13.429688 -8.125 12.078125 -8.238281 10.796875 -8.46875 C 10.097656 -7.851562 9.75 -7.273438 9.75 -6.734375 C 9.75 -6.078125 10.066406 -5.601562 10.703125 -5.3125 C 11.347656 -5.019531 12.21875 -4.84375 13.3125 -4.78125 C 14.414062 -4.726562 16.285156 -4.679688 18.921875 -4.640625 Z M 14.6875 -23.96875 C 13.445312 -23.96875 12.503906 -23.453125 11.859375 -22.421875 C 11.222656 -21.398438 10.90625 -20.039062 10.90625 -18.34375 C 10.90625 -16.132812 11.3125 -14.445312 12.125 -13.28125 C 12.9375 -12.125 14.097656 -11.546875 15.609375 -11.546875 C 16.773438 -11.546875 17.675781 -12.03125 18.3125 -13 C 18.945312 -13.96875 19.265625 -15.363281 19.265625 -17.1875 C 19.265625 -19.269531 18.859375 -20.921875 18.046875 -22.140625 C 17.234375 -23.359375 16.113281 -23.96875 14.6875 -23.96875 Z M 14.6875 10.5625 C 17.082031 10.5625 18.984375 10.109375 20.390625 9.203125 C 21.804688 8.296875 22.515625 7.144531 22.515625 5.75 C 22.515625 5.050781 22.320312 4.507812 21.9375 4.125 C 21.550781 3.738281 20.863281 3.46875 19.875 3.3125 C 18.894531 3.15625 17.4375 3.078125 15.5 3.078125 C 12.789062 2.992188 10.875 2.859375 9.75 2.671875 C 9.320312 3.171875 9.019531 3.648438 8.84375 4.109375 C 8.675781 4.578125 8.59375 5.125 8.59375 5.75 C 8.59375 7.414062 9.054688 8.632812 9.984375 9.40625 C 10.910156 10.175781 12.476562 10.5625 14.6875 10.5625 Z M 14.6875 10.5625 "/></g></g></g><g fill="#38405f" fill-opacity="1"><g transform="translate(321.553226, 314.726851)"><g><path d="M 26 -6.625 C 26.382812 -6.382812 26.722656 -5.972656 27.015625 -5.390625 C 27.304688 -4.816406 27.472656 -4.21875 27.515625 -3.59375 C 26.046875 -2.207031 24.378906 -1.175781 22.515625 -0.5 C 20.660156 0.175781 18.515625 0.515625 16.078125 0.515625 C 11.359375 0.515625 7.828125 -0.738281 5.484375 -3.25 C 3.140625 -5.769531 1.96875 -9.0625 1.96875 -13.125 C 1.96875 -15.863281 2.53125 -18.285156 3.65625 -20.390625 C 4.78125 -22.503906 6.367188 -24.148438 8.421875 -25.328125 C 10.472656 -26.515625 12.851562 -27.109375 15.5625 -27.109375 C 19.539062 -27.109375 22.523438 -25.992188 24.515625 -23.765625 C 26.515625 -21.546875 27.59375 -18.519531 27.75 -14.6875 C 27.507812 -13.5625 27.023438 -12.632812 26.296875 -11.90625 C 19.640625 -11.90625 14.472656 -11.804688 10.796875 -11.609375 C 11.140625 -9.210938 11.953125 -7.328125 13.234375 -5.953125 C 14.515625 -4.578125 16.332031 -3.890625 18.6875 -3.890625 C 20.039062 -3.890625 21.375 -4.128906 22.6875 -4.609375 C 24.007812 -5.097656 25.113281 -5.769531 26 -6.625 Z M 15.375 -23.515625 C 13.988281 -23.515625 12.859375 -22.828125 11.984375 -21.453125 C 11.117188 -20.078125 10.644531 -18.035156 10.5625 -15.328125 L 19.796875 -15.328125 C 19.796875 -17.921875 19.414062 -19.929688 18.65625 -21.359375 C 17.90625 -22.796875 16.8125 -23.515625 15.375 -23.515625 Z M 15.375 -23.515625 "/></g></g></g></svg>