<svg xmlns="http://www.w3.org/2000/svg" xmlns:xlink="http://www.w3.org/1999/xlink" width="500" zoomAndPan="magnify" viewBox="0 0 375 374.999991" height="500" preserveAspectRatio="xMidYMid meet" version="1.0"><defs><g/><clipPath id="325c24122f"><path d="M 35.503906 19 L 331.003906 19 L 331.003906 261 L 35.503906 261 Z M 35.503906 19 " clip-rule="nonzero"/></clipPath></defs><g clip-path="url(#325c24122f)"><path fill="#004aad" d="M 166.191406 48.402344 C 166.191406 46.570312 167.6875 45.074219 169.519531 45.074219 C 171.347656 45.074219 172.839844 46.570312 172.839844 48.402344 C 172.839844 50.238281 171.347656 51.722656 169.519531 51.722656 C 167.6875 51.722656 166.191406 50.238281 166.191406 48.402344 M 166.917969 73.71875 C 166.917969 71.886719 168.417969 70.390625 170.246094 70.390625 C 172.078125 70.390625 173.574219 71.886719 173.574219 73.71875 C 173.574219 75.550781 172.078125 77.046875 170.246094 77.046875 C 168.417969 77.046875 166.917969 75.550781 166.917969 73.71875 Z M 167.703125 99.035156 C 167.703125 97.210938 169.199219 95.71875 171.027344 95.71875 C 172.859375 95.71875 174.351562 97.210938 174.351562 99.035156 C 174.351562 100.867188 172.859375 102.363281 171.027344 102.363281 C 169.199219 102.363281 167.703125 100.867188 167.703125 99.035156 Z M 200.539062 48.402344 C 200.539062 46.570312 199.054688 45.074219 197.222656 45.074219 C 195.386719 45.074219 193.886719 46.570312 193.886719 48.402344 C 193.886719 50.238281 195.386719 51.722656 197.222656 51.722656 C 199.054688 51.722656 200.539062 50.238281 200.539062 48.402344 Z M 199.816406 73.71875 C 199.816406 71.886719 198.320312 70.390625 196.488281 70.390625 C 194.65625 70.390625 193.160156 71.886719 193.160156 73.71875 C 193.160156 75.550781 194.65625 77.046875 196.488281 77.046875 C 198.320312 77.046875 199.816406 75.550781 199.816406 73.71875 Z M 199.035156 99.035156 C 199.035156 97.210938 197.53125 95.71875 195.699219 95.71875 C 193.875 95.71875 192.382812 97.210938 192.382812 99.035156 C 192.382812 100.867188 193.875 102.363281 195.699219 102.363281 C 197.53125 102.363281 199.035156 100.867188 199.035156 99.035156 Z M 196.269531 154.964844 L 195.839844 131.621094 L 170.894531 131.621094 L 170.472656 154.964844 Z M 138.757812 232.464844 C 120.226562 225.796875 58.390625 256.375 35.605469 233.617188 C 52.160156 262.609375 118.445312 228.4375 138.757812 232.464844 Z M 227.992188 232.464844 C 246.515625 225.796875 308.347656 256.375 331.136719 233.625 C 314.582031 262.609375 248.296875 228.4375 227.992188 232.464844 Z M 196.726562 180.445312 L 196.535156 169.742188 C 200.960938 158.769531 209.777344 154.222656 219.863281 154.003906 C 247.128906 153.390625 263.0625 174.625 290.335938 169.015625 C 294.664062 195.496094 313.296875 219.675781 326.480469 229.566406 C 309.59375 209.089844 287.890625 176.339844 295.773438 162.515625 C 264.792969 175.277344 251.199219 147.292969 220.265625 147.523438 C 211.070312 147.59375 200.945312 150.710938 196.230469 157.503906 L 170.53125 157.503906 C 165.816406 150.703125 155.671875 147.585938 146.484375 147.523438 C 115.539062 147.292969 101.960938 175.277344 70.964844 162.515625 C 78.855469 176.351562 57.148438 209.089844 40.246094 229.566406 C 53.445312 219.667969 72.078125 195.496094 76.40625 169.015625 C 103.679688 174.625 119.601562 153.390625 146.878906 154.003906 C 156.953125 154.230469 165.769531 158.761719 170.203125 169.675781 L 170.007812 180.449219 L 196.726562 180.449219 Z M 197.1875 205.925781 L 196.773438 182.988281 L 169.960938 182.988281 L 169.542969 205.925781 Z M 197.652344 231.40625 L 197.242188 208.46875 L 169.5 208.46875 L 169.082031 231.40625 Z M 196.746094 254.359375 C 221.695312 220.996094 307.585938 286.898438 330.914062 248.21875 C 302.097656 278.941406 233.484375 219.878906 197.9375 243.535156 L 197.699219 233.945312 L 169.039062 233.945312 L 168.792969 243.496094 C 133.90625 219.96875 64.527344 279.089844 35.824219 248.21875 C 59.183594 286.964844 146.09375 220.792969 170.925781 254.515625 C 174.679688 259.613281 192.988281 259.402344 196.746094 254.359375 Z M 214.34375 91.832031 C 212.234375 91.089844 210.914062 91.171875 210.089844 91.785156 C 209.121094 92.546875 208.570312 94.691406 208.40625 97.113281 L 204.207031 97.113281 L 205.105469 75.644531 L 209.285156 75.644531 C 209.484375 77.964844 210.015625 80.007812 210.859375 80.785156 C 211.683594 81.566406 213.113281 81.792969 215.480469 80.8125 C 221.464844 78.320312 221.453125 68.722656 215.1875 66.503906 C 213.078125 65.761719 211.757812 65.84375 210.933594 66.480469 C 209.960938 67.21875 209.414062 69.367188 209.246094 71.792969 L 205.269531 71.792969 L 206.167969 50.328125 L 210.128906 50.328125 C 210.328125 52.644531 210.859375 54.691406 211.695312 55.460938 C 212.527344 56.25 213.957031 56.46875 216.324219 55.488281 C 222.308594 53.003906 222.296875 43.398438 216.03125 41.191406 C 213.921875 40.449219 212.601562 40.53125 211.785156 41.152344 C 210.8125 41.90625 210.253906 44.050781 210.089844 46.476562 L 206.324219 46.476562 L 207.222656 25.105469 C 203.996094 24.929688 201.765625 23.929688 199.421875 22.832031 C 190.34375 18.578125 177.878906 17.882812 168.652344 22.164062 C 165.769531 23.5 163.386719 24.894531 159.519531 25.105469 L 160.414062 46.476562 L 156.648438 46.476562 C 156.480469 44.050781 155.925781 41.90625 154.949219 41.152344 C 154.136719 40.53125 152.808594 40.449219 150.699219 41.191406 C 144.433594 43.398438 144.425781 53.003906 150.410156 55.488281 C 152.773438 56.46875 154.203125 56.25 155.039062 55.460938 C 155.871094 54.691406 156.40625 52.648438 156.613281 50.328125 L 160.566406 50.328125 L 161.46875 71.792969 L 157.492188 71.792969 C 157.324219 69.367188 156.765625 67.222656 155.792969 66.480469 C 154.980469 65.84375 153.652344 65.761719 151.542969 66.503906 C 145.277344 68.722656 145.265625 78.320312 151.253906 80.8125 C 153.613281 81.792969 155.042969 81.566406 155.882812 80.785156 C 156.710938 80.007812 157.25 77.964844 157.453125 75.644531 L 161.625 75.644531 L 162.527344 97.113281 L 158.335938 97.113281 C 158.167969 94.691406 157.613281 92.546875 156.636719 91.785156 C 155.824219 91.171875 154.5 91.089844 152.386719 91.832031 C 146.117188 94.039062 146.113281 103.644531 152.101562 106.128906 C 154.464844 107.109375 155.886719 106.882812 156.726562 106.101562 C 157.554688 105.324219 158.09375 103.28125 158.300781 100.96875 L 162.6875 100.96875 L 163.0625 109.972656 C 169.101562 116.84375 169.191406 121.5 169.1875 128.257812 L 197.550781 128.257812 C 197.53125 121.5 197.632812 116.84375 203.664062 109.972656 L 204.042969 100.96875 L 208.441406 100.96875 C 208.640625 103.28125 209.171875 105.324219 210.007812 106.101562 C 210.839844 106.882812 212.269531 107.113281 214.636719 106.128906 C 220.613281 103.644531 220.613281 94.039062 214.34375 91.832031 Z M 214.34375 91.832031 " fill-opacity="1" fill-rule="evenodd"/></g><path fill="#004aad" d="M 134.996094 112.976562 L 139.410156 121.234375 L 148.625 119.585938 C 149.300781 119.464844 149.773438 120.363281 149.300781 120.859375 L 142.820312 127.605469 L 147.230469 135.863281 C 147.554688 136.457031 146.851562 137.191406 146.238281 136.902344 L 137.8125 132.8125 L 131.324219 139.566406 C 130.851562 140.050781 129.941406 139.613281 130.03125 138.933594 L 131.3125 129.667969 L 122.886719 125.578125 C 122.273438 125.277344 122.410156 124.277344 123.085938 124.160156 L 132.300781 122.511719 L 133.578125 113.234375 C 133.671875 112.554688 134.675781 112.378906 134.996094 112.976562 " fill-opacity="1" fill-rule="evenodd"/><path fill="#004aad" d="M 231.742188 112.976562 L 227.332031 121.234375 L 218.121094 119.585938 C 217.441406 119.464844 216.964844 120.363281 217.441406 120.859375 L 223.929688 127.605469 L 219.511719 135.863281 C 219.183594 136.457031 219.898438 137.191406 220.503906 136.902344 L 228.9375 132.8125 L 235.425781 139.566406 C 235.882812 140.050781 236.800781 139.613281 236.710938 138.933594 L 235.425781 129.667969 L 243.859375 125.578125 C 244.472656 125.277344 244.335938 124.277344 243.65625 124.160156 L 234.445312 122.511719 L 233.160156 113.234375 C 233.070312 112.554688 232.070312 112.378906 231.742188 112.976562 " fill-opacity="1" fill-rule="evenodd"/><g fill="#38405f" fill-opacity="1"><g transform="translate(17.116531, 342.956101)"><g><path d="M 16.03125 -34.484375 C 16.394531 -34.554688 16.851562 -34.59375 17.40625 -34.59375 C 17.957031 -34.59375 18.769531 -34.546875 19.84375 -34.453125 C 20.925781 -34.359375 21.832031 -34.203125 22.5625 -33.984375 C 23.914062 -33.617188 25.019531 -33.113281 25.875 -32.46875 C 26.738281 -31.832031 27.242188 -31.164062 27.390625 -30.46875 C 27.429688 -30.320312 27.453125 -30.160156 27.453125 -29.984375 C 27.453125 -29.390625 27.320312 -28.546875 27.0625 -27.453125 C 26.8125 -26.359375 26.539062 -25.8125 26.25 -25.8125 C 26.132812 -25.8125 25.820312 -25.957031 25.3125 -26.25 C 24.101562 -26.90625 22.710938 -27.359375 21.140625 -27.609375 C 19.566406 -27.867188 18.335938 -28 17.453125 -28 C 16.691406 -28 16 -27.925781 15.375 -27.78125 C 13.726562 -27.375 12.351562 -26.585938 11.25 -25.421875 C 10.15625 -24.253906 9.40625 -22.734375 9 -20.859375 C 8.820312 -19.984375 8.734375 -18.773438 8.734375 -17.234375 C 8.734375 -15.703125 8.820312 -14.457031 9 -13.5 C 9.289062 -12.039062 9.8125 -10.757812 10.5625 -9.65625 C 11.3125 -8.5625 12.21875 -7.738281 13.28125 -7.1875 C 14.78125 -6.425781 16.285156 -6.046875 17.796875 -6.046875 C 18.304688 -6.046875 19.191406 -6.160156 20.453125 -6.390625 C 21.710938 -6.628906 22.945312 -7.554688 24.15625 -9.171875 C 24.59375 -9.796875 24.90625 -10.125 25.09375 -10.15625 C 25.601562 -10.15625 26.175781 -9.75 26.8125 -8.9375 C 27.457031 -8.132812 27.875 -7.257812 28.0625 -6.3125 C 28.132812 -6.019531 28.171875 -5.726562 28.171875 -5.4375 C 28.171875 -4.40625 27.691406 -3.414062 26.734375 -2.46875 C 25.785156 -1.519531 24.175781 -0.789062 21.90625 -0.28125 C 20.144531 0.125 18.425781 0.328125 16.75 0.328125 C 15.5 0.328125 13.875 0.144531 11.875 -0.21875 C 9.882812 -0.582031 8.050781 -1.570312 6.375 -3.1875 C 5.3125 -4.207031 4.367188 -5.578125 3.546875 -7.296875 C 2.722656 -9.023438 2.160156 -10.859375 1.859375 -12.796875 C 1.710938 -13.890625 1.640625 -15.023438 1.640625 -16.203125 C 1.679688 -17.703125 1.882812 -19.554688 2.25 -21.765625 C 2.613281 -23.984375 3.382812 -26.023438 4.5625 -27.890625 C 5.84375 -29.867188 7.367188 -31.367188 9.140625 -32.390625 C 10.921875 -33.421875 13.21875 -34.117188 16.03125 -34.484375 Z M 16.03125 -34.484375 "/></g></g></g><g fill="#38405f" fill-opacity="1"><g transform="translate(46.924384, 342.956101)"><g><path d="M 2.640625 -34.921875 C 3.222656 -35.066406 3.988281 -35.140625 4.9375 -35.140625 C 5.894531 -35.140625 6.628906 -35.066406 7.140625 -34.921875 C 7.617188 -34.804688 8.128906 -34.515625 8.671875 -34.046875 C 9.222656 -33.566406 9.539062 -33.097656 9.625 -32.640625 C 9.71875 -32.179688 9.765625 -31.660156 9.765625 -31.078125 C 9.765625 -30.492188 9.726562 -29.742188 9.65625 -28.828125 C 9.476562 -26.773438 9.390625 -24.925781 9.390625 -23.28125 L 9.390625 -20.75 L 10.375 -21.640625 C 12.09375 -23.140625 14.015625 -23.890625 16.140625 -23.890625 C 16.253906 -23.890625 16.894531 -23.867188 18.0625 -23.828125 C 19.238281 -23.796875 20.445312 -22.953125 21.6875 -21.296875 C 22.125 -20.710938 22.425781 -20.289062 22.59375 -20.03125 C 22.757812 -19.78125 22.90625 -19.1875 23.03125 -18.25 C 23.15625 -17.320312 23.21875 -16.378906 23.21875 -15.421875 L 23.21875 -9.171875 C 23.21875 -5.210938 23.15625 -2.875 23.03125 -2.15625 C 22.90625 -1.445312 22.441406 -0.894531 21.640625 -0.5 C 21.554688 -0.457031 21.5 -0.421875 21.46875 -0.390625 C 20.957031 -0.128906 20.425781 0 19.875 0 C 19.175781 0 18.484375 -0.238281 17.796875 -0.71875 C 17.390625 -0.96875 17.101562 -1.179688 16.9375 -1.359375 C 16.769531 -1.546875 16.625 -1.941406 16.5 -2.546875 C 16.375 -3.148438 16.300781 -3.828125 16.28125 -4.578125 C 16.257812 -5.328125 16.25 -6.601562 16.25 -8.40625 C 16.25 -11.507812 16.191406 -13.601562 16.078125 -14.6875 C 15.972656 -15.769531 15.71875 -16.507812 15.3125 -16.90625 C 14.914062 -17.3125 14.523438 -17.519531 14.140625 -17.53125 C 13.753906 -17.550781 13.539062 -17.5625 13.5 -17.5625 C 12.84375 -17.5625 12.164062 -17.398438 11.46875 -17.078125 C 11.394531 -17.035156 11.304688 -16.976562 11.203125 -16.90625 C 10.359375 -16.507812 9.863281 -16.035156 9.71875 -15.484375 C 9.570312 -14.929688 9.476562 -13.191406 9.4375 -10.265625 C 9.4375 -9.785156 9.421875 -9.398438 9.390625 -9.109375 C 9.347656 -6.328125 9.300781 -4.515625 9.25 -3.671875 C 9.195312 -2.835938 9.097656 -2.273438 8.953125 -1.984375 C 8.546875 -1.285156 8.039062 -0.78125 7.4375 -0.46875 C 6.832031 -0.15625 6.289062 0 5.8125 0 C 5.632812 0 5.453125 -0.0195312 5.265625 -0.0625 C 4.898438 -0.164062 4.5 -0.410156 4.0625 -0.796875 C 3.625 -1.179688 3.238281 -1.613281 2.90625 -2.09375 L 2.421875 -2.859375 L 2.3125 -17.015625 C 2.238281 -26.535156 2.085938 -31.789062 1.859375 -32.78125 C 1.710938 -33.625 1.640625 -34.15625 1.640625 -34.375 C 1.640625 -34.476562 1.640625 -34.53125 1.640625 -34.53125 C 1.753906 -34.644531 2.085938 -34.773438 2.640625 -34.921875 Z M 2.640625 -34.921875 "/></g></g></g><g fill="#38405f" fill-opacity="1"><g transform="translate(71.791708, 342.956101)"><g><path d="M 9 -24 C 9.957031 -24.175781 11.003906 -24.265625 12.140625 -24.265625 C 12.210938 -24.265625 12.285156 -24.265625 12.359375 -24.265625 C 15.503906 -24.265625 17.984375 -23.367188 19.796875 -21.578125 C 21.609375 -19.785156 22.601562 -17.148438 22.78125 -13.671875 C 22.78125 -13.378906 22.78125 -13.085938 22.78125 -12.796875 C 22.78125 -10.703125 22.453125 -8.742188 21.796875 -6.921875 C 21.285156 -5.640625 20.414062 -4.394531 19.1875 -3.1875 C 17.957031 -1.976562 16.703125 -1.15625 15.421875 -0.71875 C 14.617188 -0.425781 13.675781 -0.25 12.59375 -0.1875 C 11.519531 -0.132812 10.742188 -0.109375 10.265625 -0.109375 C 9.347656 -0.109375 8.597656 -0.164062 8.015625 -0.28125 C 5.421875 -0.820312 3.488281 -2.109375 2.21875 -4.140625 C 0.957031 -6.171875 0.328125 -8.632812 0.328125 -11.53125 C 0.328125 -11.9375 0.347656 -12.335938 0.390625 -12.734375 C 0.535156 -15.410156 1.15625 -17.625 2.25 -19.375 C 2.945312 -20.476562 3.90625 -21.453125 5.125 -22.296875 C 6.351562 -23.140625 7.644531 -23.707031 9 -24 Z M 13.34375 -17.953125 C 12.757812 -18.210938 12.171875 -18.34375 11.578125 -18.34375 C 10.921875 -18.34375 10.265625 -18.175781 9.609375 -17.84375 C 8.734375 -17.40625 8.101562 -16.742188 7.71875 -15.859375 C 7.332031 -14.984375 7.117188 -13.757812 7.078125 -12.1875 C 7.078125 -10.757812 7.242188 -9.679688 7.578125 -8.953125 C 8.054688 -7.921875 8.632812 -7.1875 9.3125 -6.75 C 9.988281 -6.3125 10.875 -6.09375 11.96875 -6.09375 C 13.175781 -6.09375 14.085938 -6.445312 14.703125 -7.15625 C 15.328125 -7.875 15.753906 -9.039062 15.984375 -10.65625 C 16.054688 -11.195312 16.09375 -11.742188 16.09375 -12.296875 C 16.09375 -13.097656 15.976562 -13.992188 15.75 -14.984375 C 15.53125 -15.972656 15.128906 -16.742188 14.546875 -17.296875 C 14.328125 -17.515625 13.925781 -17.734375 13.34375 -17.953125 Z M 13.34375 -17.953125 "/></g></g></g><g fill="#38405f" fill-opacity="1"><g transform="translate(95.012187, 342.956101)"><g><path d="M 16.140625 -24.546875 C 16.503906 -24.617188 16.890625 -24.65625 17.296875 -24.65625 C 17.628906 -24.65625 18.085938 -24.617188 18.671875 -24.546875 C 19.253906 -24.472656 19.765625 -24.304688 20.203125 -24.046875 C 20.753906 -23.753906 21.175781 -23.296875 21.46875 -22.671875 C 21.6875 -22.234375 21.804688 -21.957031 21.828125 -21.84375 C 21.847656 -21.738281 21.859375 -21.671875 21.859375 -21.640625 C 21.859375 -21.410156 21.800781 -21.113281 21.6875 -20.75 C 21.539062 -20.207031 21.300781 -19.6875 20.96875 -19.1875 C 20.644531 -18.695312 20.316406 -18.359375 19.984375 -18.171875 C 19.878906 -18.097656 19.695312 -18.0625 19.4375 -18.0625 C 19.070312 -18.0625 18.613281 -18.117188 18.0625 -18.234375 C 17.289062 -18.378906 16.5625 -18.453125 15.875 -18.453125 C 13.707031 -18.453125 12.203125 -17.773438 11.359375 -16.421875 C 10.816406 -15.578125 10.453125 -14.722656 10.265625 -13.859375 C 10.085938 -13.003906 9.960938 -11.3125 9.890625 -8.78125 C 9.734375 -4.90625 9.617188 -2.765625 9.546875 -2.359375 C 9.296875 -1.046875 8.710938 -0.164062 7.796875 0.28125 C 7.242188 0.53125 6.734375 0.65625 6.265625 0.65625 C 5.421875 0.65625 4.628906 0.289062 3.890625 -0.4375 C 3.347656 -1.019531 3.003906 -1.796875 2.859375 -2.765625 C 2.710938 -3.742188 2.640625 -6.425781 2.640625 -10.8125 C 2.640625 -17.113281 2.421875 -21.175781 1.984375 -23 L 1.640625 -24.046875 L 2.796875 -24.328125 C 3.304688 -24.429688 3.800781 -24.484375 4.28125 -24.484375 C 5.382812 -24.484375 6.425781 -24.226562 7.40625 -23.71875 C 8.6875 -23.09375 9.398438 -22.085938 9.546875 -20.703125 L 9.65625 -19.609375 L 10.484375 -20.8125 C 11.140625 -21.726562 11.972656 -22.515625 12.984375 -23.171875 C 13.992188 -23.828125 15.046875 -24.285156 16.140625 -24.546875 Z M 16.140625 -24.546875 "/></g></g></g><g fill="#38405f" fill-opacity="1"><g transform="translate(117.079885, 342.956101)"><g><path d="M 17.40625 -35.640625 C 17.84375 -35.671875 18.28125 -35.6875 18.71875 -35.6875 C 19.5625 -35.6875 20.515625 -35.578125 21.578125 -35.359375 C 22.640625 -35.140625 23.460938 -34.773438 24.046875 -34.265625 C 24.523438 -33.859375 24.789062 -33.550781 24.84375 -33.34375 C 24.894531 -33.144531 24.921875 -32.992188 24.921875 -32.890625 C 24.921875 -32.628906 24.832031 -32.265625 24.65625 -31.796875 C 24.46875 -31.316406 24.351562 -30.304688 24.3125 -28.765625 C 24.28125 -27.234375 24.25 -23.117188 24.21875 -16.421875 C 24.21875 -9.648438 24.195312 -5.539062 24.15625 -4.09375 C 24.125 -2.644531 24.015625 -1.753906 23.828125 -1.421875 C 23.535156 -0.953125 23.101562 -0.566406 22.53125 -0.265625 C 21.96875 0.0234375 21.484375 0.171875 21.078125 0.171875 C 20.929688 0.171875 20.710938 0.140625 20.421875 0.078125 C 20.128906 0.0234375 19.707031 -0.179688 19.15625 -0.546875 C 18.613281 -0.910156 18.210938 -1.296875 17.953125 -1.703125 L 17.5625 -2.359375 L 17.1875 -1.921875 C 17 -1.660156 16.375 -1.257812 15.3125 -0.71875 C 13.738281 0.0507812 12.222656 0.4375 10.765625 0.4375 C 9.441406 0.4375 7.816406 -0.046875 5.890625 -1.015625 C 3.972656 -1.984375 2.671875 -4.113281 1.984375 -7.40625 C 1.753906 -8.46875 1.640625 -9.585938 1.640625 -10.765625 C 1.640625 -11.347656 1.695312 -12.25 1.8125 -13.46875 C 1.925781 -14.695312 2.273438 -15.914062 2.859375 -17.125 C 3.253906 -17.9375 3.957031 -18.84375 4.96875 -19.84375 C 5.976562 -20.851562 6.863281 -21.539062 7.625 -21.90625 C 8.875 -22.488281 9.957031 -22.796875 10.875 -22.828125 C 11.789062 -22.867188 12.335938 -22.890625 12.515625 -22.890625 C 13.867188 -22.890625 15.003906 -22.691406 15.921875 -22.296875 C 16.578125 -22.003906 16.941406 -21.859375 17.015625 -21.859375 C 17.054688 -21.859375 17.078125 -22.660156 17.078125 -24.265625 C 17.078125 -25.066406 17.078125 -26.070312 17.078125 -27.28125 C 17.003906 -29.664062 16.9375 -31.238281 16.875 -32 C 16.820312 -32.769531 16.707031 -33.453125 16.53125 -34.046875 C 16.34375 -34.628906 16.25 -35.007812 16.25 -35.1875 C 16.25 -35.269531 16.265625 -35.351562 16.296875 -35.4375 C 16.335938 -35.53125 16.707031 -35.597656 17.40625 -35.640625 Z M 15.984375 -16.578125 C 15.242188 -16.835938 14.472656 -16.96875 13.671875 -16.96875 C 13.628906 -16.96875 13.367188 -16.957031 12.890625 -16.9375 C 12.421875 -16.914062 11.910156 -16.78125 11.359375 -16.53125 C 10.410156 -16.09375 9.707031 -15.394531 9.25 -14.4375 C 8.789062 -13.488281 8.5625 -12.425781 8.5625 -11.25 C 8.5625 -11.070312 8.5625 -10.890625 8.5625 -10.703125 C 8.632812 -9.203125 9.019531 -8.019531 9.71875 -7.15625 C 10.414062 -6.300781 11.347656 -5.800781 12.515625 -5.65625 C 12.703125 -5.613281 12.882812 -5.59375 13.0625 -5.59375 C 14.195312 -5.59375 15.28125 -6.109375 16.3125 -7.140625 L 17.078125 -7.96875 L 17.078125 -16.25 Z M 15.984375 -16.578125 "/></g></g></g><g fill="#38405f" fill-opacity="1"><g transform="translate(143.648956, 342.956101)"><g><path d="M 8.1875 -24.21875 C 8.945312 -24.394531 10.085938 -24.484375 11.609375 -24.484375 C 13.128906 -24.484375 14.3125 -24.394531 15.15625 -24.21875 C 16 -24 16.785156 -23.710938 17.515625 -23.359375 C 18.242188 -23.015625 18.71875 -22.675781 18.9375 -22.34375 C 19.15625 -22.019531 19.265625 -21.632812 19.265625 -21.1875 C 19.265625 -20.894531 19.191406 -20.445312 19.046875 -19.84375 C 18.898438 -19.238281 18.519531 -18.664062 17.90625 -18.125 L 17.40625 -17.625 L 16.53125 -18.171875 C 15.570312 -18.828125 14.617188 -19.253906 13.671875 -19.453125 C 12.722656 -19.660156 11.988281 -19.765625 11.46875 -19.765625 C 11 -19.765625 10.582031 -19.710938 10.21875 -19.609375 C 9.40625 -19.347656 9 -18.757812 9 -17.84375 C 9 -17.363281 9.226562 -16.953125 9.6875 -16.609375 C 10.144531 -16.265625 10.976562 -15.890625 12.1875 -15.484375 C 14.71875 -14.640625 16.507812 -13.894531 17.5625 -13.25 C 18.625 -12.613281 19.394531 -11.800781 19.875 -10.8125 C 20.28125 -10.007812 20.484375 -9.003906 20.484375 -7.796875 C 20.484375 -6.734375 20.34375 -5.863281 20.0625 -5.1875 C 19.789062 -4.507812 19.289062 -3.75 18.5625 -2.90625 C 17.09375 -1.257812 15.550781 -0.34375 13.9375 -0.15625 C 12.332031 0.0195312 11.253906 0.109375 10.703125 0.109375 C 8.648438 0.109375 6.675781 -0.347656 4.78125 -1.265625 C 2.6875 -2.285156 1.640625 -3.546875 1.640625 -5.046875 C 1.640625 -5.265625 1.660156 -5.503906 1.703125 -5.765625 C 1.804688 -6.316406 1.96875 -6.863281 2.1875 -7.40625 C 2.414062 -7.957031 2.601562 -8.234375 2.75 -8.234375 C 2.851562 -8.234375 3.492188 -7.867188 4.671875 -7.140625 C 6.171875 -6.179688 7.457031 -5.570312 8.53125 -5.3125 C 9.613281 -5.0625 10.429688 -4.9375 10.984375 -4.9375 C 11.640625 -4.9375 12.1875 -5.066406 12.625 -5.328125 C 12.957031 -5.503906 13.1875 -5.703125 13.3125 -5.921875 C 13.4375 -6.148438 13.5 -6.519531 13.5 -7.03125 C 13.5 -7.539062 13.242188 -7.976562 12.734375 -8.34375 C 12.222656 -8.707031 11.21875 -9.164062 9.71875 -9.71875 C 7.269531 -10.59375 5.515625 -11.414062 4.453125 -12.1875 C 3.242188 -13.101562 2.4375 -14.367188 2.03125 -15.984375 C 1.882812 -16.492188 1.8125 -16.984375 1.8125 -17.453125 C 1.8125 -18.660156 2.3125 -19.929688 3.3125 -21.265625 C 4.320312 -22.609375 5.945312 -23.59375 8.1875 -24.21875 Z M 8.1875 -24.21875 "/></g></g></g><g fill="#38405f" fill-opacity="1"><g transform="translate(165.771545, 342.956101)"><g><path d="M 11.25 -33.609375 C 11.625 -33.679688 12.300781 -33.71875 13.28125 -33.71875 C 13.613281 -33.71875 14.28125 -33.707031 15.28125 -33.6875 C 16.289062 -33.664062 17.070312 -33.601562 17.625 -33.5 C 19.75 -33.050781 21.257812 -32.222656 22.15625 -31.015625 C 23.050781 -29.804688 23.5 -28.546875 23.5 -27.234375 C 23.5 -26.753906 23.441406 -26.257812 23.328125 -25.75 C 23.003906 -23.84375 22.070312 -22.175781 20.53125 -20.75 C 19.726562 -19.988281 19.328125 -19.566406 19.328125 -19.484375 C 19.328125 -19.484375 19.375 -19.457031 19.46875 -19.40625 C 19.5625 -19.351562 19.707031 -19.253906 19.90625 -19.109375 C 20.101562 -18.960938 20.257812 -18.851562 20.375 -18.78125 C 22.96875 -17.019531 24.265625 -14.492188 24.265625 -11.203125 C 24.265625 -10.648438 24.226562 -10.097656 24.15625 -9.546875 C 23.832031 -6.953125 22.851562 -4.882812 21.21875 -3.34375 C 19.59375 -1.8125 17.351562 -0.863281 14.5 -0.5 C 13.46875 -0.351562 12.476562 -0.28125 11.53125 -0.28125 C 9.59375 -0.28125 7.660156 -0.632812 5.734375 -1.34375 C 3.816406 -2.0625 2.820312 -3.222656 2.75 -4.828125 C 2.75 -4.941406 2.75 -5.070312 2.75 -5.21875 C 2.75 -5.613281 2.789062 -6.160156 2.875 -6.859375 C 2.96875 -7.554688 3.070312 -8 3.1875 -8.1875 C 3.21875 -8.21875 3.289062 -8.234375 3.40625 -8.234375 C 3.769531 -8.234375 4.628906 -8.015625 5.984375 -7.578125 C 8.398438 -6.773438 10.394531 -6.375 11.96875 -6.375 C 12.445312 -6.375 12.882812 -6.410156 13.28125 -6.484375 C 14.601562 -6.734375 15.554688 -7.207031 16.140625 -7.90625 C 16.722656 -8.601562 17.015625 -9.609375 17.015625 -10.921875 C 17.015625 -11.804688 16.90625 -12.46875 16.6875 -12.90625 C 16.46875 -13.34375 16.046875 -13.742188 15.421875 -14.109375 C 14.953125 -14.398438 13.691406 -14.582031 11.640625 -14.65625 C 10.171875 -14.726562 9.269531 -14.789062 8.9375 -14.84375 C 8.613281 -14.90625 8.304688 -15.0625 8.015625 -15.3125 C 7.648438 -15.644531 7.359375 -16.015625 7.140625 -16.421875 C 6.992188 -16.742188 6.8125 -17.34375 6.59375 -18.21875 C 6.375 -19.101562 6.265625 -19.640625 6.265625 -19.828125 C 6.265625 -19.898438 6.28125 -19.953125 6.3125 -19.984375 C 6.351562 -20.023438 7.25 -20.15625 9 -20.375 C 10.832031 -20.59375 12.03125 -20.789062 12.59375 -20.96875 C 13.164062 -21.15625 13.78125 -21.539062 14.4375 -22.125 C 15.539062 -23.15625 16.09375 -24.234375 16.09375 -25.359375 C 16.09375 -25.910156 15.867188 -26.367188 15.421875 -26.734375 C 14.804688 -27.253906 14.054688 -27.515625 13.171875 -27.515625 C 13.097656 -27.515625 12.804688 -27.503906 12.296875 -27.484375 C 11.785156 -27.460938 10.671875 -27.160156 8.953125 -26.578125 C 7.628906 -26.140625 6.847656 -25.910156 6.609375 -25.890625 C 6.378906 -25.867188 6.242188 -25.859375 6.203125 -25.859375 C 5.835938 -25.859375 5.4375 -26.023438 5 -26.359375 C 4.664062 -26.609375 4.210938 -27.238281 3.640625 -28.25 C 3.078125 -29.257812 2.796875 -29.945312 2.796875 -30.3125 C 2.796875 -30.5625 3.414062 -30.976562 4.65625 -31.5625 C 5.90625 -32.15625 6.882812 -32.5625 7.59375 -32.78125 C 8.3125 -33 9.53125 -33.273438 11.25 -33.609375 Z M 11.25 -33.609375 "/></g></g></g><g fill="#38405f" fill-opacity="1"><g transform="translate(192.779773, 342.956101)"><g><path d="M 17.234375 -33.65625 C 17.929688 -33.800781 18.484375 -33.875 18.890625 -33.875 C 19.066406 -33.875 19.210938 -33.859375 19.328125 -33.828125 C 20.460938 -33.640625 21.300781 -32.976562 21.84375 -31.84375 C 22.394531 -30.707031 22.671875 -29.847656 22.671875 -29.265625 C 22.671875 -28.753906 22.507812 -28.296875 22.1875 -27.890625 C 22 -27.640625 21.800781 -27.484375 21.59375 -27.421875 C 21.394531 -27.367188 21.003906 -27.34375 20.421875 -27.34375 C 18.410156 -27.34375 16.707031 -26.976562 15.3125 -26.25 C 14.582031 -25.882812 13.851562 -25.285156 13.125 -24.453125 C 12.394531 -23.628906 11.789062 -22.726562 11.3125 -21.75 C 10.757812 -20.644531 10.484375 -19.96875 10.484375 -19.71875 C 10.484375 -19.601562 10.519531 -19.546875 10.59375 -19.546875 C 10.707031 -19.546875 10.984375 -19.65625 11.421875 -19.875 C 12.660156 -20.5 13.8125 -20.851562 14.875 -20.9375 C 15.9375 -21.03125 16.671875 -21.078125 17.078125 -21.078125 C 18.210938 -21.078125 19.164062 -20.914062 19.9375 -20.59375 C 22.238281 -19.632812 23.789062 -17.875 24.59375 -15.3125 C 24.882812 -14.40625 25.039062 -13.535156 25.0625 -12.703125 C 25.082031 -11.878906 25.09375 -11.414062 25.09375 -11.3125 C 25.09375 -9.914062 24.960938 -8.765625 24.703125 -7.859375 C 23.347656 -2.660156 19.765625 -0.0625 13.953125 -0.0625 C 10.109375 -0.0625 7.28125 -1.296875 5.46875 -3.765625 C 3.65625 -6.234375 2.75 -9.628906 2.75 -13.953125 C 2.75 -14.347656 2.75 -14.765625 2.75 -15.203125 C 2.96875 -20.847656 4.890625 -25.441406 8.515625 -28.984375 C 10.960938 -31.398438 13.867188 -32.957031 17.234375 -33.65625 Z M 16.578125 -14.65625 C 15.992188 -14.914062 15.375 -15.046875 14.71875 -15.046875 C 14.382812 -15.046875 13.84375 -14.972656 13.09375 -14.828125 C 12.34375 -14.679688 11.53125 -14.222656 10.65625 -13.453125 C 10.25 -13.117188 10 -12.859375 9.90625 -12.671875 C 9.8125 -12.492188 9.765625 -12.207031 9.765625 -11.8125 C 9.765625 -10.894531 9.972656 -9.941406 10.390625 -8.953125 C 10.816406 -7.960938 11.328125 -7.226562 11.921875 -6.75 C 12.316406 -6.457031 12.769531 -6.25 13.28125 -6.125 C 13.800781 -6 14.222656 -5.9375 14.546875 -5.9375 C 14.734375 -5.9375 14.914062 -5.953125 15.09375 -5.984375 C 16.15625 -6.171875 16.96875 -6.675781 17.53125 -7.5 C 18.101562 -8.320312 18.390625 -9.410156 18.390625 -10.765625 C 18.390625 -12.816406 17.785156 -14.113281 16.578125 -14.65625 Z M 16.578125 -14.65625 "/></g></g></g><g fill="#38405f" fill-opacity="1"><g transform="translate(220.611423, 342.956101)"><g><path d="M 4.671875 -32.828125 C 4.960938 -32.867188 5.21875 -32.890625 5.4375 -32.890625 C 5.6875 -32.890625 5.890625 -32.867188 6.046875 -32.828125 C 6.554688 -32.753906 7.632812 -32.71875 9.28125 -32.71875 C 9.6875 -32.71875 10.109375 -32.71875 10.546875 -32.71875 C 12.410156 -32.71875 14.769531 -32.773438 17.625 -32.890625 L 21.796875 -33.046875 L 22.40625 -32.453125 C 22.800781 -32.046875 23.109375 -31.53125 23.328125 -30.90625 C 23.554688 -30.289062 23.671875 -29.757812 23.671875 -29.3125 C 23.671875 -29.164062 23.648438 -29.003906 23.609375 -28.828125 C 23.390625 -27.617188 22.53125 -26.867188 21.03125 -26.578125 C 20.1875 -26.390625 18.132812 -26.257812 14.875 -26.1875 L 10 -26.078125 L 10 -23.171875 C 10 -21.335938 10.070312 -20.421875 10.21875 -20.421875 C 10.25 -20.421875 10.300781 -20.421875 10.375 -20.421875 C 11.476562 -20.898438 12.519531 -21.15625 13.5 -21.1875 C 14.488281 -21.226562 15.113281 -21.25 15.375 -21.25 C 16.6875 -21.25 17.820312 -21.101562 18.78125 -20.8125 C 21.269531 -20.007812 22.972656 -18.363281 23.890625 -15.875 C 24.210938 -14.988281 24.398438 -14.109375 24.453125 -13.234375 C 24.515625 -12.359375 24.546875 -11.753906 24.546875 -11.421875 C 24.546875 -10.398438 24.453125 -9.429688 24.265625 -8.515625 C 23.679688 -5.691406 22.507812 -3.582031 20.75 -2.1875 C 19 -0.800781 16.507812 -0.015625 13.28125 0.171875 C 12.882812 0.203125 12.484375 0.21875 12.078125 0.21875 C 9.660156 0.21875 7.5 -0.273438 5.59375 -1.265625 C 3.695312 -2.253906 2.75 -3.390625 2.75 -4.671875 C 2.75 -4.847656 2.765625 -5.007812 2.796875 -5.15625 C 2.867188 -5.707031 3.015625 -6.359375 3.234375 -7.109375 C 3.453125 -7.859375 3.597656 -8.269531 3.671875 -8.34375 C 3.742188 -8.414062 3.816406 -8.453125 3.890625 -8.453125 C 4.191406 -8.453125 4.984375 -8.175781 6.265625 -7.625 C 8.753906 -6.570312 10.800781 -6.046875 12.40625 -6.046875 C 12.8125 -6.046875 13.195312 -6.082031 13.5625 -6.15625 C 15.175781 -6.476562 16.289062 -7.242188 16.90625 -8.453125 C 17.238281 -9.035156 17.40625 -9.894531 17.40625 -11.03125 C 17.40625 -12.164062 17.238281 -12.953125 16.90625 -13.390625 C 16.4375 -14.015625 16.007812 -14.410156 15.625 -14.578125 C 15.238281 -14.742188 14.644531 -14.828125 13.84375 -14.828125 C 13.6875 -14.828125 13.519531 -14.828125 13.34375 -14.828125 C 11.988281 -14.828125 10.757812 -14.625 9.65625 -14.21875 C 8.5625 -13.8125 7.613281 -13.609375 6.8125 -13.609375 C 5.457031 -13.609375 4.46875 -14.140625 3.84375 -15.203125 C 3.65625 -15.578125 3.550781 -16.054688 3.53125 -16.640625 C 3.519531 -17.222656 3.515625 -18.082031 3.515625 -19.21875 C 3.515625 -20.382812 3.515625 -21.90625 3.515625 -23.78125 C 3.515625 -28.9375 3.566406 -31.734375 3.671875 -32.171875 C 3.710938 -32.429688 3.785156 -32.597656 3.890625 -32.671875 C 4.003906 -32.742188 4.265625 -32.796875 4.671875 -32.828125 Z M 4.671875 -32.828125 "/></g></g></g><g fill="#38405f" fill-opacity="1"><g transform="translate(247.839242, 342.956101)"><g><path d="M 6.703125 -7.46875 C 7.023438 -7.570312 7.535156 -7.625 8.234375 -7.625 C 8.421875 -7.625 8.601562 -7.625 8.78125 -7.625 C 9.4375 -7.625 9.894531 -7.578125 10.15625 -7.484375 C 10.414062 -7.398438 10.726562 -7.210938 11.09375 -6.921875 C 11.96875 -6.222656 12.40625 -5.328125 12.40625 -4.234375 C 12.40625 -3.929688 12.367188 -3.597656 12.296875 -3.234375 C 12.148438 -2.503906 11.945312 -1.957031 11.6875 -1.59375 C 11.25 -0.894531 10.628906 -0.484375 9.828125 -0.359375 C 9.023438 -0.234375 8.457031 -0.171875 8.125 -0.171875 C 7.28125 -0.171875 6.550781 -0.351562 5.9375 -0.71875 C 5.414062 -0.96875 4.984375 -1.40625 4.640625 -2.03125 C 4.296875 -2.65625 4.125 -3.257812 4.125 -3.84375 C 4.125 -4.613281 4.359375 -5.328125 4.828125 -5.984375 C 5.304688 -6.640625 5.929688 -7.132812 6.703125 -7.46875 Z M 6.703125 -7.46875 "/></g></g></g><g fill="#38405f" fill-opacity="1"><g transform="translate(264.417458, 342.956101)"><g><path d="M 12.625 -24.046875 C 13.46875 -24.117188 14.09375 -24.15625 14.5 -24.15625 C 14.644531 -24.15625 14.769531 -24.15625 14.875 -24.15625 C 14.945312 -24.15625 15.222656 -24.132812 15.703125 -24.09375 C 16.179688 -24.0625 16.546875 -24.03125 16.796875 -24 C 17.679688 -23.925781 18.597656 -23.675781 19.546875 -23.25 C 20.492188 -22.832031 21.078125 -22.40625 21.296875 -21.96875 C 21.484375 -21.59375 21.585938 -21.238281 21.609375 -20.90625 C 21.628906 -20.582031 21.640625 -20.40625 21.640625 -20.375 C 21.640625 -19.820312 21.546875 -19.398438 21.359375 -19.109375 C 20.921875 -18.234375 20.390625 -17.664062 19.765625 -17.40625 C 19.691406 -17.363281 19.597656 -17.34375 19.484375 -17.34375 C 19.085938 -17.34375 18.394531 -17.507812 17.40625 -17.84375 C 16.269531 -18.28125 15.191406 -18.5 14.171875 -18.5 C 13.429688 -18.5 12.507812 -18.304688 11.40625 -17.921875 C 10.3125 -17.535156 9.492188 -16.519531 8.953125 -14.875 C 8.765625 -14.332031 8.671875 -13.617188 8.671875 -12.734375 C 8.671875 -12.515625 8.6875 -12.046875 8.71875 -11.328125 C 8.757812 -10.617188 8.925781 -9.898438 9.21875 -9.171875 C 10.0625 -6.859375 11.75 -5.703125 14.28125 -5.703125 C 14.5 -5.703125 14.71875 -5.703125 14.9375 -5.703125 C 16.507812 -5.859375 18.15625 -6.6875 19.875 -8.1875 L 21.140625 -9.28125 L 21.46875 -8.453125 C 21.832031 -7.535156 22.015625 -6.675781 22.015625 -5.875 C 22.015625 -5.4375 21.960938 -5.015625 21.859375 -4.609375 C 21.710938 -4.023438 21.304688 -3.394531 20.640625 -2.71875 C 19.984375 -2.039062 19.289062 -1.519531 18.5625 -1.15625 C 17.425781 -0.644531 16.296875 -0.34375 15.171875 -0.25 C 14.054688 -0.15625 13.242188 -0.109375 12.734375 -0.109375 C 11.671875 -0.109375 10.664062 -0.203125 9.71875 -0.390625 C 8.101562 -0.710938 6.785156 -1.296875 5.765625 -2.140625 C 4.742188 -2.984375 3.847656 -4.191406 3.078125 -5.765625 C 2.117188 -7.671875 1.640625 -9.664062 1.640625 -11.75 C 1.679688 -15.082031 2.695312 -17.882812 4.6875 -20.15625 C 6.6875 -22.425781 9.332031 -23.722656 12.625 -24.046875 Z M 12.625 -24.046875 "/></g></g></g><g fill="#38405f" fill-opacity="1"><g transform="translate(288.077094, 342.956101)"><g><path d="M 9 -24 C 9.957031 -24.175781 11.003906 -24.265625 12.140625 -24.265625 C 12.210938 -24.265625 12.285156 -24.265625 12.359375 -24.265625 C 15.503906 -24.265625 17.984375 -23.367188 19.796875 -21.578125 C 21.609375 -19.785156 22.601562 -17.148438 22.78125 -13.671875 C 22.78125 -13.378906 22.78125 -13.085938 22.78125 -12.796875 C 22.78125 -10.703125 22.453125 -8.742188 21.796875 -6.921875 C 21.285156 -5.640625 20.414062 -4.394531 19.1875 -3.1875 C 17.957031 -1.976562 16.703125 -1.15625 15.421875 -0.71875 C 14.617188 -0.425781 13.675781 -0.25 12.59375 -0.1875 C 11.519531 -0.132812 10.742188 -0.109375 10.265625 -0.109375 C 9.347656 -0.109375 8.597656 -0.164062 8.015625 -0.28125 C 5.421875 -0.820312 3.488281 -2.109375 2.21875 -4.140625 C 0.957031 -6.171875 0.328125 -8.632812 0.328125 -11.53125 C 0.328125 -11.9375 0.347656 -12.335938 0.390625 -12.734375 C 0.535156 -15.410156 1.15625 -17.625 2.25 -19.375 C 2.945312 -20.476562 3.90625 -21.453125 5.125 -22.296875 C 6.351562 -23.140625 7.644531 -23.707031 9 -24 Z M 13.34375 -17.953125 C 12.757812 -18.210938 12.171875 -18.34375 11.578125 -18.34375 C 10.921875 -18.34375 10.265625 -18.175781 9.609375 -17.84375 C 8.734375 -17.40625 8.101562 -16.742188 7.71875 -15.859375 C 7.332031 -14.984375 7.117188 -13.757812 7.078125 -12.1875 C 7.078125 -10.757812 7.242188 -9.679688 7.578125 -8.953125 C 8.054688 -7.921875 8.632812 -7.1875 9.3125 -6.75 C 9.988281 -6.3125 10.875 -6.09375 11.96875 -6.09375 C 13.175781 -6.09375 14.085938 -6.445312 14.703125 -7.15625 C 15.328125 -7.875 15.753906 -9.039062 15.984375 -10.65625 C 16.054688 -11.195312 16.09375 -11.742188 16.09375 -12.296875 C 16.09375 -13.097656 15.976562 -13.992188 15.75 -14.984375 C 15.53125 -15.972656 15.128906 -16.742188 14.546875 -17.296875 C 14.328125 -17.515625 13.925781 -17.734375 13.34375 -17.953125 Z M 13.34375 -17.953125 "/></g></g></g><g fill="#38405f" fill-opacity="1"><g transform="translate(311.297574, 342.956101)"><g><path d="M 27.84375 -24.109375 C 28.351562 -24.179688 28.84375 -24.21875 29.3125 -24.21875 C 30.34375 -24.21875 31.414062 -24.015625 32.53125 -23.609375 C 33.644531 -23.203125 34.515625 -22.503906 35.140625 -21.515625 C 35.648438 -20.710938 35.976562 -19.816406 36.125 -18.828125 C 36.269531 -17.835938 36.34375 -16.046875 36.34375 -13.453125 C 36.34375 -10.523438 36.398438 -7.890625 36.515625 -5.546875 C 36.546875 -4.671875 36.582031 -3.957031 36.625 -3.40625 C 36.625 -3.257812 36.625 -3.128906 36.625 -3.015625 C 36.625 -2.691406 36.585938 -2.4375 36.515625 -2.25 C 36.222656 -1.625 35.71875 -1.007812 35 -0.40625 C 34.289062 0.195312 33.585938 0.5 32.890625 0.5 C 32.117188 0.5 31.375 0.207031 30.65625 -0.375 C 29.945312 -0.96875 29.484375 -1.664062 29.265625 -2.46875 C 29.148438 -2.90625 29.09375 -4.441406 29.09375 -7.078125 C 29.09375 -7.703125 29.09375 -8.414062 29.09375 -9.21875 C 29.09375 -12.257812 29.070312 -14.132812 29.03125 -14.84375 C 29 -15.5625 28.894531 -16.101562 28.71875 -16.46875 C 28.238281 -17.382812 27.414062 -17.84375 26.25 -17.84375 C 24.96875 -17.84375 24.015625 -17.421875 23.390625 -16.578125 C 23.203125 -16.328125 23.085938 -15.832031 23.046875 -15.09375 C 23.015625 -14.363281 22.984375 -12.351562 22.953125 -9.0625 C 22.953125 -5.84375 22.921875 -3.921875 22.859375 -3.296875 C 22.804688 -2.671875 22.65625 -2.117188 22.40625 -1.640625 C 21.664062 -0.359375 20.675781 0.28125 19.4375 0.28125 C 18.5625 0.28125 17.738281 -0.0664062 16.96875 -0.765625 C 16.34375 -1.347656 15.960938 -2.035156 15.828125 -2.828125 C 15.703125 -3.617188 15.640625 -5.734375 15.640625 -9.171875 C 15.640625 -12.898438 15.582031 -15.140625 15.46875 -15.890625 C 15.363281 -16.640625 15.039062 -17.160156 14.5 -17.453125 C 14.164062 -17.640625 13.757812 -17.734375 13.28125 -17.734375 C 12.957031 -17.734375 12.445312 -17.664062 11.75 -17.53125 C 11.050781 -17.40625 10.519531 -17.125 10.15625 -16.6875 C 9.976562 -16.46875 9.832031 -13.90625 9.71875 -9 C 9.675781 -6.039062 9.628906 -4.128906 9.578125 -3.265625 C 9.523438 -2.410156 9.40625 -1.832031 9.21875 -1.53125 C 8.96875 -1.0625 8.59375 -0.632812 8.09375 -0.25 C 7.601562 0.132812 7.117188 0.363281 6.640625 0.4375 C 6.535156 0.4375 6.445312 0.4375 6.375 0.4375 C 5.707031 0.4375 5 0.109375 4.25 -0.546875 C 3.5 -1.203125 2.976562 -2.023438 2.6875 -3.015625 C 2.582031 -3.378906 2.53125 -4.390625 2.53125 -6.046875 C 2.53125 -6.847656 2.546875 -7.816406 2.578125 -8.953125 C 2.617188 -10.191406 2.640625 -11.34375 2.640625 -12.40625 C 2.640625 -17.570312 2.304688 -21.195312 1.640625 -23.28125 C 1.640625 -23.3125 1.640625 -23.347656 1.640625 -23.390625 C 1.640625 -23.460938 1.703125 -23.535156 1.828125 -23.609375 C 1.960938 -23.679688 2.285156 -23.773438 2.796875 -23.890625 C 3.421875 -24.035156 4.0625 -24.109375 4.71875 -24.109375 C 5.375 -24.109375 6.222656 -24.003906 7.265625 -23.796875 C 8.316406 -23.597656 9.097656 -23.207031 9.609375 -22.625 L 10 -22.1875 L 10.8125 -22.671875 C 12.207031 -23.585938 13.742188 -24.046875 15.421875 -24.046875 C 15.535156 -24.046875 16.078125 -24.023438 17.046875 -23.984375 C 18.015625 -23.953125 19.25 -23.425781 20.75 -22.40625 C 21.300781 -22 21.640625 -21.769531 21.765625 -21.71875 C 21.898438 -21.664062 21.984375 -21.640625 22.015625 -21.640625 C 22.128906 -21.640625 22.238281 -21.691406 22.34375 -21.796875 C 22.925781 -22.273438 23.765625 -22.742188 24.859375 -23.203125 C 25.960938 -23.660156 26.957031 -23.960938 27.84375 -24.109375 Z M 27.84375 -24.109375 "/></g></g></g></svg>