<svg xmlns="http://www.w3.org/2000/svg" xmlns:xlink="http://www.w3.org/1999/xlink" width="500" zoomAndPan="magnify" viewBox="0 0 375 374.999991" height="500" preserveAspectRatio="xMidYMid meet" version="1.0"><defs><g/><clipPath id="9bde244b96"><path d="M 63.507812 41 L 311.757812 41 L 311.757812 244 L 63.507812 244 Z M 63.507812 41 " clip-rule="nonzero"/></clipPath></defs><g clip-path="url(#9bde244b96)"><path fill="#004aad" d="M 173.09375 65.652344 C 173.09375 64.113281 174.347656 62.863281 175.882812 62.863281 C 177.417969 62.863281 178.667969 64.113281 178.667969 65.652344 C 178.667969 67.191406 177.417969 68.433594 175.882812 68.433594 C 174.34375 68.433594 173.09375 67.191406 173.09375 65.652344 M 173.703125 86.882812 C 173.703125 85.34375 174.960938 84.089844 176.492188 84.089844 C 178.03125 84.089844 179.28125 85.34375 179.28125 86.882812 C 179.28125 88.417969 178.03125 89.671875 176.492188 89.671875 C 174.960938 89.671875 173.703125 88.417969 173.703125 86.882812 Z M 174.359375 108.109375 C 174.359375 106.582031 175.613281 105.328125 177.148438 105.328125 C 178.683594 105.328125 179.9375 106.582031 179.9375 108.109375 C 179.9375 109.644531 178.683594 110.898438 177.148438 110.898438 C 175.613281 110.898438 174.359375 109.644531 174.359375 108.109375 Z M 201.894531 65.652344 C 201.894531 64.113281 200.648438 62.863281 199.113281 62.863281 C 197.574219 62.863281 196.316406 64.113281 196.316406 65.652344 C 196.316406 67.191406 197.574219 68.433594 199.113281 68.433594 C 200.648438 68.433594 201.894531 67.191406 201.894531 65.652344 Z M 201.289062 86.882812 C 201.289062 85.34375 200.035156 84.089844 198.496094 84.089844 C 196.960938 84.089844 195.707031 85.34375 195.707031 86.882812 C 195.707031 88.417969 196.960938 89.671875 198.496094 89.671875 C 200.035156 89.671875 201.289062 88.417969 201.289062 86.882812 Z M 200.632812 108.109375 C 200.632812 106.582031 199.375 105.328125 197.835938 105.328125 C 196.308594 105.328125 195.054688 106.582031 195.054688 108.109375 C 195.054688 109.644531 196.308594 110.898438 197.835938 110.898438 C 199.375 110.898438 200.632812 109.644531 200.632812 108.109375 Z M 198.3125 155.007812 L 197.953125 135.433594 L 177.035156 135.433594 L 176.683594 155.007812 Z M 150.089844 219.992188 C 134.550781 214.402344 82.699219 240.042969 63.59375 220.960938 C 77.472656 245.269531 133.058594 216.617188 150.089844 219.992188 Z M 224.914062 219.992188 C 240.445312 214.402344 292.296875 240.042969 311.402344 220.96875 C 297.523438 245.269531 241.9375 216.617188 224.914062 219.992188 Z M 198.699219 176.375 L 198.535156 167.398438 C 202.25 158.199219 209.640625 154.386719 218.097656 154.199219 C 240.960938 153.6875 254.320312 171.496094 277.191406 166.789062 C 280.820312 188.996094 296.445312 209.269531 307.5 217.5625 C 293.339844 200.390625 275.140625 172.929688 281.75 161.339844 C 255.773438 172.039062 244.375 148.574219 218.4375 148.765625 C 210.726562 148.828125 202.234375 151.441406 198.28125 157.136719 L 176.734375 157.136719 C 172.777344 151.433594 164.273438 148.820312 156.566406 148.765625 C 130.621094 148.574219 119.234375 172.039062 93.242188 161.339844 C 99.859375 172.941406 81.65625 200.394531 67.484375 217.5625 C 78.554688 209.261719 94.175781 188.996094 97.804688 166.789062 C 120.675781 171.492188 134.023438 153.6875 156.898438 154.199219 C 165.34375 154.394531 172.738281 158.191406 176.453125 167.34375 L 176.292969 176.375 Z M 199.082031 197.742188 L 198.738281 178.503906 L 176.253906 178.503906 L 175.902344 197.742188 Z M 199.472656 219.105469 L 199.128906 199.871094 L 175.867188 199.871094 L 175.515625 219.105469 Z M 198.710938 238.351562 C 219.632812 210.375 291.65625 265.636719 311.21875 233.203125 C 287.054688 258.964844 229.519531 209.4375 199.710938 229.277344 L 199.511719 221.238281 L 175.480469 221.238281 L 175.277344 229.246094 C 146.019531 209.515625 87.84375 259.089844 63.777344 233.203125 C 83.363281 265.691406 156.242188 210.207031 177.0625 238.484375 C 180.210938 242.757812 195.5625 242.582031 198.710938 238.351562 Z M 213.46875 102.070312 C 211.703125 101.445312 210.59375 101.515625 209.902344 102.03125 C 209.089844 102.667969 208.628906 104.464844 208.488281 106.496094 L 204.96875 106.496094 L 205.722656 88.496094 L 209.226562 88.496094 C 209.394531 90.441406 209.84375 92.152344 210.546875 92.808594 C 211.242188 93.460938 212.4375 93.652344 214.421875 92.828125 C 219.441406 90.738281 219.433594 82.691406 214.175781 80.832031 C 212.410156 80.210938 211.300781 80.277344 210.609375 80.808594 C 209.796875 81.429688 209.335938 83.230469 209.195312 85.265625 L 205.859375 85.265625 L 206.613281 67.265625 L 209.933594 67.265625 C 210.101562 69.210938 210.546875 70.925781 211.25 71.570312 C 211.945312 72.230469 213.144531 72.414062 215.128906 71.59375 C 220.148438 69.511719 220.140625 61.457031 214.882812 59.605469 C 213.117188 58.980469 212.007812 59.050781 211.324219 59.574219 C 210.511719 60.203125 210.042969 62 209.902344 64.039062 L 206.746094 64.039062 L 207.496094 46.117188 C 204.792969 45.96875 202.921875 45.132812 200.957031 44.210938 C 193.34375 40.644531 182.890625 40.058594 175.15625 43.648438 C 172.738281 44.769531 170.742188 45.9375 167.496094 46.117188 L 168.246094 64.039062 L 165.089844 64.039062 C 164.949219 62 164.484375 60.203125 163.664062 59.574219 C 162.984375 59.050781 161.871094 58.980469 160.101562 59.605469 C 154.847656 61.457031 154.84375 69.511719 159.859375 71.59375 C 161.839844 72.414062 163.039062 72.234375 163.742188 71.570312 C 164.4375 70.925781 164.886719 69.210938 165.058594 67.265625 L 168.375 67.265625 L 169.132812 85.265625 L 165.796875 85.265625 C 165.65625 83.230469 165.191406 81.433594 164.371094 80.808594 C 163.691406 80.277344 162.578125 80.210938 160.808594 80.832031 C 155.558594 82.691406 155.542969 90.738281 160.566406 92.828125 C 162.546875 93.652344 163.746094 93.460938 164.449219 92.808594 C 165.144531 92.152344 165.59375 90.441406 165.765625 88.496094 L 169.265625 88.496094 L 170.019531 106.496094 L 166.503906 106.496094 C 166.363281 104.464844 165.898438 102.667969 165.078125 102.03125 C 164.398438 101.515625 163.289062 101.445312 161.515625 102.070312 C 156.257812 103.921875 156.253906 111.976562 161.277344 114.058594 C 163.257812 114.878906 164.453125 114.6875 165.15625 114.035156 C 165.851562 113.382812 166.300781 111.667969 166.476562 109.730469 L 170.15625 109.730469 L 170.46875 117.277344 C 175.53125 123.042969 175.609375 126.949219 175.605469 132.613281 L 199.386719 132.613281 C 199.371094 126.949219 199.457031 123.042969 204.515625 117.277344 L 204.832031 109.730469 L 208.519531 109.730469 C 208.6875 111.667969 209.132812 113.382812 209.832031 114.035156 C 210.53125 114.6875 211.730469 114.882812 213.714844 114.058594 C 218.726562 111.976562 218.726562 103.921875 213.46875 102.070312 Z M 213.46875 102.070312 " fill-opacity="1" fill-rule="evenodd"/></g><path fill="#004aad" d="M 146.933594 119.800781 L 150.632812 126.722656 L 158.363281 125.339844 C 158.929688 125.238281 159.328125 125.992188 158.929688 126.410156 L 153.496094 132.066406 L 157.195312 138.992188 C 157.464844 139.488281 156.875 140.105469 156.359375 139.859375 L 149.296875 136.429688 L 143.855469 142.097656 C 143.460938 142.503906 142.695312 142.132812 142.773438 141.566406 L 143.84375 133.796875 L 136.78125 130.367188 C 136.265625 130.113281 136.382812 129.277344 136.945312 129.175781 L 144.675781 127.792969 L 145.746094 120.015625 C 145.824219 119.445312 146.664062 119.300781 146.933594 119.800781 " fill-opacity="1" fill-rule="evenodd"/><path fill="#004aad" d="M 228.058594 119.800781 L 224.359375 126.722656 L 216.636719 125.339844 C 216.066406 125.238281 215.667969 125.992188 216.066406 126.410156 L 221.507812 132.066406 L 217.804688 138.992188 C 217.527344 139.488281 218.128906 140.105469 218.636719 139.859375 L 225.707031 136.429688 L 231.148438 142.097656 C 231.53125 142.503906 232.300781 142.132812 232.222656 141.566406 L 231.148438 133.796875 L 238.21875 130.367188 C 238.734375 130.113281 238.617188 129.277344 238.050781 129.175781 L 230.328125 127.792969 L 229.25 120.015625 C 229.171875 119.445312 228.332031 119.300781 228.058594 119.800781 " fill-opacity="1" fill-rule="evenodd"/><g fill="#38405f" fill-opacity="1"><g transform="translate(8.105218, 312.645447)"><g><path d="M 13.4375 -28.90625 C 13.75 -28.96875 14.132812 -29 14.59375 -29 C 15.050781 -29 15.734375 -28.957031 16.640625 -28.875 C 17.546875 -28.800781 18.304688 -28.675781 18.921875 -28.5 C 20.054688 -28.1875 20.984375 -27.757812 21.703125 -27.21875 C 22.421875 -26.6875 22.84375 -26.128906 22.96875 -25.546875 C 23 -25.421875 23.015625 -25.285156 23.015625 -25.140625 C 23.015625 -24.640625 22.90625 -23.929688 22.6875 -23.015625 C 22.476562 -22.097656 22.25 -21.640625 22 -21.640625 C 21.90625 -21.640625 21.644531 -21.757812 21.21875 -22 C 20.207031 -22.550781 19.039062 -22.929688 17.71875 -23.140625 C 16.40625 -23.359375 15.378906 -23.46875 14.640625 -23.46875 C 13.992188 -23.46875 13.410156 -23.410156 12.890625 -23.296875 C 11.503906 -22.953125 10.351562 -22.289062 9.4375 -21.3125 C 8.519531 -20.332031 7.890625 -19.054688 7.546875 -17.484375 C 7.390625 -16.753906 7.3125 -15.742188 7.3125 -14.453125 C 7.3125 -13.160156 7.390625 -12.117188 7.546875 -11.328125 C 7.796875 -10.097656 8.234375 -9.019531 8.859375 -8.09375 C 9.484375 -7.175781 10.242188 -6.488281 11.140625 -6.03125 C 12.398438 -5.382812 13.660156 -5.0625 14.921875 -5.0625 C 15.347656 -5.0625 16.085938 -5.160156 17.140625 -5.359375 C 18.203125 -5.554688 19.238281 -6.332031 20.25 -7.6875 C 20.625 -8.207031 20.882812 -8.484375 21.03125 -8.515625 C 21.46875 -8.515625 21.953125 -8.175781 22.484375 -7.5 C 23.023438 -6.820312 23.367188 -6.085938 23.515625 -5.296875 C 23.578125 -5.046875 23.609375 -4.800781 23.609375 -4.5625 C 23.609375 -3.695312 23.207031 -2.863281 22.40625 -2.0625 C 21.613281 -1.269531 20.265625 -0.660156 18.359375 -0.234375 C 16.890625 0.109375 15.453125 0.28125 14.046875 0.28125 C 12.992188 0.28125 11.628906 0.128906 9.953125 -0.171875 C 8.285156 -0.484375 6.75 -1.316406 5.34375 -2.671875 C 4.445312 -3.523438 3.65625 -4.671875 2.96875 -6.109375 C 2.28125 -7.554688 1.8125 -9.09375 1.5625 -10.71875 C 1.4375 -11.644531 1.375 -12.597656 1.375 -13.578125 C 1.40625 -14.835938 1.570312 -16.394531 1.875 -18.25 C 2.1875 -20.101562 2.835938 -21.816406 3.828125 -23.390625 C 4.898438 -25.046875 6.175781 -26.300781 7.65625 -27.15625 C 9.144531 -28.019531 11.070312 -28.601562 13.4375 -28.90625 Z M 13.4375 -28.90625 "/></g></g></g><g fill="#38405f" fill-opacity="1"><g transform="translate(33.100143, 312.645447)"><g><path d="M 2.203125 -29.28125 C 2.703125 -29.394531 3.347656 -29.453125 4.140625 -29.453125 C 4.941406 -29.453125 5.554688 -29.394531 5.984375 -29.28125 C 6.378906 -29.1875 6.804688 -28.941406 7.265625 -28.546875 C 7.734375 -28.140625 8.003906 -27.742188 8.078125 -27.359375 C 8.148438 -26.984375 8.1875 -26.546875 8.1875 -26.046875 C 8.1875 -25.554688 8.15625 -24.929688 8.09375 -24.171875 C 7.945312 -22.453125 7.875 -20.898438 7.875 -19.515625 L 7.875 -17.40625 L 8.703125 -18.140625 C 10.140625 -19.398438 11.75 -20.03125 13.53125 -20.03125 C 13.625 -20.03125 14.160156 -20.015625 15.140625 -19.984375 C 16.128906 -19.953125 17.144531 -19.242188 18.1875 -17.859375 C 18.550781 -17.367188 18.800781 -17.015625 18.9375 -16.796875 C 19.082031 -16.585938 19.207031 -16.085938 19.3125 -15.296875 C 19.414062 -14.515625 19.46875 -13.726562 19.46875 -12.9375 L 19.46875 -7.6875 C 19.46875 -4.375 19.414062 -2.414062 19.3125 -1.8125 C 19.207031 -1.21875 18.816406 -0.753906 18.140625 -0.421875 C 18.078125 -0.390625 18.03125 -0.359375 18 -0.328125 C 17.570312 -0.109375 17.125 0 16.65625 0 C 16.070312 0 15.492188 -0.195312 14.921875 -0.59375 C 14.578125 -0.8125 14.335938 -0.992188 14.203125 -1.140625 C 14.066406 -1.296875 13.941406 -1.628906 13.828125 -2.140625 C 13.722656 -2.648438 13.660156 -3.21875 13.640625 -3.84375 C 13.628906 -4.46875 13.625 -5.535156 13.625 -7.046875 C 13.625 -9.648438 13.578125 -11.40625 13.484375 -12.3125 C 13.390625 -13.21875 13.175781 -13.835938 12.84375 -14.171875 C 12.507812 -14.515625 12.179688 -14.691406 11.859375 -14.703125 C 11.535156 -14.722656 11.359375 -14.734375 11.328125 -14.734375 C 10.773438 -14.734375 10.207031 -14.59375 9.625 -14.3125 C 9.5625 -14.28125 9.484375 -14.234375 9.390625 -14.171875 C 8.679688 -13.835938 8.265625 -13.441406 8.140625 -12.984375 C 8.023438 -12.523438 7.953125 -11.066406 7.921875 -8.609375 C 7.921875 -8.210938 7.90625 -7.890625 7.875 -7.640625 C 7.84375 -5.304688 7.800781 -3.785156 7.75 -3.078125 C 7.707031 -2.378906 7.625 -1.90625 7.5 -1.65625 C 7.164062 -1.070312 6.742188 -0.648438 6.234375 -0.390625 C 5.734375 -0.128906 5.28125 0 4.875 0 C 4.726562 0 4.578125 -0.015625 4.421875 -0.046875 C 4.109375 -0.140625 3.769531 -0.347656 3.40625 -0.671875 C 3.039062 -0.992188 2.71875 -1.351562 2.4375 -1.75 L 2.03125 -2.390625 L 1.9375 -14.265625 C 1.875 -22.242188 1.75 -26.648438 1.5625 -27.484375 C 1.4375 -28.191406 1.375 -28.632812 1.375 -28.8125 C 1.375 -28.90625 1.375 -28.953125 1.375 -28.953125 C 1.46875 -29.046875 1.742188 -29.15625 2.203125 -29.28125 Z M 2.203125 -29.28125 "/></g></g></g><g fill="#38405f" fill-opacity="1"><g transform="translate(53.952261, 312.645447)"><g><path d="M 7.546875 -20.109375 C 8.347656 -20.265625 9.222656 -20.34375 10.171875 -20.34375 C 10.234375 -20.34375 10.296875 -20.34375 10.359375 -20.34375 C 12.992188 -20.34375 15.070312 -19.585938 16.59375 -18.078125 C 18.113281 -16.578125 18.953125 -14.375 19.109375 -11.46875 C 19.109375 -11.21875 19.109375 -10.96875 19.109375 -10.71875 C 19.109375 -8.96875 18.832031 -7.328125 18.28125 -5.796875 C 17.84375 -4.722656 17.109375 -3.679688 16.078125 -2.671875 C 15.054688 -1.660156 14.007812 -0.96875 12.9375 -0.59375 C 12.257812 -0.351562 11.46875 -0.207031 10.5625 -0.15625 C 9.65625 -0.113281 9.003906 -0.09375 8.609375 -0.09375 C 7.835938 -0.09375 7.207031 -0.140625 6.71875 -0.234375 C 4.539062 -0.691406 2.921875 -1.769531 1.859375 -3.46875 C 0.804688 -5.175781 0.28125 -7.242188 0.28125 -9.671875 C 0.28125 -10.003906 0.296875 -10.335938 0.328125 -10.671875 C 0.441406 -12.921875 0.960938 -14.78125 1.890625 -16.25 C 2.472656 -17.164062 3.273438 -17.976562 4.296875 -18.6875 C 5.328125 -19.394531 6.410156 -19.867188 7.546875 -20.109375 Z M 11.1875 -15.046875 C 10.695312 -15.265625 10.207031 -15.375 9.71875 -15.375 C 9.164062 -15.375 8.613281 -15.234375 8.0625 -14.953125 C 7.320312 -14.585938 6.789062 -14.035156 6.46875 -13.296875 C 6.144531 -12.566406 5.96875 -11.539062 5.9375 -10.21875 C 5.9375 -9.019531 6.078125 -8.113281 6.359375 -7.5 C 6.753906 -6.644531 7.234375 -6.03125 7.796875 -5.65625 C 8.367188 -5.289062 9.113281 -5.109375 10.03125 -5.109375 C 11.039062 -5.109375 11.804688 -5.40625 12.328125 -6 C 12.859375 -6.601562 13.210938 -7.582031 13.390625 -8.9375 C 13.453125 -9.394531 13.484375 -9.851562 13.484375 -10.3125 C 13.484375 -10.988281 13.390625 -11.738281 13.203125 -12.5625 C 13.023438 -13.394531 12.691406 -14.039062 12.203125 -14.5 C 12.015625 -14.6875 11.675781 -14.867188 11.1875 -15.046875 Z M 11.1875 -15.046875 "/></g></g></g><g fill="#38405f" fill-opacity="1"><g transform="translate(73.423444, 312.645447)"><g><path d="M 13.53125 -20.578125 C 13.84375 -20.640625 14.164062 -20.671875 14.5 -20.671875 C 14.78125 -20.671875 15.164062 -20.640625 15.65625 -20.578125 C 16.144531 -20.515625 16.570312 -20.375 16.9375 -20.15625 C 17.394531 -19.914062 17.75 -19.535156 18 -19.015625 C 18.1875 -18.640625 18.285156 -18.40625 18.296875 -18.3125 C 18.316406 -18.226562 18.328125 -18.171875 18.328125 -18.140625 C 18.328125 -17.953125 18.28125 -17.707031 18.1875 -17.40625 C 18.0625 -16.9375 17.859375 -16.492188 17.578125 -16.078125 C 17.304688 -15.671875 17.03125 -15.390625 16.75 -15.234375 C 16.664062 -15.171875 16.515625 -15.140625 16.296875 -15.140625 C 15.984375 -15.140625 15.597656 -15.1875 15.140625 -15.28125 C 14.492188 -15.40625 13.878906 -15.46875 13.296875 -15.46875 C 11.492188 -15.46875 10.238281 -14.898438 9.53125 -13.765625 C 9.070312 -13.054688 8.765625 -12.34375 8.609375 -11.625 C 8.453125 -10.90625 8.34375 -9.484375 8.28125 -7.359375 C 8.15625 -4.109375 8.066406 -2.316406 8.015625 -1.984375 C 7.796875 -0.878906 7.300781 -0.140625 6.53125 0.234375 C 6.070312 0.441406 5.644531 0.546875 5.25 0.546875 C 4.539062 0.546875 3.878906 0.238281 3.265625 -0.375 C 2.804688 -0.863281 2.515625 -1.515625 2.390625 -2.328125 C 2.265625 -3.140625 2.203125 -5.382812 2.203125 -9.0625 C 2.203125 -14.34375 2.019531 -17.75 1.65625 -19.28125 L 1.375 -20.15625 L 2.34375 -20.390625 C 2.769531 -20.484375 3.1875 -20.53125 3.59375 -20.53125 C 4.507812 -20.53125 5.382812 -20.316406 6.21875 -19.890625 C 7.289062 -19.367188 7.890625 -18.523438 8.015625 -17.359375 L 8.09375 -16.4375 L 8.796875 -17.453125 C 9.347656 -18.210938 10.046875 -18.867188 10.890625 -19.421875 C 11.734375 -19.972656 12.613281 -20.359375 13.53125 -20.578125 Z M 13.53125 -20.578125 "/></g></g></g><g fill="#38405f" fill-opacity="1"><g transform="translate(91.927978, 312.645447)"><g><path d="M 14.59375 -29.875 C 14.957031 -29.90625 15.328125 -29.921875 15.703125 -29.921875 C 16.398438 -29.921875 17.191406 -29.828125 18.078125 -29.640625 C 18.972656 -29.460938 19.664062 -29.15625 20.15625 -28.71875 C 20.5625 -28.382812 20.785156 -28.128906 20.828125 -27.953125 C 20.867188 -27.785156 20.890625 -27.660156 20.890625 -27.578125 C 20.890625 -27.359375 20.816406 -27.050781 20.671875 -26.65625 C 20.515625 -26.25 20.421875 -25.398438 20.390625 -24.109375 C 20.359375 -22.828125 20.328125 -19.378906 20.296875 -13.765625 C 20.296875 -8.085938 20.28125 -4.640625 20.25 -3.421875 C 20.21875 -2.210938 20.128906 -1.472656 19.984375 -1.203125 C 19.734375 -0.796875 19.367188 -0.46875 18.890625 -0.21875 C 18.421875 0.0195312 18.015625 0.140625 17.671875 0.140625 C 17.546875 0.140625 17.359375 0.113281 17.109375 0.0625 C 16.867188 0.0195312 16.519531 -0.148438 16.0625 -0.453125 C 15.601562 -0.765625 15.265625 -1.085938 15.046875 -1.421875 L 14.734375 -1.984375 L 14.40625 -1.609375 C 14.25 -1.390625 13.726562 -1.050781 12.84375 -0.59375 C 11.519531 0.0507812 10.242188 0.375 9.015625 0.375 C 7.910156 0.375 6.550781 -0.03125 4.9375 -0.84375 C 3.332031 -1.664062 2.238281 -3.457031 1.65625 -6.21875 C 1.46875 -7.101562 1.375 -8.035156 1.375 -9.015625 C 1.375 -9.515625 1.421875 -10.273438 1.515625 -11.296875 C 1.609375 -12.328125 1.898438 -13.347656 2.390625 -14.359375 C 2.734375 -15.035156 3.328125 -15.796875 4.171875 -16.640625 C 5.015625 -17.484375 5.753906 -18.054688 6.390625 -18.359375 C 7.441406 -18.859375 8.347656 -19.117188 9.109375 -19.140625 C 9.878906 -19.171875 10.34375 -19.1875 10.5 -19.1875 C 11.632812 -19.1875 12.582031 -19.019531 13.34375 -18.6875 C 13.894531 -18.445312 14.203125 -18.328125 14.265625 -18.328125 C 14.296875 -18.328125 14.3125 -19 14.3125 -20.34375 C 14.3125 -21.019531 14.3125 -21.863281 14.3125 -22.875 C 14.25 -24.875 14.191406 -26.191406 14.140625 -26.828125 C 14.097656 -27.472656 14.003906 -28.046875 13.859375 -28.546875 C 13.703125 -29.035156 13.625 -29.351562 13.625 -29.5 C 13.625 -29.5625 13.640625 -29.628906 13.671875 -29.703125 C 13.703125 -29.785156 14.007812 -29.84375 14.59375 -29.875 Z M 13.390625 -13.90625 C 12.773438 -14.113281 12.132812 -14.21875 11.46875 -14.21875 C 11.4375 -14.21875 11.21875 -14.207031 10.8125 -14.1875 C 10.414062 -14.175781 9.988281 -14.066406 9.53125 -13.859375 C 8.726562 -13.484375 8.132812 -12.894531 7.75 -12.09375 C 7.375 -11.300781 7.1875 -10.414062 7.1875 -9.4375 C 7.1875 -9.28125 7.1875 -9.125 7.1875 -8.96875 C 7.238281 -7.71875 7.554688 -6.726562 8.140625 -6 C 8.722656 -5.28125 9.507812 -4.859375 10.5 -4.734375 C 10.644531 -4.703125 10.796875 -4.6875 10.953125 -4.6875 C 11.898438 -4.6875 12.804688 -5.117188 13.671875 -5.984375 L 14.3125 -6.671875 L 14.3125 -13.625 Z M 13.390625 -13.90625 "/></g></g></g><g fill="#38405f" fill-opacity="1"><g transform="translate(114.207071, 312.645447)"><g><path d="M 6.859375 -20.296875 C 7.503906 -20.453125 8.460938 -20.53125 9.734375 -20.53125 C 11.003906 -20.53125 11.992188 -20.453125 12.703125 -20.296875 C 13.410156 -20.117188 14.070312 -19.882812 14.6875 -19.59375 C 15.300781 -19.300781 15.695312 -19.015625 15.875 -18.734375 C 16.0625 -18.460938 16.15625 -18.140625 16.15625 -17.765625 C 16.15625 -17.523438 16.09375 -17.148438 15.96875 -16.640625 C 15.84375 -16.128906 15.519531 -15.644531 15 -15.1875 L 14.59375 -14.78125 L 13.859375 -15.234375 C 13.054688 -15.785156 12.253906 -16.144531 11.453125 -16.3125 C 10.660156 -16.488281 10.050781 -16.578125 9.625 -16.578125 C 9.21875 -16.578125 8.863281 -16.53125 8.5625 -16.4375 C 7.882812 -16.21875 7.546875 -15.722656 7.546875 -14.953125 C 7.546875 -14.554688 7.738281 -14.210938 8.125 -13.921875 C 8.507812 -13.628906 9.207031 -13.316406 10.21875 -12.984375 C 12.332031 -12.273438 13.832031 -11.648438 14.71875 -11.109375 C 15.613281 -10.578125 16.257812 -9.894531 16.65625 -9.0625 C 17 -8.394531 17.171875 -7.550781 17.171875 -6.53125 C 17.171875 -5.644531 17.054688 -4.914062 16.828125 -4.34375 C 16.597656 -3.78125 16.175781 -3.144531 15.5625 -2.4375 C 14.332031 -1.0625 13.039062 -0.296875 11.6875 -0.140625 C 10.34375 0.015625 9.4375 0.09375 8.96875 0.09375 C 7.25 0.09375 5.59375 -0.289062 4 -1.0625 C 2.25 -1.914062 1.375 -2.972656 1.375 -4.234375 C 1.375 -4.421875 1.390625 -4.617188 1.421875 -4.828125 C 1.515625 -5.296875 1.65625 -5.757812 1.84375 -6.21875 C 2.03125 -6.675781 2.179688 -6.90625 2.296875 -6.90625 C 2.390625 -6.90625 2.925781 -6.597656 3.90625 -5.984375 C 5.164062 -5.179688 6.25 -4.671875 7.15625 -4.453125 C 8.0625 -4.242188 8.742188 -4.140625 9.203125 -4.140625 C 9.753906 -4.140625 10.21875 -4.25 10.59375 -4.46875 C 10.863281 -4.613281 11.050781 -4.78125 11.15625 -4.96875 C 11.269531 -5.15625 11.328125 -5.460938 11.328125 -5.890625 C 11.328125 -6.316406 11.109375 -6.679688 10.671875 -6.984375 C 10.242188 -7.296875 9.398438 -7.679688 8.140625 -8.140625 C 6.085938 -8.878906 4.617188 -9.570312 3.734375 -10.21875 C 2.710938 -10.988281 2.035156 -12.046875 1.703125 -13.390625 C 1.578125 -13.828125 1.515625 -14.242188 1.515625 -14.640625 C 1.515625 -15.648438 1.9375 -16.710938 2.78125 -17.828125 C 3.625 -18.953125 4.984375 -19.773438 6.859375 -20.296875 Z M 6.859375 -20.296875 "/></g></g></g><g fill="#38405f" fill-opacity="1"><g transform="translate(132.757634, 312.645447)"><g><path d="M 12.421875 -28.90625 C 12.796875 -28.96875 13.335938 -29 14.046875 -29 C 14.503906 -29 15.039062 -28.984375 15.65625 -28.953125 C 17.25 -28.921875 18.519531 -28.753906 19.46875 -28.453125 C 21.34375 -27.835938 22.867188 -26.847656 24.046875 -25.484375 C 25.234375 -24.117188 26.132812 -22.253906 26.75 -19.890625 C 27.019531 -18.847656 27.171875 -17.757812 27.203125 -16.625 C 27.234375 -15.488281 27.25 -14.765625 27.25 -14.453125 C 27.25 -12.921875 27.140625 -11.675781 26.921875 -10.71875 C 25.941406 -5.96875 23.828125 -2.765625 20.578125 -1.109375 C 19.628906 -0.648438 18.660156 -0.328125 17.671875 -0.140625 C 16.691406 0.046875 15.421875 0.140625 13.859375 0.140625 C 12.441406 0.140625 11.300781 0.0546875 10.4375 -0.109375 C 9.582031 -0.285156 8.679688 -0.601562 7.734375 -1.0625 C 6.347656 -1.769531 5.140625 -2.828125 4.109375 -4.234375 C 3.085938 -5.648438 2.347656 -7.289062 1.890625 -9.15625 C 1.609375 -10.320312 1.453125 -11.363281 1.421875 -12.28125 C 1.390625 -13.207031 1.375 -13.78125 1.375 -14 C 1.375 -15.34375 1.5 -16.519531 1.75 -17.53125 C 3.101562 -24.164062 6.660156 -27.957031 12.421875 -28.90625 Z M 17.171875 -23.109375 C 16.367188 -23.472656 15.523438 -23.65625 14.640625 -23.65625 C 14.421875 -23.65625 13.972656 -23.625 13.296875 -23.5625 C 12.628906 -23.5 11.894531 -23.175781 11.09375 -22.59375 C 9.21875 -21.25 8.28125 -18.425781 8.28125 -14.125 C 8.3125 -11.800781 8.679688 -9.898438 9.390625 -8.421875 C 10.222656 -6.828125 11.207031 -5.882812 12.34375 -5.59375 C 13.476562 -5.300781 14.289062 -5.15625 14.78125 -5.15625 C 15.914062 -5.15625 16.972656 -5.523438 17.953125 -6.265625 C 18.773438 -6.910156 19.425781 -7.972656 19.90625 -9.453125 C 20.382812 -10.941406 20.625 -12.671875 20.625 -14.640625 C 20.59375 -19.304688 19.441406 -22.128906 17.171875 -23.109375 Z M 17.171875 -23.109375 "/></g></g></g><g fill="#38405f" fill-opacity="1"><g transform="translate(161.389022, 312.645447)"><g><path d="M 8.375 -28.71875 C 9.113281 -29.09375 9.710938 -29.332031 10.171875 -29.4375 C 10.628906 -29.539062 11.195312 -29.59375 11.875 -29.59375 C 12.207031 -29.59375 12.578125 -29.578125 12.984375 -29.546875 C 14.273438 -29.515625 15.21875 -29.34375 15.8125 -29.03125 C 16.40625 -28.726562 16.8125 -28.226562 17.03125 -27.53125 C 17.0625 -27.46875 17.078125 -27.390625 17.078125 -27.296875 C 17.078125 -27.046875 17 -26.644531 16.84375 -26.09375 C 16.695312 -25.539062 16.5 -25.066406 16.25 -24.671875 L 15.875 -24.078125 L 14.640625 -24.53125 C 13.960938 -24.78125 13.347656 -24.90625 12.796875 -24.90625 C 11.785156 -24.90625 11.066406 -24.441406 10.640625 -23.515625 C 10.390625 -23.054688 10.234375 -22.597656 10.171875 -22.140625 L 10.03125 -20.53125 L 13.171875 -20.4375 C 13.960938 -20.4375 14.535156 -20.421875 14.890625 -20.390625 C 15.242188 -20.359375 15.585938 -20.328125 15.921875 -20.296875 C 16.265625 -20.265625 16.472656 -20.179688 16.546875 -20.046875 C 16.617188 -19.910156 16.671875 -19.765625 16.703125 -19.609375 C 16.734375 -19.453125 16.75 -19.207031 16.75 -18.875 C 16.75 -17.925781 16.335938 -17.144531 15.515625 -16.53125 C 14.898438 -16.03125 13.59375 -15.78125 11.59375 -15.78125 L 10.125 -15.78125 L 10.125 -12.203125 C 10.125 -10.234375 10.0625 -7.960938 9.9375 -5.390625 C 9.84375 -3.609375 9.695312 -2.335938 9.5 -1.578125 C 9.300781 -0.828125 8.957031 -0.191406 8.46875 0.328125 C 8.070312 0.722656 7.628906 0.921875 7.140625 0.921875 C 6.242188 0.921875 5.535156 0.382812 5.015625 -0.6875 C 4.828125 -1.082031 4.710938 -1.617188 4.671875 -2.296875 C 4.628906 -2.972656 4.59375 -5.09375 4.5625 -8.65625 L 4.515625 -15.78125 L 3.859375 -15.828125 C 3.003906 -15.890625 2.421875 -15.941406 2.109375 -15.984375 C 1.804688 -16.035156 1.53125 -16.140625 1.28125 -16.296875 C 0.976562 -16.535156 0.65625 -16.960938 0.3125 -17.578125 C -0.0195312 -18.191406 -0.234375 -18.773438 -0.328125 -19.328125 L -0.421875 -20.0625 L 0.28125 -20.15625 C 0.738281 -20.25 1.78125 -20.296875 3.40625 -20.296875 L 4.46875 -20.296875 L 4.609375 -22.59375 C 4.660156 -23.675781 4.832031 -24.640625 5.125 -25.484375 C 5.414062 -26.328125 5.914062 -27.054688 6.625 -27.671875 C 7.03125 -28.003906 7.613281 -28.351562 8.375 -28.71875 Z M 8.375 -28.71875 "/></g></g></g><g fill="#38405f" fill-opacity="1"><g transform="translate(178.512621, 312.645447)"><g><path d="M 9.015625 -28.40625 C 9.566406 -28.519531 10.335938 -28.578125 11.328125 -28.578125 C 11.628906 -28.578125 12.21875 -28.5625 13.09375 -28.53125 C 13.96875 -28.507812 14.804688 -28.40625 15.609375 -28.21875 C 16.398438 -28 17.15625 -27.695312 17.875 -27.3125 C 18.601562 -26.9375 19.070312 -26.59375 19.28125 -26.28125 C 19.5625 -25.882812 19.734375 -25.300781 19.796875 -24.53125 C 19.796875 -24.4375 19.796875 -24.359375 19.796875 -24.296875 C 19.796875 -23.628906 19.671875 -23.109375 19.421875 -22.734375 C 19.085938 -22.210938 18.8125 -21.941406 18.59375 -21.921875 C 18.382812 -21.910156 18.265625 -21.90625 18.234375 -21.90625 C 17.796875 -21.90625 17.085938 -22.109375 16.109375 -22.515625 C 14.640625 -23.097656 13.585938 -23.425781 12.953125 -23.5 C 12.328125 -23.570312 11.875 -23.609375 11.59375 -23.609375 C 10.925781 -23.609375 10.285156 -23.503906 9.671875 -23.296875 C 8.535156 -22.921875 7.96875 -22.109375 7.96875 -20.859375 C 7.96875 -20.453125 8.003906 -20.164062 8.078125 -20 C 8.148438 -19.832031 8.359375 -19.5625 8.703125 -19.1875 C 9.253906 -18.695312 10.539062 -18.054688 12.5625 -17.265625 C 14.3125 -16.554688 15.597656 -15.976562 16.421875 -15.53125 C 17.253906 -15.09375 17.976562 -14.566406 18.59375 -13.953125 C 19.632812 -12.898438 20.296875 -11.515625 20.578125 -9.796875 C 20.640625 -9.273438 20.671875 -8.769531 20.671875 -8.28125 C 20.671875 -6.101562 19.960938 -4.25 18.546875 -2.71875 C 17.566406 -1.675781 16.25 -0.921875 14.59375 -0.453125 C 13.757812 -0.242188 12.351562 -0.140625 10.375 -0.140625 C 8.394531 -0.140625 6.945312 -0.242188 6.03125 -0.453125 C 4.1875 -0.953125 2.851562 -1.628906 2.03125 -2.484375 C 1.71875 -2.796875 1.53125 -3.039062 1.46875 -3.21875 C 1.40625 -3.40625 1.375 -3.773438 1.375 -4.328125 C 1.375 -4.878906 1.5 -5.648438 1.75 -6.640625 C 2 -7.640625 2.164062 -8.140625 2.25 -8.140625 C 2.34375 -8.140625 3.035156 -7.820312 4.328125 -7.1875 C 5.765625 -6.445312 6.921875 -5.9375 7.796875 -5.65625 C 8.671875 -5.382812 9.601562 -5.21875 10.59375 -5.15625 C 10.800781 -5.15625 11 -5.15625 11.1875 -5.15625 C 11.957031 -5.15625 12.570312 -5.25 13.03125 -5.4375 C 13.851562 -5.800781 14.300781 -6.25 14.375 -6.78125 C 14.457031 -7.320312 14.5 -7.671875 14.5 -7.828125 C 14.5 -8.566406 14.222656 -9.195312 13.671875 -9.71875 C 13.210938 -10.113281 12.722656 -10.445312 12.203125 -10.71875 C 11.679688 -11 10.804688 -11.367188 9.578125 -11.828125 C 6.628906 -12.929688 4.617188 -14.050781 3.546875 -15.1875 C 2.835938 -15.957031 2.359375 -16.6875 2.109375 -17.375 C 1.867188 -18.0625 1.75 -19.035156 1.75 -20.296875 C 1.75 -21.222656 1.769531 -21.835938 1.8125 -22.140625 C 1.863281 -22.441406 2.023438 -22.882812 2.296875 -23.46875 C 2.878906 -24.601562 3.785156 -25.625 5.015625 -26.53125 C 6.242188 -27.4375 7.578125 -28.0625 9.015625 -28.40625 Z M 9.015625 -28.40625 "/></g></g></g><g fill="#38405f" fill-opacity="1"><g transform="translate(200.56155, 312.645447)"><g><path d="M 7.546875 -20.109375 C 8.347656 -20.265625 9.222656 -20.34375 10.171875 -20.34375 C 10.234375 -20.34375 10.296875 -20.34375 10.359375 -20.34375 C 12.992188 -20.34375 15.070312 -19.585938 16.59375 -18.078125 C 18.113281 -16.578125 18.953125 -14.375 19.109375 -11.46875 C 19.109375 -11.21875 19.109375 -10.96875 19.109375 -10.71875 C 19.109375 -8.96875 18.832031 -7.328125 18.28125 -5.796875 C 17.84375 -4.722656 17.109375 -3.679688 16.078125 -2.671875 C 15.054688 -1.660156 14.007812 -0.96875 12.9375 -0.59375 C 12.257812 -0.351562 11.46875 -0.207031 10.5625 -0.15625 C 9.65625 -0.113281 9.003906 -0.09375 8.609375 -0.09375 C 7.835938 -0.09375 7.207031 -0.140625 6.71875 -0.234375 C 4.539062 -0.691406 2.921875 -1.769531 1.859375 -3.46875 C 0.804688 -5.175781 0.28125 -7.242188 0.28125 -9.671875 C 0.28125 -10.003906 0.296875 -10.335938 0.328125 -10.671875 C 0.441406 -12.921875 0.960938 -14.78125 1.890625 -16.25 C 2.472656 -17.164062 3.273438 -17.976562 4.296875 -18.6875 C 5.328125 -19.394531 6.410156 -19.867188 7.546875 -20.109375 Z M 11.1875 -15.046875 C 10.695312 -15.265625 10.207031 -15.375 9.71875 -15.375 C 9.164062 -15.375 8.613281 -15.234375 8.0625 -14.953125 C 7.320312 -14.585938 6.789062 -14.035156 6.46875 -13.296875 C 6.144531 -12.566406 5.96875 -11.539062 5.9375 -10.21875 C 5.9375 -9.019531 6.078125 -8.113281 6.359375 -7.5 C 6.753906 -6.644531 7.234375 -6.03125 7.796875 -5.65625 C 8.367188 -5.289062 9.113281 -5.109375 10.03125 -5.109375 C 11.039062 -5.109375 11.804688 -5.40625 12.328125 -6 C 12.859375 -6.601562 13.210938 -7.582031 13.390625 -8.9375 C 13.453125 -9.394531 13.484375 -9.851562 13.484375 -10.3125 C 13.484375 -10.988281 13.390625 -11.738281 13.203125 -12.5625 C 13.023438 -13.394531 12.691406 -14.039062 12.203125 -14.5 C 12.015625 -14.6875 11.675781 -14.867188 11.1875 -15.046875 Z M 11.1875 -15.046875 "/></g></g></g><g fill="#38405f" fill-opacity="1"><g transform="translate(220.032733, 312.645447)"><g><path d="M 11.78125 -20.203125 C 12.300781 -20.328125 12.929688 -20.390625 13.671875 -20.390625 C 13.828125 -20.390625 14.1875 -20.378906 14.75 -20.359375 C 15.320312 -20.347656 15.914062 -20.238281 16.53125 -20.03125 C 17.113281 -19.8125 17.753906 -19.363281 18.453125 -18.6875 C 19.222656 -17.914062 19.691406 -17.175781 19.859375 -16.46875 C 20.023438 -15.769531 20.109375 -14.253906 20.109375 -11.921875 C 20.140625 -8.296875 20.1875 -5.828125 20.25 -4.515625 C 20.28125 -3.804688 20.296875 -3.222656 20.296875 -2.765625 C 20.296875 -2.335938 20.28125 -2.015625 20.25 -1.796875 C 20.21875 -1.578125 20.082031 -1.347656 19.84375 -1.109375 C 19.164062 -0.367188 18.242188 0.046875 17.078125 0.140625 C 16.953125 0.140625 16.828125 0.140625 16.703125 0.140625 C 15.660156 0.140625 14.863281 -0.347656 14.3125 -1.328125 C 14.132812 -1.703125 14.019531 -2.164062 13.96875 -2.71875 C 13.925781 -3.269531 13.890625 -4.847656 13.859375 -7.453125 C 13.859375 -10.335938 13.832031 -12.109375 13.78125 -12.765625 C 13.738281 -13.429688 13.65625 -13.882812 13.53125 -14.125 C 13.320312 -14.5 13.09375 -14.765625 12.84375 -14.921875 C 12.625 -15.035156 12.253906 -15.09375 11.734375 -15.09375 C 11.640625 -15.09375 11.398438 -15.082031 11.015625 -15.0625 C 10.640625 -15.050781 10.265625 -14.972656 9.890625 -14.828125 C 9.859375 -14.796875 9.828125 -14.78125 9.796875 -14.78125 C 9.222656 -14.5 8.878906 -14.113281 8.765625 -13.625 C 8.660156 -13.132812 8.578125 -11.351562 8.515625 -8.28125 C 8.515625 -8.007812 8.515625 -7.796875 8.515625 -7.640625 C 8.453125 -3.984375 8.34375 -1.988281 8.1875 -1.65625 C 7.945312 -1.101562 7.582031 -0.648438 7.09375 -0.296875 C 6.601562 0.0546875 6.066406 0.234375 5.484375 0.234375 C 4.867188 0.234375 4.269531 -0.0078125 3.6875 -0.5 C 3.101562 -1 2.6875 -1.566406 2.4375 -2.203125 C 2.375 -2.515625 2.34375 -3.664062 2.34375 -5.65625 C 2.34375 -6.332031 2.34375 -7.101562 2.34375 -7.96875 C 2.34375 -8.789062 2.34375 -9.554688 2.34375 -10.265625 C 2.34375 -14.410156 2.128906 -17.21875 1.703125 -18.6875 L 1.375 -19.75 L 2.296875 -19.9375 C 2.878906 -20.082031 3.539062 -20.15625 4.28125 -20.15625 C 4.40625 -20.15625 4.53125 -20.15625 4.65625 -20.15625 C 6.15625 -20.15625 7.273438 -19.804688 8.015625 -19.109375 L 8.46875 -18.6875 L 9.625 -19.28125 C 10.351562 -19.6875 11.070312 -19.992188 11.78125 -20.203125 Z M 11.78125 -20.203125 "/></g></g></g><g fill="#38405f" fill-opacity="1"><g transform="translate(241.713403, 312.645447)"><g><path d="M 7.640625 -19.609375 C 8.035156 -19.765625 8.726562 -19.84375 9.71875 -19.84375 C 9.863281 -19.84375 10.03125 -19.84375 10.21875 -19.84375 C 11.050781 -19.8125 11.640625 -19.765625 11.984375 -19.703125 C 12.335938 -19.640625 12.773438 -19.484375 13.296875 -19.234375 C 13.878906 -18.960938 14.207031 -18.816406 14.28125 -18.796875 C 14.363281 -18.785156 14.421875 -18.78125 14.453125 -18.78125 C 14.578125 -18.78125 14.734375 -18.859375 14.921875 -19.015625 C 15.191406 -19.222656 15.523438 -19.328125 15.921875 -19.328125 C 16.203125 -19.328125 16.609375 -19.234375 17.140625 -19.046875 C 17.679688 -18.867188 18.320312 -18.378906 19.0625 -17.578125 C 19.457031 -17.148438 19.691406 -16.859375 19.765625 -16.703125 C 19.847656 -16.554688 19.890625 -16.390625 19.890625 -16.203125 C 19.890625 -16.140625 19.890625 -16.078125 19.890625 -16.015625 C 19.671875 -14.972656 19.5625 -14.4375 19.5625 -14.40625 C 19.4375 -13.757812 19.328125 -10.8125 19.234375 -5.5625 C 19.148438 -1.113281 19.03125 1.5625 18.875 2.46875 C 18.71875 3.375 18.226562 4.285156 17.40625 5.203125 C 15.800781 6.921875 13.253906 7.78125 9.765625 7.78125 C 9.484375 7.78125 9.191406 7.78125 8.890625 7.78125 C 6.554688 7.65625 4.742188 7.164062 3.453125 6.3125 C 2.378906 5.570312 1.84375 4.816406 1.84375 4.046875 C 1.84375 3.984375 1.84375 3.910156 1.84375 3.828125 C 1.90625 3.453125 2.070312 2.925781 2.34375 2.25 C 2.625 1.582031 2.828125 1.203125 2.953125 1.109375 C 2.953125 1.109375 2.960938 1.109375 2.984375 1.109375 C 3.140625 1.109375 3.570312 1.304688 4.28125 1.703125 C 5.164062 2.222656 5.953125 2.570312 6.640625 2.75 C 7.335938 2.9375 8.269531 3.03125 9.4375 3.03125 C 10.289062 3.03125 10.867188 3.007812 11.171875 2.96875 C 11.484375 2.925781 11.828125 2.8125 12.203125 2.625 C 12.929688 2.195312 13.40625 1.675781 13.625 1.0625 C 13.84375 0.445312 13.953125 -0.378906 13.953125 -1.421875 C 13.953125 -1.671875 13.953125 -1.929688 13.953125 -2.203125 L 13.90625 -3.5 L 13.21875 -3.03125 C 12.320312 -2.425781 11.425781 -2.066406 10.53125 -1.953125 C 9.644531 -1.847656 9.019531 -1.796875 8.65625 -1.796875 C 7.757812 -1.796875 6.960938 -1.929688 6.265625 -2.203125 C 4.054688 -3.097656 2.550781 -4.785156 1.75 -7.265625 C 1.53125 -7.972656 1.410156 -8.6875 1.390625 -9.40625 C 1.378906 -10.132812 1.375 -10.570312 1.375 -10.71875 C 1.375 -11.769531 1.453125 -12.613281 1.609375 -13.25 C 1.953125 -14.726562 2.660156 -16.035156 3.734375 -17.171875 C 4.804688 -18.304688 6.109375 -19.117188 7.640625 -19.609375 Z M 13.390625 -14.828125 C 12.992188 -15.035156 12.539062 -15.144531 12.03125 -15.15625 C 11.53125 -15.175781 11.234375 -15.1875 11.140625 -15.1875 C 10.304688 -15.1875 9.738281 -15.097656 9.4375 -14.921875 C 8.488281 -14.421875 7.890625 -13.738281 7.640625 -12.875 C 7.390625 -12.019531 7.265625 -11.347656 7.265625 -10.859375 C 7.265625 -10.148438 7.421875 -9.445312 7.734375 -8.75 C 8.066406 -7.914062 8.507812 -7.34375 9.0625 -7.03125 C 9.613281 -6.726562 10.125 -6.578125 10.59375 -6.578125 C 10.863281 -6.578125 11.140625 -6.625 11.421875 -6.71875 C 11.941406 -6.875 12.46875 -7.132812 13 -7.5 C 13.539062 -7.875 13.84375 -8.179688 13.90625 -8.421875 C 13.9375 -8.578125 13.953125 -9.113281 13.953125 -10.03125 C 13.953125 -10.488281 13.953125 -11.039062 13.953125 -11.6875 L 13.90625 -14.59375 Z M 13.390625 -14.828125 "/></g></g></g><g fill="#38405f" fill-opacity="1"><g transform="translate(262.97982, 312.645447)"><g><path d="M 6.859375 -20.296875 C 7.503906 -20.453125 8.460938 -20.53125 9.734375 -20.53125 C 11.003906 -20.53125 11.992188 -20.453125 12.703125 -20.296875 C 13.410156 -20.117188 14.070312 -19.882812 14.6875 -19.59375 C 15.300781 -19.300781 15.695312 -19.015625 15.875 -18.734375 C 16.0625 -18.460938 16.15625 -18.140625 16.15625 -17.765625 C 16.15625 -17.523438 16.09375 -17.148438 15.96875 -16.640625 C 15.84375 -16.128906 15.519531 -15.644531 15 -15.1875 L 14.59375 -14.78125 L 13.859375 -15.234375 C 13.054688 -15.785156 12.253906 -16.144531 11.453125 -16.3125 C 10.660156 -16.488281 10.050781 -16.578125 9.625 -16.578125 C 9.21875 -16.578125 8.863281 -16.53125 8.5625 -16.4375 C 7.882812 -16.21875 7.546875 -15.722656 7.546875 -14.953125 C 7.546875 -14.554688 7.738281 -14.210938 8.125 -13.921875 C 8.507812 -13.628906 9.207031 -13.316406 10.21875 -12.984375 C 12.332031 -12.273438 13.832031 -11.648438 14.71875 -11.109375 C 15.613281 -10.578125 16.257812 -9.894531 16.65625 -9.0625 C 17 -8.394531 17.171875 -7.550781 17.171875 -6.53125 C 17.171875 -5.644531 17.054688 -4.914062 16.828125 -4.34375 C 16.597656 -3.78125 16.175781 -3.144531 15.5625 -2.4375 C 14.332031 -1.0625 13.039062 -0.296875 11.6875 -0.140625 C 10.34375 0.015625 9.4375 0.09375 8.96875 0.09375 C 7.25 0.09375 5.59375 -0.289062 4 -1.0625 C 2.25 -1.914062 1.375 -2.972656 1.375 -4.234375 C 1.375 -4.421875 1.390625 -4.617188 1.421875 -4.828125 C 1.515625 -5.296875 1.65625 -5.757812 1.84375 -6.21875 C 2.03125 -6.675781 2.179688 -6.90625 2.296875 -6.90625 C 2.390625 -6.90625 2.925781 -6.597656 3.90625 -5.984375 C 5.164062 -5.179688 6.25 -4.671875 7.15625 -4.453125 C 8.0625 -4.242188 8.742188 -4.140625 9.203125 -4.140625 C 9.753906 -4.140625 10.21875 -4.25 10.59375 -4.46875 C 10.863281 -4.613281 11.050781 -4.78125 11.15625 -4.96875 C 11.269531 -5.15625 11.328125 -5.460938 11.328125 -5.890625 C 11.328125 -6.316406 11.109375 -6.679688 10.671875 -6.984375 C 10.242188 -7.296875 9.398438 -7.679688 8.140625 -8.140625 C 6.085938 -8.878906 4.617188 -9.570312 3.734375 -10.21875 C 2.710938 -10.988281 2.035156 -12.046875 1.703125 -13.390625 C 1.578125 -13.828125 1.515625 -14.242188 1.515625 -14.640625 C 1.515625 -15.648438 1.9375 -16.710938 2.78125 -17.828125 C 3.625 -18.953125 4.984375 -19.773438 6.859375 -20.296875 Z M 6.859375 -20.296875 "/></g></g></g><g fill="#38405f" fill-opacity="1"><g transform="translate(281.530371, 312.645447)"><g><path d="M 5.609375 -6.265625 C 5.890625 -6.347656 6.320312 -6.390625 6.90625 -6.390625 C 7.0625 -6.390625 7.210938 -6.390625 7.359375 -6.390625 C 7.910156 -6.390625 8.296875 -6.351562 8.515625 -6.28125 C 8.734375 -6.207031 8.992188 -6.046875 9.296875 -5.796875 C 10.035156 -5.210938 10.40625 -4.460938 10.40625 -3.546875 C 10.40625 -3.296875 10.375 -3.019531 10.3125 -2.71875 C 10.1875 -2.101562 10.015625 -1.640625 9.796875 -1.328125 C 9.429688 -0.742188 8.910156 -0.398438 8.234375 -0.296875 C 7.566406 -0.191406 7.09375 -0.140625 6.8125 -0.140625 C 6.101562 -0.140625 5.488281 -0.289062 4.96875 -0.59375 C 4.539062 -0.8125 4.179688 -1.179688 3.890625 -1.703125 C 3.597656 -2.222656 3.453125 -2.726562 3.453125 -3.21875 C 3.453125 -3.863281 3.648438 -4.460938 4.046875 -5.015625 C 4.453125 -5.566406 4.972656 -5.984375 5.609375 -6.265625 Z M 5.609375 -6.265625 "/></g></g></g><g fill="#38405f" fill-opacity="1"><g transform="translate(295.431783, 312.645447)"><g><path d="M 10.59375 -20.15625 C 11.289062 -20.21875 11.8125 -20.25 12.15625 -20.25 C 12.28125 -20.25 12.382812 -20.25 12.46875 -20.25 C 12.53125 -20.25 12.757812 -20.234375 13.15625 -20.203125 C 13.5625 -20.171875 13.867188 -20.140625 14.078125 -20.109375 C 14.816406 -20.054688 15.582031 -19.851562 16.375 -19.5 C 17.175781 -19.144531 17.671875 -18.78125 17.859375 -18.40625 C 18.015625 -18.101562 18.097656 -17.8125 18.109375 -17.53125 C 18.128906 -17.257812 18.140625 -17.109375 18.140625 -17.078125 C 18.140625 -16.617188 18.0625 -16.265625 17.90625 -16.015625 C 17.539062 -15.285156 17.097656 -14.8125 16.578125 -14.59375 C 16.515625 -14.5625 16.4375 -14.546875 16.34375 -14.546875 C 16 -14.546875 15.414062 -14.679688 14.59375 -14.953125 C 13.644531 -15.328125 12.738281 -15.515625 11.875 -15.515625 C 11.257812 -15.515625 10.488281 -15.351562 9.5625 -15.03125 C 8.644531 -14.707031 7.957031 -13.851562 7.5 -12.46875 C 7.34375 -12.007812 7.265625 -11.410156 7.265625 -10.671875 C 7.265625 -10.492188 7.28125 -10.101562 7.3125 -9.5 C 7.34375 -8.90625 7.484375 -8.300781 7.734375 -7.6875 C 8.441406 -5.75 9.851562 -4.78125 11.96875 -4.78125 C 12.15625 -4.78125 12.335938 -4.78125 12.515625 -4.78125 C 13.835938 -4.90625 15.21875 -5.597656 16.65625 -6.859375 L 17.71875 -7.78125 L 18 -7.09375 C 18.300781 -6.320312 18.453125 -5.597656 18.453125 -4.921875 C 18.453125 -4.554688 18.410156 -4.203125 18.328125 -3.859375 C 18.203125 -3.367188 17.863281 -2.835938 17.3125 -2.265625 C 16.757812 -1.703125 16.175781 -1.269531 15.5625 -0.96875 C 14.601562 -0.539062 13.65625 -0.285156 12.71875 -0.203125 C 11.789062 -0.128906 11.109375 -0.09375 10.671875 -0.09375 C 9.785156 -0.09375 8.941406 -0.171875 8.140625 -0.328125 C 6.796875 -0.597656 5.691406 -1.085938 4.828125 -1.796875 C 3.972656 -2.503906 3.222656 -3.515625 2.578125 -4.828125 C 1.773438 -6.429688 1.375 -8.101562 1.375 -9.84375 C 1.40625 -12.644531 2.253906 -14.992188 3.921875 -16.890625 C 5.597656 -18.796875 7.820312 -19.882812 10.59375 -20.15625 Z M 10.59375 -20.15625 "/></g></g></g><g fill="#38405f" fill-opacity="1"><g transform="translate(315.271214, 312.645447)"><g><path d="M 7.546875 -20.109375 C 8.347656 -20.265625 9.222656 -20.34375 10.171875 -20.34375 C 10.234375 -20.34375 10.296875 -20.34375 10.359375 -20.34375 C 12.992188 -20.34375 15.070312 -19.585938 16.59375 -18.078125 C 18.113281 -16.578125 18.953125 -14.375 19.109375 -11.46875 C 19.109375 -11.21875 19.109375 -10.96875 19.109375 -10.71875 C 19.109375 -8.96875 18.832031 -7.328125 18.28125 -5.796875 C 17.84375 -4.722656 17.109375 -3.679688 16.078125 -2.671875 C 15.054688 -1.660156 14.007812 -0.96875 12.9375 -0.59375 C 12.257812 -0.351562 11.46875 -0.207031 10.5625 -0.15625 C 9.65625 -0.113281 9.003906 -0.09375 8.609375 -0.09375 C 7.835938 -0.09375 7.207031 -0.140625 6.71875 -0.234375 C 4.539062 -0.691406 2.921875 -1.769531 1.859375 -3.46875 C 0.804688 -5.175781 0.28125 -7.242188 0.28125 -9.671875 C 0.28125 -10.003906 0.296875 -10.335938 0.328125 -10.671875 C 0.441406 -12.921875 0.960938 -14.78125 1.890625 -16.25 C 2.472656 -17.164062 3.273438 -17.976562 4.296875 -18.6875 C 5.328125 -19.394531 6.410156 -19.867188 7.546875 -20.109375 Z M 11.1875 -15.046875 C 10.695312 -15.265625 10.207031 -15.375 9.71875 -15.375 C 9.164062 -15.375 8.613281 -15.234375 8.0625 -14.953125 C 7.320312 -14.585938 6.789062 -14.035156 6.46875 -13.296875 C 6.144531 -12.566406 5.96875 -11.539062 5.9375 -10.21875 C 5.9375 -9.019531 6.078125 -8.113281 6.359375 -7.5 C 6.753906 -6.644531 7.234375 -6.03125 7.796875 -5.65625 C 8.367188 -5.289062 9.113281 -5.109375 10.03125 -5.109375 C 11.039062 -5.109375 11.804688 -5.40625 12.328125 -6 C 12.859375 -6.601562 13.210938 -7.582031 13.390625 -8.9375 C 13.453125 -9.394531 13.484375 -9.851562 13.484375 -10.3125 C 13.484375 -10.988281 13.390625 -11.738281 13.203125 -12.5625 C 13.023438 -13.394531 12.691406 -14.039062 12.203125 -14.5 C 12.015625 -14.6875 11.675781 -14.867188 11.1875 -15.046875 Z M 11.1875 -15.046875 "/></g></g></g><g fill="#38405f" fill-opacity="1"><g transform="translate(334.742396, 312.645447)"><g><path d="M 23.34375 -20.203125 C 23.769531 -20.265625 24.179688 -20.296875 24.578125 -20.296875 C 25.441406 -20.296875 26.335938 -20.125 27.265625 -19.78125 C 28.203125 -19.445312 28.929688 -18.867188 29.453125 -18.046875 C 29.890625 -17.367188 30.164062 -16.613281 30.28125 -15.78125 C 30.40625 -14.957031 30.46875 -13.457031 30.46875 -11.28125 C 30.46875 -8.820312 30.515625 -6.613281 30.609375 -4.65625 C 30.640625 -3.914062 30.671875 -3.316406 30.703125 -2.859375 C 30.703125 -2.734375 30.703125 -2.625 30.703125 -2.53125 C 30.703125 -2.257812 30.671875 -2.046875 30.609375 -1.890625 C 30.367188 -1.367188 29.945312 -0.851562 29.34375 -0.34375 C 28.75 0.164062 28.160156 0.421875 27.578125 0.421875 C 26.929688 0.421875 26.304688 0.175781 25.703125 -0.3125 C 25.109375 -0.8125 24.71875 -1.398438 24.53125 -2.078125 C 24.4375 -2.441406 24.390625 -3.726562 24.390625 -5.9375 C 24.390625 -6.457031 24.390625 -7.054688 24.390625 -7.734375 C 24.390625 -10.273438 24.375 -11.84375 24.34375 -12.4375 C 24.3125 -13.039062 24.222656 -13.5 24.078125 -13.8125 C 23.671875 -14.570312 22.976562 -14.953125 22 -14.953125 C 20.925781 -14.953125 20.128906 -14.601562 19.609375 -13.90625 C 19.453125 -13.6875 19.359375 -13.269531 19.328125 -12.65625 C 19.296875 -12.039062 19.265625 -10.351562 19.234375 -7.59375 C 19.234375 -4.894531 19.210938 -3.285156 19.171875 -2.765625 C 19.128906 -2.242188 19 -1.78125 18.78125 -1.375 C 18.164062 -0.300781 17.335938 0.234375 16.296875 0.234375 C 15.554688 0.234375 14.863281 -0.0546875 14.21875 -0.640625 C 13.695312 -1.128906 13.382812 -1.703125 13.28125 -2.359375 C 13.175781 -3.023438 13.125 -4.800781 13.125 -7.6875 C 13.125 -10.8125 13.078125 -12.6875 12.984375 -13.3125 C 12.890625 -13.945312 12.613281 -14.390625 12.15625 -14.640625 C 11.875 -14.796875 11.535156 -14.875 11.140625 -14.875 C 10.859375 -14.875 10.425781 -14.816406 9.84375 -14.703125 C 9.257812 -14.597656 8.816406 -14.363281 8.515625 -14 C 8.359375 -13.8125 8.234375 -11.660156 8.140625 -7.546875 C 8.109375 -5.066406 8.070312 -3.460938 8.03125 -2.734375 C 7.988281 -2.015625 7.890625 -1.53125 7.734375 -1.28125 C 7.515625 -0.882812 7.195312 -0.523438 6.78125 -0.203125 C 6.375 0.117188 5.96875 0.3125 5.5625 0.375 C 5.476562 0.375 5.40625 0.375 5.34375 0.375 C 4.789062 0.375 4.195312 0.0976562 3.5625 -0.453125 C 2.9375 -1.003906 2.5 -1.695312 2.25 -2.53125 C 2.164062 -2.832031 2.125 -3.675781 2.125 -5.0625 C 2.125 -5.738281 2.132812 -6.550781 2.15625 -7.5 C 2.1875 -8.539062 2.203125 -9.507812 2.203125 -10.40625 C 2.203125 -14.726562 1.925781 -17.765625 1.375 -19.515625 C 1.375 -19.546875 1.375 -19.578125 1.375 -19.609375 C 1.375 -19.671875 1.425781 -19.734375 1.53125 -19.796875 C 1.644531 -19.859375 1.914062 -19.9375 2.34375 -20.03125 C 2.863281 -20.144531 3.398438 -20.203125 3.953125 -20.203125 C 4.503906 -20.203125 5.21875 -20.117188 6.09375 -19.953125 C 6.96875 -19.785156 7.625 -19.457031 8.0625 -18.96875 L 8.375 -18.59375 L 9.0625 -19.015625 C 10.226562 -19.773438 11.519531 -20.15625 12.9375 -20.15625 C 13.03125 -20.15625 13.484375 -20.140625 14.296875 -20.109375 C 15.109375 -20.078125 16.144531 -19.632812 17.40625 -18.78125 C 17.863281 -18.445312 18.144531 -18.253906 18.25 -18.203125 C 18.351562 -18.160156 18.421875 -18.140625 18.453125 -18.140625 C 18.546875 -18.140625 18.640625 -18.1875 18.734375 -18.28125 C 19.222656 -18.675781 19.925781 -19.066406 20.84375 -19.453125 C 21.769531 -19.835938 22.601562 -20.085938 23.34375 -20.203125 Z M 23.34375 -20.203125 "/></g></g></g></svg>