<svg xmlns="http://www.w3.org/2000/svg" xmlns:xlink="http://www.w3.org/1999/xlink" width="500" zoomAndPan="magnify" viewBox="0 0 375 374.999991" height="500" preserveAspectRatio="xMidYMid meet" version="1.0"><defs><g/><clipPath id="306a16435b"><path d="M 63.507812 41 L 311.757812 41 L 311.757812 244 L 63.507812 244 Z M 63.507812 41 " clip-rule="nonzero"/></clipPath></defs><g clip-path="url(#306a16435b)"><path fill="#004aad" d="M 173.09375 65.652344 C 173.09375 64.113281 174.347656 62.863281 175.882812 62.863281 C 177.417969 62.863281 178.667969 64.113281 178.667969 65.652344 C 178.667969 67.191406 177.417969 68.433594 175.882812 68.433594 C 174.34375 68.433594 173.09375 67.191406 173.09375 65.652344 M 173.703125 86.882812 C 173.703125 85.34375 174.960938 84.089844 176.492188 84.089844 C 178.03125 84.089844 179.28125 85.34375 179.28125 86.882812 C 179.28125 88.417969 178.03125 89.671875 176.492188 89.671875 C 174.960938 89.671875 173.703125 88.417969 173.703125 86.882812 Z M 174.359375 108.109375 C 174.359375 106.582031 175.613281 105.328125 177.148438 105.328125 C 178.683594 105.328125 179.9375 106.582031 179.9375 108.109375 C 179.9375 109.644531 178.683594 110.898438 177.148438 110.898438 C 175.613281 110.898438 174.359375 109.644531 174.359375 108.109375 Z M 201.894531 65.652344 C 201.894531 64.113281 200.648438 62.863281 199.113281 62.863281 C 197.574219 62.863281 196.316406 64.113281 196.316406 65.652344 C 196.316406 67.191406 197.574219 68.433594 199.113281 68.433594 C 200.648438 68.433594 201.894531 67.191406 201.894531 65.652344 Z M 201.289062 86.882812 C 201.289062 85.34375 200.035156 84.089844 198.496094 84.089844 C 196.960938 84.089844 195.707031 85.34375 195.707031 86.882812 C 195.707031 88.417969 196.960938 89.671875 198.496094 89.671875 C 200.035156 89.671875 201.289062 88.417969 201.289062 86.882812 Z M 200.632812 108.109375 C 200.632812 106.582031 199.375 105.328125 197.835938 105.328125 C 196.308594 105.328125 195.054688 106.582031 195.054688 108.109375 C 195.054688 109.644531 196.308594 110.898438 197.835938 110.898438 C 199.375 110.898438 200.632812 109.644531 200.632812 108.109375 Z M 198.3125 155.007812 L 197.953125 135.433594 L 177.035156 135.433594 L 176.683594 155.007812 Z M 150.089844 219.992188 C 134.550781 214.402344 82.699219 240.042969 63.59375 220.960938 C 77.472656 245.269531 133.058594 216.617188 150.089844 219.992188 Z M 224.914062 219.992188 C 240.445312 214.402344 292.296875 240.042969 311.402344 220.96875 C 297.523438 245.269531 241.9375 216.617188 224.914062 219.992188 Z M 198.699219 176.375 L 198.535156 167.398438 C 202.25 158.199219 209.640625 154.386719 218.097656 154.199219 C 240.960938 153.6875 254.320312 171.496094 277.191406 166.789062 C 280.820312 188.996094 296.445312 209.269531 307.5 217.5625 C 293.339844 200.390625 275.140625 172.929688 281.75 161.339844 C 255.773438 172.039062 244.375 148.574219 218.4375 148.765625 C 210.726562 148.828125 202.234375 151.441406 198.28125 157.136719 L 176.734375 157.136719 C 172.777344 151.433594 164.273438 148.820312 156.566406 148.765625 C 130.621094 148.574219 119.234375 172.039062 93.242188 161.339844 C 99.859375 172.941406 81.65625 200.394531 67.484375 217.5625 C 78.554688 209.261719 94.175781 188.996094 97.804688 166.789062 C 120.675781 171.492188 134.023438 153.6875 156.898438 154.199219 C 165.34375 154.394531 172.738281 158.191406 176.453125 167.34375 L 176.292969 176.375 Z M 199.082031 197.742188 L 198.738281 178.503906 L 176.253906 178.503906 L 175.902344 197.742188 Z M 199.472656 219.105469 L 199.128906 199.871094 L 175.867188 199.871094 L 175.515625 219.105469 Z M 198.710938 238.351562 C 219.632812 210.375 291.65625 265.636719 311.21875 233.203125 C 287.054688 258.964844 229.519531 209.4375 199.710938 229.277344 L 199.511719 221.238281 L 175.480469 221.238281 L 175.277344 229.246094 C 146.019531 209.515625 87.84375 259.089844 63.777344 233.203125 C 83.363281 265.691406 156.242188 210.207031 177.0625 238.484375 C 180.210938 242.757812 195.5625 242.582031 198.710938 238.351562 Z M 213.46875 102.070312 C 211.703125 101.445312 210.59375 101.515625 209.902344 102.03125 C 209.089844 102.667969 208.628906 104.464844 208.488281 106.496094 L 204.96875 106.496094 L 205.722656 88.496094 L 209.226562 88.496094 C 209.394531 90.441406 209.84375 92.152344 210.546875 92.808594 C 211.242188 93.460938 212.4375 93.652344 214.421875 92.828125 C 219.441406 90.738281 219.433594 82.691406 214.175781 80.832031 C 212.410156 80.210938 211.300781 80.277344 210.609375 80.808594 C 209.796875 81.429688 209.335938 83.230469 209.195312 85.265625 L 205.859375 85.265625 L 206.613281 67.265625 L 209.933594 67.265625 C 210.101562 69.210938 210.546875 70.925781 211.25 71.570312 C 211.945312 72.230469 213.144531 72.414062 215.128906 71.59375 C 220.148438 69.511719 220.140625 61.457031 214.882812 59.605469 C 213.117188 58.980469 212.007812 59.050781 211.324219 59.574219 C 210.511719 60.203125 210.042969 62 209.902344 64.039062 L 206.746094 64.039062 L 207.496094 46.117188 C 204.792969 45.96875 202.921875 45.132812 200.957031 44.210938 C 193.34375 40.644531 182.890625 40.058594 175.15625 43.648438 C 172.738281 44.769531 170.742188 45.9375 167.496094 46.117188 L 168.246094 64.039062 L 165.089844 64.039062 C 164.949219 62 164.484375 60.203125 163.664062 59.574219 C 162.984375 59.050781 161.871094 58.980469 160.101562 59.605469 C 154.847656 61.457031 154.84375 69.511719 159.859375 71.59375 C 161.839844 72.414062 163.039062 72.234375 163.742188 71.570312 C 164.4375 70.925781 164.886719 69.210938 165.058594 67.265625 L 168.375 67.265625 L 169.132812 85.265625 L 165.796875 85.265625 C 165.65625 83.230469 165.191406 81.433594 164.371094 80.808594 C 163.691406 80.277344 162.578125 80.210938 160.808594 80.832031 C 155.558594 82.691406 155.542969 90.738281 160.566406 92.828125 C 162.546875 93.652344 163.746094 93.460938 164.449219 92.808594 C 165.144531 92.152344 165.59375 90.441406 165.765625 88.496094 L 169.265625 88.496094 L 170.019531 106.496094 L 166.503906 106.496094 C 166.363281 104.464844 165.898438 102.667969 165.078125 102.03125 C 164.398438 101.515625 163.289062 101.445312 161.515625 102.070312 C 156.257812 103.921875 156.253906 111.976562 161.277344 114.058594 C 163.257812 114.878906 164.453125 114.6875 165.15625 114.035156 C 165.851562 113.382812 166.300781 111.667969 166.476562 109.730469 L 170.15625 109.730469 L 170.46875 117.277344 C 175.53125 123.042969 175.609375 126.949219 175.605469 132.613281 L 199.386719 132.613281 C 199.371094 126.949219 199.457031 123.042969 204.515625 117.277344 L 204.832031 109.730469 L 208.519531 109.730469 C 208.6875 111.667969 209.132812 113.382812 209.832031 114.035156 C 210.53125 114.6875 211.730469 114.882812 213.714844 114.058594 C 218.726562 111.976562 218.726562 103.921875 213.46875 102.070312 Z M 213.46875 102.070312 " fill-opacity="1" fill-rule="evenodd"/></g><path fill="#004aad" d="M 146.933594 119.800781 L 150.632812 126.722656 L 158.363281 125.339844 C 158.929688 125.238281 159.328125 125.992188 158.929688 126.410156 L 153.496094 132.066406 L 157.195312 138.992188 C 157.464844 139.488281 156.875 140.105469 156.359375 139.859375 L 149.296875 136.429688 L 143.855469 142.097656 C 143.460938 142.503906 142.695312 142.132812 142.773438 141.566406 L 143.84375 133.796875 L 136.78125 130.367188 C 136.265625 130.113281 136.382812 129.277344 136.945312 129.175781 L 144.675781 127.792969 L 145.746094 120.015625 C 145.824219 119.445312 146.664062 119.300781 146.933594 119.800781 " fill-opacity="1" fill-rule="evenodd"/><path fill="#004aad" d="M 228.058594 119.800781 L 224.359375 126.722656 L 216.636719 125.339844 C 216.066406 125.238281 215.667969 125.992188 216.066406 126.410156 L 221.507812 132.066406 L 217.804688 138.992188 C 217.527344 139.488281 218.128906 140.105469 218.636719 139.859375 L 225.707031 136.429688 L 231.148438 142.097656 C 231.53125 142.503906 232.300781 142.132812 232.222656 141.566406 L 231.148438 133.796875 L 238.21875 130.367188 C 238.734375 130.113281 238.617188 129.277344 238.050781 129.175781 L 230.328125 127.792969 L 229.25 120.015625 C 229.171875 119.445312 228.332031 119.300781 228.058594 119.800781 " fill-opacity="1" fill-rule="evenodd"/><g fill="#38405f" fill-opacity="1"><g transform="translate(8.316156, 305.520215)"><g><path d="M 27.609375 -3.4375 C 27.609375 -2.550781 27.453125 -1.78125 27.140625 -1.125 C 25.953125 -1.0625 24.726562 -0.894531 23.46875 -0.625 C 22.21875 -0.363281 21.078125 -0.015625 20.046875 0.421875 C 19.503906 0.203125 19.113281 -0.0976562 18.875 -0.484375 C 18.644531 -0.878906 18.53125 -1.472656 18.53125 -2.265625 C 18.53125 -2.953125 18.625 -3.6875 18.8125 -4.46875 C 18.3125 -3.53125 17.734375 -2.765625 17.078125 -2.171875 C 16.515625 -1.503906 15.664062 -0.90625 14.53125 -0.375 C 13.40625 0.15625 12.1875 0.421875 10.875 0.421875 C 8.019531 0.421875 5.757812 -0.398438 4.09375 -2.046875 C 2.425781 -3.691406 1.59375 -6.175781 1.59375 -9.5 C 1.59375 -11.882812 2.132812 -14.023438 3.21875 -15.921875 C 4.300781 -17.816406 5.820312 -19.296875 7.78125 -20.359375 C 9.75 -21.429688 12 -21.96875 14.53125 -21.96875 C 15.726562 -21.96875 16.859375 -21.8125 17.921875 -21.5 L 17.921875 -26.109375 C 17.921875 -27.273438 17.703125 -28.097656 17.265625 -28.578125 C 16.828125 -29.066406 15.882812 -29.34375 14.4375 -29.40625 C 14.4375 -30.59375 14.609375 -31.519531 14.953125 -32.1875 C 16.523438 -32.1875 18.148438 -32.34375 19.828125 -32.65625 C 21.503906 -32.96875 22.703125 -33.328125 23.421875 -33.734375 C 24.335938 -33.359375 24.796875 -32.523438 24.796875 -31.234375 L 24.796875 -7.953125 C 24.796875 -6.878906 24.859375 -6.082031 24.984375 -5.5625 C 25.109375 -5.050781 25.363281 -4.691406 25.75 -4.484375 C 26.144531 -4.285156 26.75 -4.171875 27.5625 -4.140625 Z M 13.078125 -3.4375 C 14.429688 -3.4375 15.578125 -4.085938 16.515625 -5.390625 C 17.453125 -6.691406 17.921875 -8.691406 17.921875 -11.390625 L 17.921875 -17.546875 C 17.421875 -18.078125 16.894531 -18.472656 16.34375 -18.734375 C 15.800781 -19.003906 15.164062 -19.140625 14.4375 -19.140625 C 12.9375 -19.140625 11.601562 -18.503906 10.4375 -17.234375 C 9.28125 -15.972656 8.703125 -13.738281 8.703125 -10.53125 C 8.703125 -8.375 9.101562 -6.648438 9.90625 -5.359375 C 10.707031 -4.078125 11.765625 -3.4375 13.078125 -3.4375 Z M 13.078125 -3.4375 "/></g></g></g><g fill="#38405f" fill-opacity="1"><g transform="translate(37.10411, 305.520215)"><g><path d="M 21.078125 -5.359375 C 21.390625 -5.171875 21.660156 -4.84375 21.890625 -4.375 C 22.128906 -3.90625 22.265625 -3.421875 22.296875 -2.921875 C 21.109375 -1.785156 19.757812 -0.941406 18.25 -0.390625 C 16.75 0.148438 15.007812 0.421875 13.03125 0.421875 C 9.207031 0.421875 6.34375 -0.59375 4.4375 -2.625 C 2.539062 -4.664062 1.59375 -7.332031 1.59375 -10.625 C 1.59375 -12.851562 2.046875 -14.820312 2.953125 -16.53125 C 3.867188 -18.238281 5.15625 -19.570312 6.8125 -20.53125 C 8.476562 -21.488281 10.410156 -21.96875 12.609375 -21.96875 C 15.835938 -21.96875 18.257812 -21.066406 19.875 -19.265625 C 21.488281 -17.460938 22.359375 -15.007812 22.484375 -11.90625 C 22.296875 -10.988281 21.90625 -10.234375 21.3125 -9.640625 C 15.914062 -9.640625 11.726562 -9.5625 8.75 -9.40625 C 9.03125 -7.46875 9.6875 -5.941406 10.71875 -4.828125 C 11.757812 -3.710938 13.238281 -3.15625 15.15625 -3.15625 C 16.25 -3.15625 17.328125 -3.347656 18.390625 -3.734375 C 19.460938 -4.128906 20.359375 -4.671875 21.078125 -5.359375 Z M 12.46875 -19.046875 C 11.34375 -19.046875 10.425781 -18.488281 9.71875 -17.375 C 9.007812 -16.269531 8.625 -14.617188 8.5625 -12.421875 L 16.046875 -12.421875 C 16.046875 -14.523438 15.738281 -16.15625 15.125 -17.3125 C 14.507812 -18.46875 13.625 -19.046875 12.46875 -19.046875 Z M 12.46875 -19.046875 "/></g></g></g><g fill="#38405f" fill-opacity="1"><g transform="translate(61.235189, 305.520215)"><g><path d="M 21.03125 -21.546875 C 22.914062 -21.546875 24.46875 -21.59375 25.6875 -21.6875 C 25.6875 -20.34375 25.515625 -19.367188 25.171875 -18.765625 C 24.359375 -18.578125 23.722656 -18.21875 23.265625 -17.6875 C 22.804688 -17.15625 22.296875 -16.195312 21.734375 -14.8125 L 15.296875 -0.140625 C 14.472656 0.265625 13.421875 0.46875 12.140625 0.46875 C 11.796875 0.46875 11.53125 0.453125 11.34375 0.421875 C 10.457031 -1.710938 9.195312 -4.550781 7.5625 -8.09375 C 5.9375 -11.632812 4.703125 -14.238281 3.859375 -15.90625 C 3.328125 -16.96875 2.867188 -17.671875 2.484375 -18.015625 C 2.109375 -18.359375 1.609375 -18.609375 0.984375 -18.765625 C 0.703125 -19.617188 0.5625 -20.59375 0.5625 -21.6875 C 1.976562 -21.59375 4.082031 -21.546875 6.875 -21.546875 C 10.007812 -21.546875 12.328125 -21.59375 13.828125 -21.6875 C 13.828125 -20.75 13.671875 -19.773438 13.359375 -18.765625 C 12.515625 -18.703125 11.921875 -18.578125 11.578125 -18.390625 C 11.234375 -18.203125 11.0625 -17.921875 11.0625 -17.546875 C 11.0625 -17.109375 11.265625 -16.484375 11.671875 -15.671875 C 13.234375 -12.085938 14.425781 -9.125 15.25 -6.78125 C 16.15625 -9.15625 17.21875 -11.753906 18.4375 -14.578125 C 18.875 -15.710938 19.09375 -16.546875 19.09375 -17.078125 C 19.09375 -17.609375 18.921875 -18.003906 18.578125 -18.265625 C 18.234375 -18.535156 17.6875 -18.703125 16.9375 -18.765625 C 16.59375 -19.679688 16.421875 -20.65625 16.421875 -21.6875 C 17.640625 -21.59375 19.175781 -21.546875 21.03125 -21.546875 Z M 21.03125 -21.546875 "/></g></g></g><g fill="#38405f" fill-opacity="1"><g transform="translate(87.530071, 305.520215)"><g><path d="M 6.828125 0.421875 C 5.503906 0.421875 4.457031 0.0546875 3.6875 -0.671875 C 2.925781 -1.410156 2.546875 -2.410156 2.546875 -3.671875 C 2.546875 -4.890625 2.96875 -5.882812 3.8125 -6.65625 C 4.65625 -7.425781 5.738281 -7.8125 7.0625 -7.8125 C 8.21875 -7.8125 9.179688 -7.414062 9.953125 -6.625 C 10.722656 -5.84375 11.109375 -4.953125 11.109375 -3.953125 C 11.109375 -2.660156 10.710938 -1.609375 9.921875 -0.796875 C 9.140625 0.015625 8.109375 0.421875 6.828125 0.421875 Z M 6.828125 0.421875 "/></g></g></g><g fill="#38405f" fill-opacity="1"><g transform="translate(101.03031, 305.520215)"><g><path d="M 24.5625 -4.140625 C 24.59375 -3.953125 24.609375 -3.65625 24.609375 -3.25 C 24.609375 -2.488281 24.46875 -1.78125 24.1875 -1.125 C 21.613281 -1.03125 19.273438 -0.515625 17.171875 0.421875 C 16.640625 0.203125 16.253906 -0.113281 16.015625 -0.53125 C 15.785156 -0.957031 15.671875 -1.550781 15.671875 -2.3125 C 15.671875 -2.625 15.734375 -3.21875 15.859375 -4.09375 C 15.359375 -2.9375 14.695312 -2.023438 13.875 -1.359375 C 12.5625 -0.234375 10.726562 0.328125 8.375 0.328125 C 6.238281 0.328125 4.585938 -0.125 3.421875 -1.03125 C 2.265625 -1.945312 1.6875 -3.25 1.6875 -4.9375 C 1.6875 -7.601562 2.941406 -9.507812 5.453125 -10.65625 C 7.960938 -11.800781 11.128906 -12.640625 14.953125 -13.171875 C 14.953125 -14.554688 14.878906 -15.597656 14.734375 -16.296875 C 14.597656 -17.003906 14.328125 -17.59375 13.921875 -18.0625 C 13.234375 -18.84375 12.359375 -19.234375 11.296875 -19.234375 C 10.097656 -19.234375 9.207031 -18.734375 8.625 -17.734375 C 8.050781 -16.734375 7.703125 -15.476562 7.578125 -13.96875 C 6.660156 -13.96875 5.894531 -14 5.28125 -14.0625 C 4.675781 -14.125 4.125 -14.25 3.625 -14.4375 C 3.6875 -15.257812 3.71875 -15.921875 3.71875 -16.421875 C 3.71875 -17.734375 3.59375 -18.957031 3.34375 -20.09375 C 4.6875 -20.6875 6.210938 -21.15625 7.921875 -21.5 C 9.628906 -21.84375 11.253906 -22.015625 12.796875 -22.015625 C 15.992188 -22.015625 18.316406 -21.296875 19.765625 -19.859375 C 20.453125 -19.160156 20.96875 -18.207031 21.3125 -17 C 21.65625 -15.800781 21.828125 -14.148438 21.828125 -12.046875 L 21.828125 -8 C 21.828125 -6.925781 21.890625 -6.128906 22.015625 -5.609375 C 22.140625 -5.097656 22.390625 -4.734375 22.765625 -4.515625 C 23.140625 -4.296875 23.738281 -4.171875 24.5625 -4.140625 Z M 14.953125 -10.625 C 12.828125 -10.25 11.226562 -9.75 10.15625 -9.125 C 9.09375 -8.5 8.5625 -7.523438 8.5625 -6.203125 C 8.5625 -5.359375 8.769531 -4.722656 9.1875 -4.296875 C 9.613281 -3.878906 10.144531 -3.671875 10.78125 -3.671875 C 11.46875 -3.671875 12.128906 -3.890625 12.765625 -4.328125 C 13.410156 -4.765625 13.9375 -5.414062 14.34375 -6.28125 C 14.75 -7.144531 14.953125 -8.1875 14.953125 -9.40625 Z M 14.953125 -10.625 "/></g></g></g><g fill="#38405f" fill-opacity="1"><g transform="translate(126.854806, 305.520215)"><g><path d="M 23.953125 -5.359375 C 24.671875 -4.421875 25.285156 -3.785156 25.796875 -3.453125 C 26.316406 -3.128906 27.019531 -2.9375 27.90625 -2.875 C 27.90625 -1.707031 27.742188 -0.75 27.421875 0 C 24.128906 0 21.59375 0.140625 19.8125 0.421875 C 18.925781 -0.890625 17.722656 -2.523438 16.203125 -4.484375 C 14.679688 -6.453125 13.15625 -8.296875 11.625 -10.015625 L 11.625 -6.875 C 11.625 -5.363281 11.796875 -4.316406 12.140625 -3.734375 C 12.484375 -3.160156 13.109375 -2.84375 14.015625 -2.78125 C 14.234375 -2.175781 14.34375 -1.203125 14.34375 0.140625 C 12.9375 0.046875 10.804688 0 7.953125 0 C 4.816406 0 2.585938 0.046875 1.265625 0.140625 C 1.265625 -1.109375 1.375 -2.082031 1.59375 -2.78125 C 2.851562 -2.84375 3.691406 -3.144531 4.109375 -3.6875 C 4.535156 -4.238281 4.75 -5.300781 4.75 -6.875 L 4.75 -26.109375 C 4.75 -27.273438 4.519531 -28.097656 4.0625 -28.578125 C 3.613281 -29.066406 2.679688 -29.34375 1.265625 -29.40625 C 1.265625 -30.59375 1.4375 -31.519531 1.78125 -32.1875 C 3.320312 -32.1875 4.9375 -32.347656 6.625 -32.671875 C 8.320312 -33.003906 9.515625 -33.359375 10.203125 -33.734375 C 11.148438 -33.359375 11.625 -32.523438 11.625 -31.234375 L 11.625 -12.28125 L 14.859375 -15.15625 C 16.398438 -16.53125 17.171875 -17.46875 17.171875 -17.96875 C 17.171875 -18.21875 17.066406 -18.40625 16.859375 -18.53125 C 16.660156 -18.65625 16.328125 -18.734375 15.859375 -18.765625 C 15.546875 -19.710938 15.390625 -20.671875 15.390625 -21.640625 C 17.453125 -21.578125 19.660156 -21.546875 22.015625 -21.546875 C 23.085938 -21.546875 24.5625 -21.578125 26.4375 -21.640625 C 26.4375 -20.484375 26.28125 -19.523438 25.96875 -18.765625 C 24.78125 -18.671875 23.769531 -18.425781 22.9375 -18.03125 C 22.101562 -17.644531 21.125 -16.9375 20 -15.90625 L 17.078125 -13.21875 C 19.148438 -11.238281 21.441406 -8.617188 23.953125 -5.359375 Z M 23.953125 -5.359375 "/></g></g></g><g fill="#38405f" fill-opacity="1"><g transform="translate(155.548689, 305.520215)"><g><path d="M 13.359375 0.421875 C 9.628906 0.421875 6.734375 -0.554688 4.671875 -2.515625 C 2.617188 -4.472656 1.59375 -7.144531 1.59375 -10.53125 C 1.59375 -12.882812 2.109375 -14.921875 3.140625 -16.640625 C 4.179688 -18.367188 5.609375 -19.6875 7.421875 -20.59375 C 9.242188 -21.507812 11.300781 -21.96875 13.59375 -21.96875 C 17.394531 -21.96875 20.3125 -20.960938 22.34375 -18.953125 C 24.382812 -16.953125 25.40625 -14.289062 25.40625 -10.96875 C 25.40625 -8.675781 24.910156 -6.664062 23.921875 -4.9375 C 22.929688 -3.21875 21.523438 -1.894531 19.703125 -0.96875 C 17.890625 -0.0390625 15.773438 0.421875 13.359375 0.421875 Z M 14.015625 -2.59375 C 15.398438 -2.59375 16.46875 -3.265625 17.21875 -4.609375 C 17.96875 -5.960938 18.34375 -7.71875 18.34375 -9.875 C 18.34375 -11.789062 18.097656 -13.445312 17.609375 -14.84375 C 17.128906 -16.238281 16.476562 -17.296875 15.65625 -18.015625 C 14.84375 -18.734375 13.953125 -19.09375 12.984375 -19.09375 C 11.609375 -19.09375 10.550781 -18.4375 9.8125 -17.125 C 9.070312 -15.8125 8.703125 -14.085938 8.703125 -11.953125 C 8.703125 -9.128906 9.171875 -6.863281 10.109375 -5.15625 C 11.054688 -3.445312 12.359375 -2.59375 14.015625 -2.59375 Z M 14.015625 -2.59375 "/></g></g></g><g fill="#38405f" fill-opacity="1"><g transform="translate(182.549157, 305.520215)"><g><path d="M 21.6875 -20.515625 C 21.40625 -18.691406 21.265625 -16.835938 21.265625 -14.953125 C 21.265625 -14.328125 21.28125 -13.875 21.3125 -13.59375 C 20.40625 -13.25 19.070312 -13.078125 17.3125 -13.078125 C 17.28125 -14.265625 17.09375 -15.109375 16.75 -15.609375 C 16.40625 -16.117188 15.921875 -16.375 15.296875 -16.375 C 14.816406 -16.375 14.3125 -16.097656 13.78125 -15.546875 C 13.25 -14.992188 12.8125 -14.265625 12.46875 -13.359375 C 12.125 -12.453125 11.953125 -11.507812 11.953125 -10.53125 L 11.953125 -8.234375 C 11.953125 -6.847656 12.097656 -5.78125 12.390625 -5.03125 C 12.691406 -4.28125 13.171875 -3.738281 13.828125 -3.40625 C 14.484375 -3.082031 15.425781 -2.875 16.65625 -2.78125 C 16.875 -2.144531 16.984375 -1.171875 16.984375 0.140625 C 15.316406 0.046875 12.867188 0 9.640625 0 C 6.003906 0 3.320312 0.046875 1.59375 0.140625 C 1.59375 -1.109375 1.6875 -2.082031 1.875 -2.78125 C 2.757812 -2.84375 3.421875 -3.003906 3.859375 -3.265625 C 4.296875 -3.535156 4.609375 -3.988281 4.796875 -4.625 C 4.984375 -5.269531 5.078125 -6.238281 5.078125 -7.53125 L 5.078125 -13.828125 C 5.078125 -14.804688 5 -15.546875 4.84375 -16.046875 C 4.6875 -16.546875 4.375 -16.921875 3.90625 -17.171875 C 3.4375 -17.421875 2.679688 -17.578125 1.640625 -17.640625 C 1.640625 -18.867188 1.832031 -19.796875 2.21875 -20.421875 C 3.875 -20.453125 5.484375 -20.613281 7.046875 -20.90625 C 8.617188 -21.207031 9.796875 -21.5625 10.578125 -21.96875 C 11.492188 -21.625 11.953125 -20.765625 11.953125 -19.390625 C 11.953125 -18.753906 11.878906 -18.050781 11.734375 -17.28125 C 11.597656 -16.519531 11.421875 -15.710938 11.203125 -14.859375 C 11.703125 -16.398438 12.09375 -17.390625 12.375 -17.828125 C 13.09375 -18.992188 13.960938 -19.921875 14.984375 -20.609375 C 16.003906 -21.296875 17.109375 -21.640625 18.296875 -21.640625 C 19.585938 -21.640625 20.71875 -21.265625 21.6875 -20.515625 Z M 21.6875 -20.515625 "/></g></g></g><g fill="#38405f" fill-opacity="1"><g transform="translate(205.033855, 305.520215)"><g><path d="M 27.609375 -3.4375 C 27.609375 -2.550781 27.453125 -1.78125 27.140625 -1.125 C 25.953125 -1.0625 24.726562 -0.894531 23.46875 -0.625 C 22.21875 -0.363281 21.078125 -0.015625 20.046875 0.421875 C 19.503906 0.203125 19.113281 -0.0976562 18.875 -0.484375 C 18.644531 -0.878906 18.53125 -1.472656 18.53125 -2.265625 C 18.53125 -2.953125 18.625 -3.6875 18.8125 -4.46875 C 18.3125 -3.53125 17.734375 -2.765625 17.078125 -2.171875 C 16.515625 -1.503906 15.664062 -0.90625 14.53125 -0.375 C 13.40625 0.15625 12.1875 0.421875 10.875 0.421875 C 8.019531 0.421875 5.757812 -0.398438 4.09375 -2.046875 C 2.425781 -3.691406 1.59375 -6.175781 1.59375 -9.5 C 1.59375 -11.882812 2.132812 -14.023438 3.21875 -15.921875 C 4.300781 -17.816406 5.820312 -19.296875 7.78125 -20.359375 C 9.75 -21.429688 12 -21.96875 14.53125 -21.96875 C 15.726562 -21.96875 16.859375 -21.8125 17.921875 -21.5 L 17.921875 -26.109375 C 17.921875 -27.273438 17.703125 -28.097656 17.265625 -28.578125 C 16.828125 -29.066406 15.882812 -29.34375 14.4375 -29.40625 C 14.4375 -30.59375 14.609375 -31.519531 14.953125 -32.1875 C 16.523438 -32.1875 18.148438 -32.34375 19.828125 -32.65625 C 21.503906 -32.96875 22.703125 -33.328125 23.421875 -33.734375 C 24.335938 -33.359375 24.796875 -32.523438 24.796875 -31.234375 L 24.796875 -7.953125 C 24.796875 -6.878906 24.859375 -6.082031 24.984375 -5.5625 C 25.109375 -5.050781 25.363281 -4.691406 25.75 -4.484375 C 26.144531 -4.285156 26.75 -4.171875 27.5625 -4.140625 Z M 13.078125 -3.4375 C 14.429688 -3.4375 15.578125 -4.085938 16.515625 -5.390625 C 17.453125 -6.691406 17.921875 -8.691406 17.921875 -11.390625 L 17.921875 -17.546875 C 17.421875 -18.078125 16.894531 -18.472656 16.34375 -18.734375 C 15.800781 -19.003906 15.164062 -19.140625 14.4375 -19.140625 C 12.9375 -19.140625 11.601562 -18.503906 10.4375 -17.234375 C 9.28125 -15.972656 8.703125 -13.738281 8.703125 -10.53125 C 8.703125 -8.375 9.101562 -6.648438 9.90625 -5.359375 C 10.707031 -4.078125 11.765625 -3.4375 13.078125 -3.4375 Z M 13.078125 -3.4375 "/></g></g></g><g fill="#38405f" fill-opacity="1"><g transform="translate(233.82181, 305.520215)"><g><path d="M 21.078125 -5.359375 C 21.390625 -5.171875 21.660156 -4.84375 21.890625 -4.375 C 22.128906 -3.90625 22.265625 -3.421875 22.296875 -2.921875 C 21.109375 -1.785156 19.757812 -0.941406 18.25 -0.390625 C 16.75 0.148438 15.007812 0.421875 13.03125 0.421875 C 9.207031 0.421875 6.34375 -0.59375 4.4375 -2.625 C 2.539062 -4.664062 1.59375 -7.332031 1.59375 -10.625 C 1.59375 -12.851562 2.046875 -14.820312 2.953125 -16.53125 C 3.867188 -18.238281 5.15625 -19.570312 6.8125 -20.53125 C 8.476562 -21.488281 10.410156 -21.96875 12.609375 -21.96875 C 15.835938 -21.96875 18.257812 -21.066406 19.875 -19.265625 C 21.488281 -17.460938 22.359375 -15.007812 22.484375 -11.90625 C 22.296875 -10.988281 21.90625 -10.234375 21.3125 -9.640625 C 15.914062 -9.640625 11.726562 -9.5625 8.75 -9.40625 C 9.03125 -7.46875 9.6875 -5.941406 10.71875 -4.828125 C 11.757812 -3.710938 13.238281 -3.15625 15.15625 -3.15625 C 16.25 -3.15625 17.328125 -3.347656 18.390625 -3.734375 C 19.460938 -4.128906 20.359375 -4.671875 21.078125 -5.359375 Z M 12.46875 -19.046875 C 11.34375 -19.046875 10.425781 -18.488281 9.71875 -17.375 C 9.007812 -16.269531 8.625 -14.617188 8.5625 -12.421875 L 16.046875 -12.421875 C 16.046875 -14.523438 15.738281 -16.15625 15.125 -17.3125 C 14.507812 -18.46875 13.625 -19.046875 12.46875 -19.046875 Z M 12.46875 -19.046875 "/></g></g></g><g fill="#38405f" fill-opacity="1"><g transform="translate(257.952888, 305.520215)"><g><path d="M 17.5 -21.96875 C 20.351562 -21.96875 22.609375 -21.144531 24.265625 -19.5 C 25.929688 -17.851562 26.765625 -15.367188 26.765625 -12.046875 C 26.765625 -9.628906 26.234375 -7.476562 25.171875 -5.59375 C 24.109375 -3.71875 22.59375 -2.242188 20.625 -1.171875 C 18.664062 -0.109375 16.414062 0.421875 13.875 0.421875 C 11.457031 0.421875 9.207031 0.117188 7.125 -0.484375 C 5.039062 -1.097656 3.5 -1.910156 2.5 -2.921875 C 2.875 -3.359375 3.144531 -3.972656 3.3125 -4.765625 C 3.488281 -5.566406 3.578125 -6.675781 3.578125 -8.09375 L 3.578125 -26.109375 C 3.578125 -27.273438 3.347656 -28.097656 2.890625 -28.578125 C 2.441406 -29.066406 1.507812 -29.34375 0.09375 -29.40625 C 0.09375 -30.59375 0.265625 -31.519531 0.609375 -32.1875 C 2.148438 -32.1875 3.765625 -32.347656 5.453125 -32.671875 C 7.148438 -33.003906 8.34375 -33.359375 9.03125 -33.734375 C 9.96875 -33.359375 10.4375 -32.523438 10.4375 -31.234375 L 10.4375 -21.265625 C 10.4375 -20.078125 10.34375 -19.007812 10.15625 -18.0625 C 10.5 -18.59375 10.878906 -19.035156 11.296875 -19.390625 C 11.921875 -20.046875 12.78125 -20.640625 13.875 -21.171875 C 14.976562 -21.703125 16.1875 -21.96875 17.5 -21.96875 Z M 13.921875 -2.40625 C 15.460938 -2.40625 16.8125 -3.035156 17.96875 -4.296875 C 19.132812 -5.566406 19.71875 -7.804688 19.71875 -11.015625 C 19.71875 -13.140625 19.304688 -14.851562 18.484375 -16.15625 C 17.671875 -17.457031 16.609375 -18.109375 15.296875 -18.109375 C 13.941406 -18.109375 12.789062 -17.457031 11.84375 -16.15625 C 10.90625 -14.851562 10.4375 -12.835938 10.4375 -10.109375 L 10.4375 -4 C 10.945312 -3.46875 11.472656 -3.066406 12.015625 -2.796875 C 12.566406 -2.535156 13.203125 -2.40625 13.921875 -2.40625 Z M 13.921875 -2.40625 "/></g></g></g><g fill="#38405f" fill-opacity="1"><g transform="translate(286.31748, 305.520215)"><g><path d="M 7.953125 -25.59375 C 6.785156 -25.59375 5.84375 -25.894531 5.125 -26.5 C 4.40625 -27.113281 4.046875 -27.925781 4.046875 -28.9375 C 4.046875 -30.03125 4.425781 -30.898438 5.1875 -31.546875 C 5.957031 -32.191406 6.941406 -32.515625 8.140625 -32.515625 C 9.421875 -32.515625 10.414062 -32.195312 11.125 -31.5625 C 11.832031 -30.9375 12.1875 -30.078125 12.1875 -28.984375 C 12.1875 -28.003906 11.800781 -27.191406 11.03125 -26.546875 C 10.257812 -25.910156 9.234375 -25.59375 7.953125 -25.59375 Z M 1.59375 0.140625 C 1.59375 -1.109375 1.703125 -2.082031 1.921875 -2.78125 C 3.179688 -2.84375 4.019531 -3.144531 4.4375 -3.6875 C 4.863281 -4.238281 5.078125 -5.300781 5.078125 -6.875 L 5.078125 -14.34375 C 5.078125 -15.507812 4.847656 -16.332031 4.390625 -16.8125 C 3.941406 -17.300781 3.007812 -17.578125 1.59375 -17.640625 C 1.59375 -18.835938 1.765625 -19.765625 2.109375 -20.421875 C 3.648438 -20.421875 5.265625 -20.582031 6.953125 -20.90625 C 8.648438 -21.238281 9.859375 -21.59375 10.578125 -21.96875 C 11.492188 -21.59375 11.953125 -20.765625 11.953125 -19.484375 L 11.953125 -6.875 C 11.953125 -5.300781 12.15625 -4.238281 12.5625 -3.6875 C 12.96875 -3.144531 13.75 -2.84375 14.90625 -2.78125 C 15.101562 -2.175781 15.203125 -1.203125 15.203125 0.140625 C 13.847656 0.046875 11.585938 0 8.421875 0 C 5.191406 0 2.914062 0.046875 1.59375 0.140625 Z M 1.59375 0.140625 "/></g></g></g><g fill="#38405f" fill-opacity="1"><g transform="translate(303.063412, 305.520215)"><g><path d="M 6.828125 0.421875 C 5.503906 0.421875 4.457031 0.0546875 3.6875 -0.671875 C 2.925781 -1.410156 2.546875 -2.410156 2.546875 -3.671875 C 2.546875 -4.890625 2.96875 -5.882812 3.8125 -6.65625 C 4.65625 -7.425781 5.738281 -7.8125 7.0625 -7.8125 C 8.21875 -7.8125 9.179688 -7.414062 9.953125 -6.625 C 10.722656 -5.84375 11.109375 -4.953125 11.109375 -3.953125 C 11.109375 -2.660156 10.710938 -1.609375 9.921875 -0.796875 C 9.140625 0.015625 8.109375 0.421875 6.828125 0.421875 Z M 6.828125 0.421875 "/></g></g></g><g fill="#38405f" fill-opacity="1"><g transform="translate(316.563663, 305.520215)"><g><path d="M 15.34375 -3.765625 C 18.320312 -3.734375 20.546875 -3.316406 22.015625 -2.515625 C 23.492188 -1.710938 24.234375 -0.234375 24.234375 1.921875 C 24.234375 3.679688 23.660156 5.3125 22.515625 6.8125 C 21.367188 8.320312 19.742188 9.515625 17.640625 10.390625 C 15.535156 11.273438 13.132812 11.71875 10.4375 11.71875 C 7.175781 11.71875 4.847656 11.207031 3.453125 10.1875 C 2.054688 9.164062 1.359375 7.742188 1.359375 5.921875 C 1.359375 4.859375 1.648438 3.910156 2.234375 3.078125 C 2.816406 2.242188 3.671875 1.59375 4.796875 1.125 C 3.453125 0.34375 2.78125 -0.925781 2.78125 -2.6875 C 2.78125 -4.65625 3.703125 -6.425781 5.546875 -8 C 3.222656 -9.34375 2.0625 -11.410156 2.0625 -14.203125 C 2.0625 -16.617188 2.898438 -18.515625 4.578125 -19.890625 C 6.265625 -21.273438 8.628906 -21.96875 11.671875 -21.96875 C 13.015625 -21.96875 14.253906 -21.828125 15.390625 -21.546875 L 24.234375 -21.546875 C 24.546875 -20.765625 24.703125 -19.539062 24.703125 -17.875 C 23.347656 -18.34375 21.875 -18.65625 20.28125 -18.8125 C 20.9375 -18.09375 21.4375 -17.3125 21.78125 -16.46875 C 22.125 -15.625 22.296875 -14.804688 22.296875 -14.015625 C 22.296875 -11.828125 21.414062 -10.039062 19.65625 -8.65625 C 17.90625 -7.28125 15.367188 -6.59375 12.046875 -6.59375 C 10.878906 -6.59375 9.78125 -6.6875 8.75 -6.875 C 8.1875 -6.363281 7.90625 -5.890625 7.90625 -5.453125 C 7.90625 -4.921875 8.160156 -4.535156 8.671875 -4.296875 C 9.191406 -4.066406 9.898438 -3.925781 10.796875 -3.875 C 11.691406 -3.832031 13.207031 -3.796875 15.34375 -3.765625 Z M 11.90625 -19.4375 C 10.894531 -19.4375 10.128906 -19.019531 9.609375 -18.1875 C 9.097656 -17.351562 8.84375 -16.242188 8.84375 -14.859375 C 8.84375 -13.078125 9.171875 -11.710938 9.828125 -10.765625 C 10.492188 -9.828125 11.4375 -9.359375 12.65625 -9.359375 C 13.59375 -9.359375 14.320312 -9.75 14.84375 -10.53125 C 15.363281 -11.320312 15.625 -12.453125 15.625 -13.921875 C 15.625 -15.617188 15.289062 -16.960938 14.625 -17.953125 C 13.96875 -18.941406 13.0625 -19.4375 11.90625 -19.4375 Z M 11.90625 8.5625 C 13.84375 8.5625 15.382812 8.191406 16.53125 7.453125 C 17.675781 6.710938 18.25 5.78125 18.25 4.65625 C 18.25 4.09375 18.09375 3.65625 17.78125 3.34375 C 17.46875 3.03125 16.910156 2.8125 16.109375 2.6875 C 15.304688 2.5625 14.125 2.5 12.5625 2.5 C 10.363281 2.4375 8.8125 2.328125 7.90625 2.171875 C 7.5625 2.578125 7.316406 2.96875 7.171875 3.34375 C 7.035156 3.71875 6.96875 4.15625 6.96875 4.65625 C 6.96875 6.007812 7.34375 7 8.09375 7.625 C 8.84375 8.25 10.113281 8.5625 11.90625 8.5625 Z M 11.90625 8.5625 "/></g></g></g><g fill="#38405f" fill-opacity="1"><g transform="translate(342.529276, 305.520215)"><g><path d="M 21.078125 -5.359375 C 21.390625 -5.171875 21.660156 -4.84375 21.890625 -4.375 C 22.128906 -3.90625 22.265625 -3.421875 22.296875 -2.921875 C 21.109375 -1.785156 19.757812 -0.941406 18.25 -0.390625 C 16.75 0.148438 15.007812 0.421875 13.03125 0.421875 C 9.207031 0.421875 6.34375 -0.59375 4.4375 -2.625 C 2.539062 -4.664062 1.59375 -7.332031 1.59375 -10.625 C 1.59375 -12.851562 2.046875 -14.820312 2.953125 -16.53125 C 3.867188 -18.238281 5.15625 -19.570312 6.8125 -20.53125 C 8.476562 -21.488281 10.410156 -21.96875 12.609375 -21.96875 C 15.835938 -21.96875 18.257812 -21.066406 19.875 -19.265625 C 21.488281 -17.460938 22.359375 -15.007812 22.484375 -11.90625 C 22.296875 -10.988281 21.90625 -10.234375 21.3125 -9.640625 C 15.914062 -9.640625 11.726562 -9.5625 8.75 -9.40625 C 9.03125 -7.46875 9.6875 -5.941406 10.71875 -4.828125 C 11.757812 -3.710938 13.238281 -3.15625 15.15625 -3.15625 C 16.25 -3.15625 17.328125 -3.347656 18.390625 -3.734375 C 19.460938 -4.128906 20.359375 -4.671875 21.078125 -5.359375 Z M 12.46875 -19.046875 C 11.34375 -19.046875 10.425781 -18.488281 9.71875 -17.375 C 9.007812 -16.269531 8.625 -14.617188 8.5625 -12.421875 L 16.046875 -12.421875 C 16.046875 -14.523438 15.738281 -16.15625 15.125 -17.3125 C 14.507812 -18.46875 13.625 -19.046875 12.46875 -19.046875 Z M 12.46875 -19.046875 "/></g></g></g></svg>